<svg width="42" height="56" viewBox="0 0 42 56" xmlns="http://www.w3.org/2000/svg">
<path d="M13.4233 33.8555C13.4233 33.4024 13.0562 33.0352 12.603 33.0352H4.64807C4.19493 33.0352 3.82776 33.4024 3.82776 33.8555V39.1588C3.82776 39.6119 4.19493 39.9792 4.64807 39.9792H12.603C13.0562 39.9792 13.4233 39.6119 13.4233 39.1588V33.8555ZM11.7827 38.3384H5.46838V34.6757H11.7827V38.3384Z"/>
<path d="M32.9326 38.2119H37.352C37.8051 38.2119 38.1723 37.8446 38.1723 37.3916C38.1723 36.9386 37.8051 36.5713 37.352 36.5713H32.9326C32.4794 36.5713 32.1122 36.9386 32.1122 37.3916C32.1122 37.8446 32.4794 38.2119 32.9326 38.2119Z"/>
<path d="M32.9326 34.6758H37.352C37.8051 34.6758 38.1723 34.3085 38.1723 33.8555C38.1723 33.4024 37.8051 33.0352 37.352 33.0352H32.9326C32.4794 33.0352 32.1122 33.4024 32.1122 33.8555C32.1122 34.3085 32.4794 34.6758 32.9326 34.6758Z"/>
<path d="M40.8875 42.7038C40.4344 42.7038 40.0672 43.0711 40.0672 43.5241V54.0755C40.0672 54.2325 39.9396 54.3601 39.7826 54.3601H2.21721C2.06026 54.3601 1.93262 54.2325 1.93262 54.0755V35.9219C1.93262 35.4688 1.56545 35.1016 1.1123 35.1016C0.659164 35.1016 0.291992 35.4688 0.291992 35.9219V54.0754C0.291992 55.137 1.15562 56.0006 2.21721 56.0006H39.7826C40.8441 56.0006 41.7078 55.137 41.7078 54.0754V43.524C41.7078 43.0711 41.3406 42.7038 40.8875 42.7038Z"/>
<path d="M39.7827 27.8426H26.2397V23.6819C30.4775 21.702 33.4213 17.3994 33.4213 12.4214C33.4213 5.57222 27.8491 0 21 0C18.6229 0 16.3124 0.67375 14.3182 1.94852C12.3777 3.18894 10.8216 4.93784 9.81823 7.00591C9.62048 7.41355 9.79066 7.90431 10.1983 8.10206C10.6062 8.2997 11.0966 8.12952 11.2944 7.72209C13.1142 3.97086 16.8332 1.64062 21 1.64062C26.9446 1.64062 31.7807 6.47686 31.7807 12.4214C31.7807 18.3659 26.9446 23.2022 21 23.2022C15.0553 23.2022 10.2192 18.3659 10.2192 12.4214C10.2192 12.0025 10.2435 11.5804 10.2914 11.1669C10.3436 10.7168 10.0209 10.3097 9.57093 10.2576C9.12041 10.205 8.71376 10.528 8.66169 10.9781C8.60657 11.4541 8.57857 11.9397 8.57857 12.4215C8.57857 17.3995 11.5224 21.7021 15.7602 23.682V27.8428H2.21721C1.15573 27.8428 0.291992 28.7065 0.291992 29.768V32.0744C0.291992 32.5275 0.659164 32.8948 1.1123 32.8948C1.56545 32.8948 1.93262 32.5275 1.93262 32.0744V29.768C1.93262 29.6111 2.06026 29.4835 2.21721 29.4835H12.8936L20.3825 38.0423C20.5384 38.2202 20.7633 38.3224 21 38.3224C21.2366 38.3224 21.4615 38.2202 21.6174 38.0423L29.1063 29.4835H39.7827C39.9397 29.4835 40.0673 29.6111 40.0673 29.768V39.6737C40.0673 40.1267 40.4345 40.494 40.8876 40.494C41.3408 40.494 41.7079 40.1267 41.7079 39.6737V29.768C41.7078 28.7062 40.8442 27.8426 39.7827 27.8426ZM21 36.2561L15.0737 29.4832H16.5804C17.0336 29.4832 17.4008 29.116 17.4008 28.6629V24.3105C18.5406 24.6562 19.7487 24.8429 20.9998 24.8429C22.251 24.8429 23.4593 24.6562 24.5989 24.3105V28.6629C24.5989 29.116 24.9661 29.4832 25.4193 29.4832H26.926L21 36.2561Z" />
<path d="M4.64795 48.0449H6.85765C7.31079 48.0449 7.67797 47.6776 7.67797 47.2246C7.67797 46.7716 7.31079 46.4043 6.85765 46.4043H4.64795C4.19481 46.4043 3.82764 46.7716 3.82764 47.2246C3.82764 47.6776 4.19492 48.0449 4.64795 48.0449Z"/>
<path d="M12.603 46.4043H10.3933C9.94017 46.4043 9.573 46.7716 9.573 47.2246C9.573 47.6776 9.94017 48.0449 10.3933 48.0449H12.603C13.0562 48.0449 13.4233 47.6776 13.4233 47.2246C13.4233 46.7716 13.056 46.4043 12.603 46.4043Z"/>
<path d="M18.3483 48.0449C18.8014 48.0449 19.1686 47.6776 19.1686 47.2246C19.1686 46.7716 18.8014 46.4043 18.3483 46.4043H16.1385C15.6854 46.4043 15.3182 46.7716 15.3182 47.2246C15.3182 47.6776 15.6854 48.0449 16.1385 48.0449H18.3483Z"/>
<path d="M24.0935 48.0449C24.5466 48.0449 24.9138 47.6776 24.9138 47.2246C24.9138 46.7716 24.5466 46.4043 24.0935 46.4043H21.8838C21.4306 46.4043 21.0635 46.7716 21.0635 47.2246C21.0635 47.6776 21.4306 48.0449 21.8838 48.0449H24.0935Z"/>
<path d="M4.64795 52.4648H13.4869C13.94 52.4648 14.3072 52.0976 14.3072 51.6445C14.3072 51.1915 13.94 50.8242 13.4869 50.8242H4.64795C4.19481 50.8242 3.82764 51.1915 3.82764 51.6445C3.82764 52.0976 4.19492 52.4648 4.64795 52.4648Z"/>
<path d="M27.6927 49.4344C27.6927 51.1051 29.0521 52.4644 30.7228 52.4644C31.5936 52.4644 32.3792 52.0946 32.9325 51.5045C33.4857 52.0946 34.2713 52.4644 35.1422 52.4644C36.8129 52.4644 38.1722 51.1051 38.1722 49.4344C38.1722 47.7636 36.8129 46.4043 35.1422 46.4043C34.2713 46.4043 33.4857 46.7741 32.9325 47.3643C32.3792 46.7741 31.5936 46.4043 30.7228 46.4043C29.0521 46.4043 27.6927 47.7636 27.6927 49.4344ZM35.1423 48.0449C35.9085 48.0449 36.5317 48.6682 36.5317 49.4344C36.5317 50.2005 35.9085 50.8238 35.1423 50.8238C34.3761 50.8238 33.7529 50.2005 33.7529 49.4344C33.7529 48.6682 34.3761 48.0449 35.1423 48.0449ZM32.1123 49.4344C32.1123 50.2005 31.489 50.8238 30.7229 50.8238C29.9567 50.8238 29.3335 50.2005 29.3335 49.4344C29.3335 48.6682 29.9567 48.0449 30.7229 48.0449C31.489 48.0449 32.1123 48.6682 32.1123 49.4344Z"/>
<path d="M18.2824 16.7146C17.9036 16.4666 17.3951 16.573 17.1469 16.952C16.8988 17.3311 17.0051 17.8396 17.3843 18.0875C18.445 18.7814 19.1688 18.9869 20.1055 19.0386V19.9427C20.1055 20.3958 20.4727 20.763 20.9258 20.763C21.3789 20.763 21.7461 20.3958 21.7461 19.9427V18.9737C23.6055 18.612 24.6915 17.0803 24.932 15.6495C25.2408 13.8127 24.2798 12.2155 22.4838 11.5807C22.2415 11.495 21.9934 11.405 21.7461 11.3114V7.37697C22.372 7.5243 22.745 7.84116 22.7771 7.86927C23.1103 8.17114 23.6253 8.14861 23.9307 7.81731C24.2379 7.48427 24.2169 6.96528 23.8839 6.65816C23.8367 6.61484 23.0437 5.90073 21.7461 5.70802V4.90039C21.7461 4.44736 21.3789 4.08008 20.9258 4.08008C20.4727 4.08008 20.1055 4.44736 20.1055 4.90039V5.77091C19.9806 5.79825 19.8538 5.82986 19.7242 5.86891C18.5418 6.22514 17.6583 7.23708 17.4185 8.50998C17.1998 9.67023 17.5713 10.789 18.388 11.4295C18.8225 11.7703 19.3636 12.0825 20.1055 12.4124V17.3958C19.4586 17.3497 19.0145 17.1935 18.2824 16.7146ZM19.4006 10.1387C19.0676 9.87761 18.9259 9.36989 19.0307 8.81383C19.1251 8.31311 19.4572 7.711 20.1055 7.4718V10.588C19.84 10.4446 19.5998 10.295 19.4006 10.1387ZM21.9371 13.1277C23.4745 13.6711 23.3796 14.9873 23.314 15.3778C23.1856 16.1422 22.6516 16.9525 21.7461 17.2714V13.0593C21.8096 13.0821 21.8718 13.1046 21.9371 13.1277Z"/>
</svg>
