<svg width="56" height="56" viewBox="0 0 56 56" xmlns="http://www.w3.org/2000/svg">
<path d="M13.5353 4.72461C13.0764 4.72461 12.7043 5.09659 12.7043 5.55553V5.90706C12.7043 6.36589 13.0763 6.73798 13.5353 6.73798C13.9941 6.73798 14.3662 6.366 14.3662 5.90706V5.55553C14.3661 5.09659 13.9941 4.72461 13.5353 4.72461Z" />
<path d="M11.1192 7.4917H10.7678C10.309 7.4917 9.93689 7.86368 9.93689 8.32262C9.93689 8.78145 10.3089 9.15354 10.7678 9.15354H11.1192C11.5781 9.15354 11.9502 8.78156 11.9502 8.32262C11.9502 7.86379 11.5782 7.4917 11.1192 7.4917Z" />
<path d="M12.4144 6.02695L12.1657 5.77845C11.8413 5.45404 11.3151 5.45404 10.9907 5.77856C10.6663 6.10307 10.6663 6.62917 10.9908 6.95357L11.2394 7.20207C11.4016 7.36428 11.6143 7.44543 11.8269 7.44543C12.0395 7.44543 12.2523 7.36428 12.4145 7.20196C12.7389 6.87745 12.7389 6.35135 12.4144 6.02695Z" />
<path d="M12.4144 9.44358C12.0899 9.11907 11.5638 9.11907 11.2393 9.44358L10.9907 9.69219C10.6662 10.0166 10.6662 10.5428 10.9907 10.8672C11.1529 11.0294 11.3655 11.1106 11.5783 11.1106C11.7909 11.1106 12.0035 11.0294 12.1658 10.8672L12.4144 10.6186C12.739 10.2942 12.739 9.76799 12.4144 9.44358Z" />
<path d="M49.7966 6.85344H21.7263C21.4095 5.07598 20.5219 3.44805 19.1799 2.20795C17.6392 0.784109 15.6344 0 13.5353 0C8.94603 0 5.2124 3.73363 5.2124 8.32289C5.2124 12.9122 8.94603 16.6458 13.5353 16.6458C14.3779 16.6458 15.2059 16.5178 16.0049 16.269C17.2569 17.4502 18.8082 18.3339 20.5601 18.7895C21.6919 19.0839 22.5518 20.0179 22.7506 21.1692L23.8067 27.2869C24.1799 29.4483 25.3826 31.322 27.1934 32.5629C28.5664 33.5037 29.386 35.0378 29.386 36.6667V49.1358C28.7525 49.5373 28.3467 50.243 28.3467 51.0216C28.3467 51.0453 28.3471 51.0689 28.3478 51.0926C26.2718 51.5169 24.5618 51.9077 23.2638 52.2545C22.3795 52.4907 21.7124 52.6991 21.2242 52.8915C20.7695 53.0707 19.9229 53.4044 19.9229 54.1789C19.9229 55.2196 21.276 55.3972 22.3632 55.5401C23.2972 55.6628 24.5912 55.765 26.2093 55.844C28.9428 55.9776 31.712 55.9998 31.7397 56C31.7417 56 31.7438 56 31.7459 56C31.748 56 31.7521 56 31.7521 56C31.7798 55.9998 34.549 55.9775 37.2825 55.844C38.9006 55.765 40.1946 55.6628 41.1286 55.5401C42.2158 55.3972 43.5689 55.2196 43.5689 54.1789C43.5689 53.3557 42.8098 52.9312 40.0374 52.2039C38.3574 51.7633 36.2644 51.3183 34.7613 51.0147C34.7595 50.4148 34.521 49.8541 34.1058 49.4417V36.6665C34.1058 35.0377 34.9255 33.5036 36.2985 32.5628C38.1092 31.3219 39.3119 29.4482 39.6851 27.2868L40.7412 21.1691C40.94 20.0178 41.7998 19.0837 42.9317 18.7894C46.7271 17.8024 49.5817 14.8092 50.4845 11.1234C50.488 11.1092 50.4917 11.0952 50.4945 11.0808C50.6852 10.2879 50.7875 9.464 50.7875 8.62061V7.84459C50.7876 7.29805 50.343 6.85344 49.7966 6.85344ZM13.5353 14.9839C9.86237 14.9839 6.87425 11.9958 6.87425 8.32289C6.87425 4.64997 9.86237 1.66184 13.5353 1.66184C15.2152 1.66184 16.8193 2.28922 18.0522 3.42847C19.0525 4.3528 19.737 5.54575 20.0313 6.85344H19.1802C18.5225 4.31988 16.214 2.48828 13.5353 2.48828C10.318 2.48828 7.70068 5.10574 7.70068 8.32289C7.70068 11.54 10.3181 14.1575 13.5353 14.1575C13.7748 14.1575 14.0149 14.1413 14.254 14.1115C14.4135 14.3717 14.5842 14.6244 14.7654 14.8695C14.3616 14.9454 13.9506 14.9839 13.5353 14.9839ZM16.0797 5.7785C15.7553 5.45409 15.2291 5.45409 14.9047 5.7785L14.6562 6.027C14.4324 6.25067 14.363 6.57027 14.4478 6.85344H13.6955C13.149 6.85344 12.7044 7.29805 12.7044 7.84459V8.62061C12.7044 9.46378 12.8066 10.2875 12.9973 11.0801C13.0002 11.0955 13.0042 11.1105 13.0079 11.1256C13.1226 11.5935 13.2678 12.0506 13.4434 12.4935C11.1849 12.4442 9.36242 10.593 9.36242 8.32289C9.36242 6.02197 11.2344 4.15002 13.5353 4.15002C15.3006 4.15002 16.8416 5.2617 17.4406 6.85344H16.1639C16.4002 6.52848 16.3727 6.07152 16.0797 5.7785ZM34.3099 52.6189C37.2309 53.2067 39.0648 53.6522 40.2126 53.974C38.1135 54.1802 34.7462 54.3152 31.746 54.3382C28.7465 54.3152 25.3795 54.1802 23.2803 53.9742C24.3781 53.6663 26.103 53.2454 28.8063 52.6949C29.5541 52.5428 30.0718 51.8425 30.0104 51.0666C30.0092 51.0518 30.0086 51.0367 30.0086 51.0215C30.0086 50.7641 30.1826 50.5378 30.4319 50.471C30.7952 50.3738 31.0479 50.0445 31.0479 49.6684V36.6665C31.0479 35.5725 30.7725 34.5115 30.267 33.568C30.7314 33.5981 31.2385 33.6135 31.746 33.6135C32.2535 33.6135 32.7606 33.5981 33.225 33.568C32.7196 34.5116 32.4441 35.5726 32.4441 36.6665V49.8361C32.4441 50.1212 32.5904 50.3864 32.8314 50.5386C32.9993 50.6446 33.0996 50.825 33.0996 51.0214C33.0996 51.034 33.0992 51.0466 33.0985 51.0581C33.0506 51.7995 33.5714 52.4704 34.3099 52.6189ZM49.126 8.62061C49.126 9.12012 49.0839 9.61166 49.0032 10.0917H23.989C23.5302 10.0917 23.1581 10.4637 23.1581 10.9226C23.1581 11.3815 23.5301 11.7535 23.989 11.7535H48.5522C47.5587 14.3772 45.3481 16.4442 42.5138 17.1812C40.7518 17.6393 39.4134 19.0937 39.104 20.8865L38.0479 27.0041C37.7517 28.7198 36.7969 30.2071 35.3594 31.1921C35.1365 31.3449 34.4746 31.7017 34.3538 31.7555C33.6963 32.0147 29.8013 32.0148 29.1394 31.756C29.019 31.7028 28.3563 31.3453 28.1327 31.1922C26.6952 30.2071 25.7404 28.7198 25.4443 27.0042L24.3881 20.8866C24.0787 19.0938 22.7402 17.6395 20.9784 17.1813C19.3746 16.7642 17.9709 15.921 16.8736 14.7925C16.8476 14.7604 16.8191 14.7308 16.789 14.7033C15.9876 13.856 15.3566 12.8541 14.9399 11.7537H20.1232C20.582 11.7537 20.9541 11.3817 20.9541 10.9227C20.9541 10.4639 20.5821 10.0918 20.1232 10.0918H14.4889C14.4082 9.61177 14.3662 9.12013 14.3662 8.62072V8.51528H49.126V8.62061Z" />
</svg>
