<svg width="56" height="44" viewBox="0 0 56 44"  xmlns="http://www.w3.org/2000/svg">
<path d="M53.8581 16.4358L52.6376 15.1435L48.3538 3.5965C47.6239 1.64607 45.7573 0.353763 43.6752 0.341797H13.0786C10.9966 0.341797 9.12991 1.64607 8.4 3.5965L4.17607 14.9999L2.41709 16.6273C0.88547 17.9315 0 19.8461 0 21.8563V38.6803C0.0119658 41.4324 2.24957 43.658 5.00171 43.658H8.16068C10.9128 43.658 13.1504 41.4324 13.1624 38.6803V36.2392H42.8376V38.6803C42.8496 41.4324 45.0872 43.658 47.8393 43.658H50.9983C53.7504 43.658 55.988 41.4324 56 38.6803V21.4136C55.988 19.535 55.2222 17.7401 53.8581 16.4358ZM10.6496 4.41017C11.0325 3.39308 12.0017 2.73496 13.0786 2.73496H43.6872C44.7641 2.73496 45.7333 3.40504 46.1162 4.41017L49.8496 14.4615H47.0615C46.4034 9.97428 42.2273 6.87513 37.7402 7.54522C34.1624 8.07171 31.3504 10.8837 30.8239 14.4615H6.91624L10.6496 4.41017ZM44.6205 14.4615H33.241C33.8991 11.3144 36.9863 9.30419 40.1333 9.96231C42.3829 10.4409 44.1419 12.1999 44.6205 14.4615ZM10.7692 38.6803C10.7573 40.1162 9.59658 41.2649 8.16068 41.2649H5.00171C3.56581 41.2649 2.40513 40.1162 2.39316 38.6803V35.5452C3.11111 36.0119 4.05641 36.2392 5.00171 36.2392H10.7692V38.6803ZM53.6068 38.6803C53.5949 40.1162 52.4342 41.2649 50.9983 41.2649H47.8393C46.4034 41.2649 45.2427 40.1042 45.2308 38.6803V36.2392H50.9983C51.9436 36.2392 52.8889 36.0119 53.6068 35.5452V38.6803ZM50.9983 33.8461H5.00171C3.57778 33.858 2.40513 32.7213 2.39316 31.2854V21.8563C2.39316 20.5401 2.97949 19.2837 3.98462 18.4341C3.99658 18.4221 4.02051 18.3982 4.03248 18.3862L5.65983 16.8546H50.9744L52.1231 18.0871C52.135 18.111 52.1709 18.123 52.1829 18.1469C53.0803 18.9965 53.5949 20.1811 53.5949 21.4136V31.2854H53.6068C53.5949 32.7093 52.4222 33.858 50.9983 33.8461Z" />
</svg>
