<svg width="56" height="56" viewBox="0 0 56 56" xmlns="http://www.w3.org/2000/svg">
<g clip-path="url(#clip0)">
<path d="M54.2851 23.6511H50.9474C50.3288 23.6511 49.7836 23.9689 49.4649 24.4492C46.9134 24.1826 46.5733 23.7737 46.2977 23.4404C45.9226 22.9871 45.4778 22.6026 44.9754 22.2975L37.3059 17.6389C35.7439 14.0107 33.1312 11.7424 31.1924 10.4709C30.4375 9.97577 29.9867 9.13708 29.9867 8.22748C29.9867 7.69086 30.1448 7.17218 30.4439 6.72699L32.3511 3.88837C32.7313 3.32312 32.8625 2.64465 32.7211 1.97815C32.5797 1.31165 32.184 0.745117 31.6073 0.382385C31.2086 0.132446 30.7494 0 30.2794 0H21.2175C20.7471 0 20.2878 0.132446 19.8896 0.382385C19.3128 0.74469 18.9172 1.31122 18.7758 1.97815C18.6344 2.64465 18.7655 3.32312 19.1458 3.88837L21.053 6.72699C21.3521 7.17218 21.5102 7.69086 21.5102 8.22748C21.5102 9.13708 21.0594 9.97577 20.3045 10.4709C17.4312 12.3551 11.0106 17.9084 13.4382 28.7618C14.7921 34.8154 15.838 39.0819 16.4669 41.1348H2.94076C1.82522 41.1348 0.849813 41.9278 0.622091 43.0198L0.159811 45.239C0.0136925 45.9401 0.188863 46.6608 0.64089 47.2167C1.09249 47.7721 1.76241 48.0908 2.47848 48.0908H49.0184C49.7349 48.0908 50.4044 47.7721 50.8564 47.2167C51.308 46.6608 51.4832 45.9401 51.3371 45.239L50.8748 43.0198C50.6471 41.9278 49.6717 41.1348 48.5561 41.1348H35.0299C35.2179 40.5209 35.4448 39.704 35.7075 38.6923H36.5979C39.2105 38.6923 41.7996 38.3022 44.2956 37.5327L49.3939 36.8901C49.6986 37.4344 50.2801 37.804 50.9474 37.804H54.2851C55.2656 37.804 56.0637 37.0063 56.0637 36.0254V25.4301C56.0637 24.4492 55.2656 23.6511 54.2851 23.6511ZM20.3809 2.31866C20.4292 2.09009 20.5647 1.89612 20.7625 1.77179C20.8992 1.68591 21.0564 1.64062 21.2175 1.64062H30.2794C30.4405 1.64062 30.5981 1.68591 30.7344 1.77179C30.9322 1.89612 31.0676 2.09009 31.1164 2.31866C31.1646 2.54681 31.1193 2.77966 30.9895 2.97321L30.0457 4.37799H21.4512L20.5074 2.97321C20.3771 2.77966 20.3322 2.54681 20.3809 2.31866ZM21.2038 11.8428C22.4232 11.0435 23.1512 9.69165 23.1512 8.22748C23.1512 7.44519 22.9401 6.68726 22.5428 6.01862H28.9541C28.5567 6.68726 28.3461 7.44519 28.3461 8.22748C28.3461 9.69165 29.0737 11.0435 30.2931 11.8428C30.7955 12.1722 31.3479 12.5756 31.9136 13.0605H19.588C20.1622 12.5674 20.7159 12.1628 21.2038 11.8428ZM49.2688 43.3548L49.731 45.5739C49.7926 45.8687 49.6648 46.0811 49.5832 46.1815C49.5016 46.2819 49.3196 46.4502 49.0184 46.4502H2.47848C2.17727 46.4502 1.99526 46.2819 1.91366 46.1815C1.83205 46.0811 1.70431 45.8687 1.76583 45.5739L2.22811 43.3548C2.29818 43.019 2.5981 42.7755 2.94076 42.7755H48.5557C48.8988 42.7755 49.1983 43.019 49.2688 43.3548ZM33.3081 41.1348H18.1887C17.8508 40.1278 16.9929 37.1362 15.0391 28.4033C14.2154 24.7209 14.4123 21.3871 15.6206 18.4698H18.6425C19.0958 18.4698 19.4628 18.1028 19.4628 17.6495C19.4628 17.1962 19.0958 16.8292 18.6425 16.8292H16.434C16.8972 16.0311 17.4124 15.324 17.9469 14.7011H33.5559C34.0917 15.3257 34.6057 16.0333 35.0662 16.8292H21.928C21.4747 16.8292 21.1077 17.1962 21.1077 17.6495C21.1077 18.1028 21.4747 18.4698 21.928 18.4698H32.7989C32.5899 18.9804 32.5472 19.5418 32.6809 20.0878C32.8488 20.7701 33.2722 21.3469 33.8721 21.7101L35.2824 22.5667H26.165C24.7171 22.5667 23.543 23.6805 23.4926 25.1024C23.4789 25.481 23.5447 25.8488 23.6823 26.188H22.841C22.1203 26.188 21.4482 26.4734 20.9475 26.9921C20.4476 27.5104 20.1857 28.1931 20.2118 28.9143C20.2515 30.041 20.997 30.9741 22.0254 31.3133C21.8626 31.6551 21.7716 32.037 21.7716 32.4404C21.7716 33.8909 22.9521 35.0714 24.4026 35.0714H25.6455C25.5207 35.3773 25.4519 35.7118 25.4519 36.0617C25.4519 37.5126 26.6324 38.6927 28.0829 38.6927H34.0118C33.667 39.9966 33.4453 40.7277 33.3081 41.1348ZM44.0192 35.9139C43.9709 35.9199 43.9239 35.9301 43.8778 35.9442C41.5185 36.6791 39.0691 37.0516 36.5979 37.0516H28.0829C27.5369 37.0516 27.0926 36.6073 27.0926 36.0613C27.0926 35.5153 27.5369 35.0709 28.0829 35.0709H33.4598C33.9127 35.0709 34.2801 34.7035 34.2801 34.2506C34.2801 33.7973 33.9127 33.4303 33.4598 33.4303H24.4026C23.8566 33.4303 23.4123 32.986 23.4123 32.4399C23.4123 31.8939 23.8566 31.4496 24.4026 31.4496H33.4598C33.9127 31.4496 34.2801 31.0826 34.2801 30.6293C34.2801 30.176 33.9127 29.809 33.4598 29.809H22.8842C22.333 29.809 21.8699 29.3813 21.8511 28.8553C21.8417 28.5836 21.94 28.326 22.128 28.1307C22.3168 27.9359 22.5697 27.8282 22.841 27.8282H33.4598C33.9127 27.8282 34.2801 27.4608 34.2801 27.0079C34.2801 26.5546 33.9127 26.1876 33.4598 26.1876H26.1218C25.8505 26.1876 25.5972 26.08 25.4088 25.8847C25.2208 25.6899 25.1225 25.4323 25.1319 25.1601C25.1507 24.6346 25.6143 24.2069 26.165 24.2069H37.4721C37.9382 24.2069 38.336 23.9053 38.462 23.4562C38.5876 23.0072 38.4043 22.5428 38.0057 22.301L34.7232 20.307C34.4967 20.1699 34.3378 19.9532 34.2746 19.696C34.2113 19.4393 34.2519 19.1731 34.3891 18.9471C34.6719 18.4797 35.2824 18.3301 35.7486 18.6121L44.1239 23.6993C44.4695 23.9091 44.7754 24.174 45.0335 24.4859C45.7042 25.2964 46.5656 25.7826 49.1684 26.0671V35.264L44.0192 35.9139ZM54.4231 36.0254C54.4231 36.1014 54.3611 36.1634 54.2851 36.1634H50.9474C50.8714 36.1634 50.809 36.1014 50.809 36.0254V25.4297C50.809 25.3536 50.8709 25.2917 50.9474 25.2917H54.2851C54.3611 25.2917 54.4231 25.3536 54.4231 25.4297V36.0254Z" />
<path d="M39.3344 53.3537L35.0619 49.9165C34.709 49.6324 34.1924 49.6888 33.9088 50.0417C33.6246 50.3946 33.6806 50.9111 34.0335 51.1948L37.9676 54.3594H13.5291L17.4713 51.1884C17.8242 50.9047 17.8802 50.3882 17.5961 50.0353C17.3124 49.6819 16.7958 49.6264 16.4429 49.9101L12.1624 53.3533C11.6638 53.7544 11.4792 54.4034 11.6915 55.0067C11.9039 55.61 12.455 56 13.0946 56H38.4021C39.0417 56 39.5924 55.6104 39.8052 55.0067C40.0175 54.4034 39.833 53.7544 39.3344 53.3537Z"/>
</g>
<defs>
<clipPath id="clip0">
<rect width="56" height="56" />
</clipPath>
</defs>
</svg>
