<svg width="56" height="42" viewBox="0 0 56 42" xmlns="http://www.w3.org/2000/svg">
<path d="M54.9145 4.25451C54.9109 4.25451 54.9072 4.25451 54.9037 4.25451H51.2239V2.99535C51.2437 2.49698 50.9213 2.04908 50.4423 1.90987C47.8877 1.2404 45.257 0.904713 42.616 0.911226C38.2741 0.911226 32.3582 1.88816 27.9837 6.33863C23.6418 1.84474 17.6825 0.911226 13.3514 0.911226C10.7104 0.904713 8.07978 1.2404 5.5251 1.90987C5.04613 2.04908 4.72374 2.49698 4.74355 2.99535V4.24365H1.08548C0.486024 4.24365 0 4.72968 0 5.32914V39.9994C0 40.5989 0.486024 41.0849 1.08548 41.0849C1.27191 41.0844 1.45509 41.0358 1.61737 40.9438C1.72592 40.8895 12.5807 34.9519 27.7341 38.7728H27.8969H27.9946C28.0811 38.7833 28.1685 38.7833 28.2551 38.7728C43.4518 34.9194 54.3066 40.8461 54.3718 40.9438C54.7076 41.1377 55.1214 41.1377 55.4573 40.9438C55.791 40.7511 55.9977 40.3958 56 40.0103V5.33999C56 4.74053 55.5141 4.25451 54.9145 4.25451ZM2.17096 38.2735V6.42547H4.76526V33.6494C4.75848 34.2488 5.23894 34.7403 5.8384 34.7471C5.89701 34.7477 5.95563 34.7437 6.01357 34.7348C8.25916 34.392 10.5263 34.2106 12.7978 34.1921C15.9444 34.1376 19.0777 34.6108 22.0678 35.5924C15.3155 34.7758 8.46635 35.6987 2.17096 38.2735ZM12.7978 32.032C10.8235 32.0365 8.85142 32.1633 6.89281 32.4119V3.85288C9.00624 3.38205 11.1644 3.14176 13.3297 3.13646C17.3894 3.13646 22.9905 4.06998 26.8765 8.45532L26.9091 35.4947C24.6513 34.0184 20.2442 32.032 12.7978 32.032ZM29.0801 8.45532C32.9661 4.1134 38.5672 3.13646 42.6269 3.13646C44.792 3.14284 46.9502 3.383 49.0638 3.85288V32.4119C47.1161 32.161 45.155 32.0305 43.1913 32.0211C35.7883 32.0211 31.3704 34.0076 29.0801 35.4838V8.45532ZM53.8182 38.2735C47.5094 35.6917 40.6445 34.7686 33.8779 35.5924C36.8821 34.6073 40.0304 34.1339 43.1913 34.1921C45.4771 34.2049 47.7589 34.3826 50.019 34.724C50.6117 34.8139 51.1651 34.4063 51.2551 33.8137C51.2639 33.7557 51.268 33.6971 51.2673 33.6385V6.42547H53.8616L53.8182 38.2735Z" />
</svg>
