<svg width="56" height="56" viewBox="0 0 56 56" xmlns="http://www.w3.org/2000/svg">
<g clip-path="url(#clip0)">
<path d="M55.794 31.2001L54.7974 16.6657C54.7328 15.7243 54.3046 14.8651 53.592 14.2466C52.8793 13.6281 51.9685 13.3252 51.0274 13.3938C49.1776 13.5286 47.7429 15.087 47.7612 16.9416L47.8789 28.7903L42.7463 35.3638C41.9269 36.4131 40.5675 36.8344 39.3344 36.5184L44.9188 29.2664C45.899 27.9935 45.7361 26.1495 44.5481 25.0683C43.9139 24.4909 43.0937 24.2057 42.2377 24.2656C41.3821 24.3254 40.6091 24.7216 40.0611 25.3815L31.6249 35.5413C30.2335 37.217 29.4791 39.3391 29.5001 41.517L29.6311 55.0092C29.6363 55.5469 30.0734 55.9802 30.6112 55.981L44.6584 56.0001C44.6588 56.0001 44.6593 56.0001 44.6597 56.0001C44.9345 56.0001 45.1967 55.8849 45.3825 55.6825C45.5687 55.4797 45.6612 55.2082 45.6373 54.9338L45.0639 48.3295L54.3892 35.9362C55.4114 34.578 55.9102 32.8959 55.794 31.2001ZM52.8209 34.7564L43.2697 47.4501C43.1242 47.6435 43.0552 47.8839 43.0762 48.125L43.5894 54.036L31.5844 54.0197L31.4629 41.498C31.4461 39.784 32.04 38.114 33.135 36.7953L41.5713 26.6353C41.7734 26.3918 42.0587 26.2456 42.3743 26.2237C42.69 26.2012 42.993 26.3067 43.227 26.5199C43.6655 26.9189 43.7256 27.5994 43.3638 28.069L37.0266 36.2986C36.8604 36.5143 36.7915 36.7894 36.8361 37.058C36.8807 37.3266 37.035 37.5647 37.2619 37.7151C39.5298 39.2193 42.6186 38.7171 44.2933 36.5719L49.6371 29.7278C49.774 29.5527 49.8471 29.3363 49.845 29.1141L49.724 16.9223C49.7157 16.1013 50.351 15.4113 51.17 15.3515C51.5885 15.3214 51.99 15.4553 52.3055 15.729C52.6211 16.0029 52.8106 16.3832 52.8393 16.8001L53.8358 31.3345C53.9197 32.5597 53.5595 33.7749 52.8209 34.7564Z"/>
<path d="M15.9387 25.3813C15.3907 24.7214 14.6178 24.325 13.7622 24.2654C12.9071 24.2057 12.0861 24.4907 11.452 25.068C10.2638 26.1493 10.1009 27.9934 11.0811 29.2663L16.6656 36.5183C15.4333 36.8339 14.073 36.4131 13.2536 35.3637L8.121 28.7902L8.23864 16.9415C8.25696 15.0869 6.82245 13.5285 4.97263 13.3937C4.03287 13.3256 3.12097 13.6278 2.40797 14.2465C1.69537 14.865 1.26723 15.7242 1.20259 16.6656L0.205905 31.1999C0.0895796 32.8957 0.588509 34.5778 1.61045 35.9361L10.9358 48.3294L10.3625 54.9337C10.3385 55.2079 10.431 55.4796 10.6172 55.6824C10.8032 55.8848 11.0654 56 11.34 56C11.3404 56 11.341 56 11.3413 56L25.3886 55.9809C25.9264 55.9801 26.3634 55.5468 26.3686 55.009L26.4998 41.5169C26.5208 39.3391 25.7663 37.217 24.375 35.5413L15.9387 25.3813ZM24.4155 54.0194L12.4106 54.0358L12.9238 48.1248C12.9448 47.8836 12.8759 47.6432 12.7303 47.4498L3.17894 34.7561C2.44043 33.7747 2.0802 32.5594 2.16407 31.3343L3.16075 16.7999C3.18941 16.383 3.37888 16.0026 3.69449 15.7287C3.98066 15.4804 4.33905 15.3471 4.71407 15.3471C4.75254 15.3471 4.79114 15.3485 4.83 15.3512C5.64899 15.4109 6.284 16.1009 6.27589 16.9221L6.15485 29.1139C6.15263 29.3361 6.22591 29.5525 6.36277 29.7276L11.7065 36.5717C13.3816 38.7168 16.4701 39.2187 18.7381 37.715C18.965 37.5645 19.1193 37.3265 19.1639 37.0579C19.2085 36.7893 19.1395 36.5141 18.9734 36.2983L12.6361 28.0689C12.2744 27.5992 12.3345 26.9187 12.7731 26.5197C13.0072 26.3065 13.3097 26.2017 13.6256 26.2234C13.9413 26.2454 14.2266 26.3917 14.4287 26.6352L22.865 36.7951C23.96 38.114 24.5539 39.784 24.5371 41.4979L24.4155 54.0194Z" />
<path d="M47.2247 11.0429C47.2247 8.09331 46.0759 5.32022 43.9902 3.23447C41.9044 1.1486 39.1315 0 36.1817 0C33.2321 0 30.459 1.1486 28.3731 3.23434L28 3.60766L27.6266 3.23434C25.541 1.1486 22.7679 0 19.8182 0C16.8686 0 14.0955 1.1486 12.0096 3.23434C7.70413 7.53995 7.70413 14.5456 12.0097 18.8514L27.3059 34.1476C27.4976 34.3391 27.7489 34.4351 28 34.4351C28.2511 34.4351 28.5023 34.3393 28.694 34.1476L43.9902 18.8513C46.0759 16.7656 47.2247 13.9925 47.2247 11.0429ZM28.0001 32.0659L13.3977 17.4635C9.85726 13.9231 9.85726 8.16253 13.3977 4.62213C15.1126 2.90722 17.3929 1.96275 19.8182 1.96275C22.2436 1.96275 24.5238 2.90722 26.2389 4.62227L27.3061 5.68948C27.49 5.87358 27.7396 5.97695 28 5.97695C28.2604 5.97695 28.5099 5.87345 28.694 5.68948L29.7611 4.62227C31.4761 2.90722 33.7564 1.96275 36.1817 1.96275C38.6072 1.96275 40.8874 2.90722 42.6023 4.62227C44.3173 6.33731 45.2619 8.6175 45.2619 11.0429C45.2619 13.4684 44.3173 15.7485 42.6023 17.4636L28.0001 32.0659Z"/>
</g>
<defs>
<clipPath id="clip0">
<rect width="56" height="56"/>
</clipPath>
</defs>
</svg>
