<svg width="56" height="56" viewBox="0 0 56 56" xmlns="http://www.w3.org/2000/svg">
<g clip-path="url(#clip0)">
<path d="M52.9915 27.517L50.7424 25.2679V3.8683L52.6321 1.97862C53.0026 1.60817 53.0026 1.00748 52.6321 0.637138C52.2615 0.266684 51.661 0.266684 51.2905 0.637138L49.4008 2.52681H28.001L25.7521 0.27784C25.3816 -0.0926134 24.7809 -0.0926134 24.4106 0.27784C24.0401 0.648294 24.0401 1.24898 24.4106 1.61933L26.5635 3.77227L19.8865 32.0664C19.3359 32.7544 19.1516 33.6715 19.4095 34.528C19.6965 35.481 20.4806 36.1959 21.4559 36.3938L25.7139 37.2581C26.5211 37.4221 27.2077 37.9323 27.5973 38.6581C27.9869 39.3839 28.0329 40.2379 27.7234 41.0013C27.22 42.243 25.9028 42.943 24.5925 42.665L8.64041 39.2854C6.23853 38.7764 3.81686 40.1399 3.00584 42.457C2.53553 43.8006 2.67279 45.2793 3.38231 46.5133C4.09194 47.7476 5.30064 48.6103 6.69813 48.8799L6.76419 48.8927C8.02124 49.1352 9.08874 49.9217 9.69304 51.0504C10.2972 52.1792 10.3599 53.5035 9.86465 54.6843C9.66198 55.1675 9.88948 55.7234 10.3726 55.9261C10.4925 55.9763 10.6167 56.0001 10.739 56.0001C11.1098 56.0001 11.4619 55.7814 11.6141 55.418C12.3312 53.708 12.2406 51.7897 11.3654 50.155C10.4903 48.5203 8.94404 47.3811 7.12371 47.0299L7.05765 47.0171C6.20157 46.852 5.46142 46.3237 5.02688 45.5678C4.59233 44.8119 4.50833 43.9065 4.79642 43.0836C5.29299 41.6646 6.77666 40.8301 8.24688 41.1414L24.1986 44.521C26.4105 44.9896 28.6317 43.8092 29.4811 41.7141C30.0034 40.4261 29.9258 38.9852 29.2684 37.7607C28.6111 36.5361 27.453 35.6754 26.0909 35.3989L21.8329 34.5346C21.4094 34.4486 21.2672 34.1187 21.2258 33.9809C21.1921 33.8694 21.1443 33.6165 21.2893 33.3622L49.4965 26.7058L51.6495 28.8588C51.8348 29.0439 52.0777 29.1367 52.3204 29.1367C52.5631 29.1367 52.806 29.0442 52.9913 28.8588C53.3619 28.4881 53.3619 27.8874 52.9915 27.517ZM47.5035 4.42403L38.701 13.2264L29.8984 4.42403H47.5035ZM28.1406 5.34935L37.3593 14.568L22.4459 29.4816L28.1406 5.34935ZM23.7875 30.8233L38.701 15.9097L47.9197 25.1284L23.7875 30.8233ZM48.845 23.3705L40.0425 14.568L48.845 5.76552V23.3705Z"/>
</g>
<defs>
<clipPath id="clip0">
<rect width="56" height="56" />
</clipPath>
</defs>
</svg>
