<svg width="56" height="32" viewBox="0 0 56 32" xmlns="http://www.w3.org/2000/svg">
<path d="M53.2246 8.91566H52.112V4.78074C52.112 2.33631 50.1234 0.347656 47.679 0.347656H31.6128C30.1234 0.347656 28.8042 1.0867 28 2.21644C27.1958 1.08659 25.8766 0.347656 24.3872 0.347656H14.2939C13.8409 0.347656 13.4736 0.714937 13.4736 1.16797C13.4736 1.621 13.8409 1.98828 14.2939 1.98828H24.3872C25.927 1.98828 27.1797 3.24095 27.1797 4.78074V12.985C27.1625 12.9684 27.1444 12.953 27.127 12.9367C26.1546 12.0301 24.8368 11.5075 23.5065 11.5075H9.84255C9.77025 10.4061 9.01939 9.43738 7.98328 9.07009C7.69136 8.96663 7.3827 8.91566 7.07306 8.91566H5.52858V4.78074C5.52858 3.24095 6.78125 1.98828 8.32103 1.98828H11.0126C11.4657 1.98828 11.833 1.621 11.833 1.16797C11.833 0.714937 11.4657 0.347656 11.0126 0.347656H8.32103C5.87661 0.347656 3.88795 2.33631 3.88795 4.78074V8.91566H2.77539C1.24502 8.91566 0 10.1609 0 11.691V20.2563C0 23.4433 2.59284 26.0361 5.77981 26.0361H6.19205C6.19205 26.0361 5.29386 28.452 5.2932 28.4539C4.72653 29.9779 5.89291 31.6521 7.51625 31.6521H8.83597C9.57469 31.6521 10.2818 31.3003 10.7275 30.7111L14.2637 26.0361H41.7365L45.2727 30.7112C45.7184 31.3003 46.4255 31.6521 47.1641 31.6521C47.1641 31.6521 48.483 31.6521 48.4837 31.6521C50.1091 31.6521 51.2734 29.9776 50.7068 28.4539L49.8078 26.0361H50.2202C53.4072 26.0361 56 23.4433 56 20.2563V11.691C56 10.1609 54.755 8.91566 53.2246 8.91566ZM28.8203 4.78095C28.8203 3.24106 30.073 1.98839 31.6128 1.98839H47.679C49.2188 1.98839 50.4714 3.24106 50.4714 4.78084V8.91577C50.4714 8.91577 48.9274 8.91577 48.9268 8.91577C47.8361 8.91577 46.7899 9.61577 46.3668 10.62C46.2483 10.9013 46.1774 11.2033 46.1575 11.5077C46.1575 11.5077 32.4939 11.5077 32.4935 11.5077C31.1427 11.5077 29.7964 12.0512 28.8203 12.9852V4.78095ZM9.84856 13.1482H23.5065C25.532 13.1484 27.1797 14.7961 27.1797 16.8215V17.988H9.84856V13.1482ZM9.41905 29.7214C9.28167 29.9031 9.06358 30.0115 8.83586 30.0115C8.83586 30.0115 7.52073 30.0115 7.51614 30.0115C7.01389 30.0115 6.65591 29.4962 6.83091 29.0257L7.94237 26.0361H12.2065L9.41905 29.7214ZM48.4837 30.0114H47.1641C46.9364 30.0114 46.7184 29.903 46.5811 29.7214L43.7935 26.0361H48.0576C48.0576 26.0361 49.1653 29.0152 49.1691 29.0256C49.3444 29.4972 48.9839 30.0114 48.4837 30.0114ZM50.2202 24.3955H5.77981C3.49748 24.3956 1.64062 22.5386 1.64062 20.2563V11.691C1.64062 11.0653 2.14966 10.5563 2.77539 10.5563H7.07306C7.6988 10.5563 8.20783 11.0653 8.20783 11.691V18.8082C8.20783 19.2612 8.57511 19.6285 9.02814 19.6285H39.1584C39.6115 19.6285 39.9787 19.2612 39.9787 18.8082C39.9787 18.3552 39.6115 17.9879 39.1584 17.9879H28.8203V16.8214C28.8203 14.796 30.468 13.1482 32.4935 13.1482H46.1514V17.988H42.4397C41.9867 17.988 41.6194 18.3553 41.6194 18.8083C41.6194 19.2613 41.9867 19.6286 42.4397 19.6286H46.9717C47.4248 19.6286 47.7921 19.2613 47.7921 18.8083V11.6912C47.7921 11.0654 48.3011 10.5564 48.9268 10.5564H53.2245C53.8502 10.5564 54.3593 11.0654 54.3593 11.6912V20.2563H54.3594C54.3594 22.5386 52.5025 24.3955 50.2202 24.3955Z" />
</svg>
