<svg width="183" height="142" fill="none" xmlns="http://www.w3.org/2000/svg"><path d="M41.653 108c-3.974 0-7.874-.86-11.67-2.579a72.876 72.876 0 0 1-12.5-7.238 5.526 5.526 0 0 1-.485-.393l-4.211 3.391a.886.886 0 0 1-1.022.065c-.145-.089-3.609-2.23-6.54-5.653-2.943-3.436-4.232-6.81-4.286-6.95a.89.89 0 0 1 .166-.904l2.588-2.929a.894.894 0 0 1 .213-.176c-1.323-2.576-3.1-7.37-3.74-15.263C-.4 62.38.484 56.65 2.794 52.335c.123-.231.306-.609.504-1.017.339-.699.688-1.422.93-1.817.238-.389.496-.837.783-1.334 2.228-3.856 6.375-11.034 15.849-16.503 8.03-4.636 12.025-5.118 15.55-5.543 2.096-.253 3.906-.472 6.343-1.563 6.2-2.776 7.438-5.047 7.45-5.07a.91.91 0 0 1 .58-.46.89.89 0 0 1 .722.124c.65.45 3.892 2.806 3.927 5.084.018 1.104-.365 1.86-.645 2.41-.286.566-.276.58-.155.741.13.173.366.268.741.41.896.336 2.248.845 2.31 3.46.051 2.083-1.047 3.246-1.941 4.09 1.767.881 6.298 3.288 9.892 6.44 2.321 2.038 4.142 4.419 5.261 6.056.854 1.25 1.368 2.074 1.662 2.639 1.145-.621 1.924-.888 2.528-1.095.71-.243 1.102-.377 1.716-.948 2.043-1.896 5.382-.406 5.786-.126a.955.955 0 0 1 .406.68c.056.51-.235.826-.764 1.399-.88.952-2.709 2.934-3.588 6.297-.787 3.014-.623 6.516-.478 9.605.092 1.95.178 3.793.003 5.25-.574 4.76-1.769 14.666-9.07 22.81-3.493 3.894-7.875 7.295-12.407 9.68a.9.9 0 0 1-.26.136 37.449 37.449 0 0 1-3.368 1.539C49.209 107.237 45.398 108 41.653 108Zm-4.882-2.281c6.642 1.246 13.11-.246 18.747-3.098.39-.796 1.521-3.46 1.437-7.488-.099-4.747-.92-6.247-.93-6.26a.9.9 0 0 1 .313-1.213.88.88 0 0 1 1.204.281c.11.176 1.08 1.87 1.191 7.154.054 2.622-.356 4.719-.801 6.194a43.151 43.151 0 0 0 9.84-8.124 29.977 29.977 0 0 0 3.49-4.772c-.326-.796-1.059-3.097-.66-6.96.462-4.498.633-6.951.634-6.975a.897.897 0 0 1 .948-.827c.49.033.86.458.826.949-.002.025-.174 2.503-.64 7.037-.204 1.981-.081 3.485.105 4.52 2.843-5.819 3.534-11.558 3.926-14.807.157-1.308.075-3.078-.013-4.951-.151-3.218-.322-6.864.534-10.14.915-3.502 2.718-5.648 3.76-6.79-.829-.216-1.997-.33-2.672.297-.891.827-1.567 1.058-2.348 1.326-.74.253-1.659.568-3.259 1.558-1.476.914-1.512 2.112-1.447 3.992.044 1.244.092 2.653-.633 3.9-1.269 2.178-2.813 1.677-3.835 1.348-.553-.179-1.034-.335-1.535-.218-.047.384.281 1.462.525 2.264.561 1.84 1.329 4.362.913 6.907-.232 1.422-.658 2.291-1.34 2.737-.797.52-1.644.303-2.325.126-.895-.23-1.069-.21-1.326.164-.984 1.425-1.258 2.726-1.639 4.527-.16.758-.343 1.619-.601 2.586-.404 1.512-1.18 2.569-2.306 3.142-1.712.871-4.177.632-7.755-.755a21.742 21.742 0 0 0-7.535-1.456h-.028c-.772 0-1.47.361-2.237.926-5.132 4.925-10.784 7.704-16.354 7.956-1.076.049-2.21.008-3.358-.097-1.251.314-2.005 1.283-2.313 2.208-.382 1.152-.256 2.768 1.248 3.85a71.078 71.078 0 0 0 12.194 7.062 26.951 26.951 0 0 0 3.87 1.411c.568-.429 3.195-2.515 5.617-6.113-.187-.425-1.28-2.994-1.413-5.27-.066-1.135-.104-2.594.086-3.102l1.664.627s.011-.02.024-.074c-.005.02-.111.524.001 2.445.07 1.195.47 2.54.806 3.482 2.703-4.69 3.1-6.361 3.104-6.378a.894.894 0 0 1 1.054-.678.885.885 0 0 1 .686 1.041c-.04.194-.47 2.042-3.525 7.286-2.071 3.557-4.48 5.979-5.919 7.243ZM2.808 88.499a25.248 25.248 0 0 0 3.767 5.935c2.1 2.453 4.553 4.242 5.602 4.954l3.327-2.679c-1.218-.936-3.174-2.459-4.422-3.533-3.299-2.836-5.675-6.102-5.775-6.24a.926.926 0 0 1-.1-.177 10.731 10.731 0 0 1-.382-.542l-2.017 2.282Zm5.915-.183c.937 1.064 2.151 2.335 3.517 3.51.836.719 2.025 1.666 3.079 2.488a5.311 5.311 0 0 1 .268-1.99 5.228 5.228 0 0 1 1.214-2.012c-3.064-.514-6.007-1.34-8.078-1.996Zm-2.057-2.58c1.217.445 7.27 2.581 12.838 3.143a5.462 5.462 0 0 1 1.076-.086c1.718.031 3.36-.09 4.877-.368 5.575-1.02 9.207-4.075 11.378-5.9.382-.323.725-.61 1.03-.85l.293-.226a43.902 43.902 0 0 0 4.453-5.056c5.64-7.444 5.29-11.004 5.122-12.715l-.024-.248c-.04-.443-.288-1.244-.55-2.092-.684-2.205-1.618-5.224-.735-7.452.815-2.057 2.891-2.242 4.899-2.42 1.44-.129 2.929-.262 4.09-1.032 2.487-1.652 1.233-5.901.1-8.151-.447-.89-.998-1.558-1.485-2.148-.835-1.01-1.697-2.056-1.302-3.633.252-1.007.949-1.658 1.622-2.287.855-.798 1.593-1.488 1.559-2.915-.034-1.413-.434-1.564-1.159-1.836-.486-.183-1.09-.41-1.537-1.007-.797-1.06-.342-1.959-.01-2.615.239-.47.464-.914.453-1.578-.012-.833-1.3-2.184-2.46-3.122-.904 1.06-3.016 2.938-7.715 5.042-2.682 1.2-4.71 1.445-6.856 1.704-3.356.405-7.16.864-14.875 5.318-9.062 5.231-12.903 11.88-15.197 15.853-.295.51-.562.972-.806 1.372-.196.32-.557 1.066-.846 1.664-.211.434-.406.836-.537 1.082-1.99 3.714-2.835 8.625-2.519 14.613 1.331-4.486 4.05-11.157 9.429-17.357 9.018-10.392 26.538-16.063 27.28-16.3a.89.89 0 0 1 .54 1.697c-.169.054-16.096 5.21-25.13 14.322 1.75.577 5.816 1.733 8.644 1.086 1.162-.266 2.167-.518 3.054-.741 2.194-.552 3.78-.95 5.645-1.023l.035-.001a.89.89 0 0 1 .034 1.78c-1.601.062-3.046.41-4.984.896l1.732 1.664a.889.889 0 1 1-1.23 1.285l-2.542-2.442c-.425.103-.874.21-1.35.318-3.868.882-9.316-1.01-10.365-1.397l-.021.024c-2.887 3.327-4.98 6.828-6.489 10.023 2.37-1.291 6.24-2.958 8.703-1.726 1.636.817 2.88 2.287 4.085 3.71 1.317 1.554 2.56 3.022 4.19 3.574a.89.89 0 0 1-.571 1.686c-2.096-.71-3.56-2.438-4.975-4.11-.514-.606-1.015-1.198-1.531-1.726-.373 1.156-.995 3.344-1.015 5.13-.028 2.543 1.24 6.144 1.252 6.18a.888.888 0 1 1-1.675.597c-.057-.158-1.388-3.934-1.356-6.797.028-2.513 1.048-5.546 1.334-6.346a5.512 5.512 0 0 0-.531-.305c-2.22-1.107-7.315 1.734-8.925 2.817a.877.877 0 0 1-.191.098c-2.008 5.066-2.496 8.822-2.504 8.888l-.004.025C3.637 81.376 6.09 84.98 6.666 85.735Zm35.206-5.618a23.57 23.57 0 0 1 7.868 1.571c2.99 1.159 5.113 1.437 6.308.828.666-.339 1.122-.998 1.395-2.015.246-.921.415-1.72.578-2.494.392-1.851.73-3.45 1.916-5.17 1.002-1.451 2.398-1.09 3.232-.875.361.092.77.198.91.106.057-.038.354-.288.558-1.534.349-2.135-.321-4.334-.86-6.1-.499-1.64-.86-2.824-.367-3.708.152-.272.456-.63 1.044-.785 1.023-.27 1.887.01 2.58.234.973.313 1.205.39 1.754-.552.466-.801.43-1.84.392-2.94-.059-1.692-.131-3.772 1.843-5.264-.646-1.171-2.996-5.165-6.561-8.293-3.752-3.292-8.732-5.808-9.94-6.396-.03.066-.054.134-.072.204-.162.648.1 1.036.949 2.066.52.629 1.166 1.413 1.703 2.48 1.734 3.446 2.59 8.247-.706 10.436-1.537 1.02-3.331 1.18-4.915 1.322-1.912.17-3.012.315-3.404 1.304-.652 1.644.175 4.316.78 6.268.304.981.566 1.829.623 2.459l.022.233c.191 1.937.588 5.966-5.474 13.966a49.072 49.072 0 0 1-2.156 2.65ZM183 41.347c0 3.974-.86 7.874-2.579 11.67a72.888 72.888 0 0 1-7.238 12.5 5.37 5.37 0 0 1-.393.485l3.391 4.211a.886.886 0 0 1 .065 1.022c-.089.145-2.23 3.609-5.653 6.54-3.435 2.943-6.809 4.232-6.951 4.286a.891.891 0 0 1-.904-.166l-2.928-2.588a.914.914 0 0 1-.176-.213c-2.576 1.323-7.37 3.1-15.263 3.74-6.99.566-12.722-.318-17.036-2.628-.231-.123-.609-.306-1.017-.504-.699-.339-1.422-.688-1.817-.93-.389-.238-.837-.496-1.334-.784-3.856-2.227-11.034-6.374-16.503-15.848-4.636-8.03-5.118-12.025-5.543-15.55-.253-2.096-.472-3.906-1.563-6.343-2.776-6.2-5.047-7.438-5.07-7.45a.91.91 0 0 1-.46-.58.89.89 0 0 1 .124-.723c.45-.649 2.806-3.891 5.084-3.926 1.104-.018 1.86.365 2.411.645.566.286.579.276.74.155.173-.13.268-.366.409-.741.337-.896.846-2.248 3.461-2.31 2.083-.051 3.246 1.047 4.089 1.941.882-1.767 3.289-6.298 6.442-9.892 2.037-2.321 4.418-4.142 6.055-5.261 1.25-.854 2.074-1.368 2.639-1.662a14.85 14.85 0 0 1-1.095-2.528c-.243-.71-.377-1.102-.948-1.716-1.896-2.043-.406-5.382-.126-5.786a.955.955 0 0 1 .68-.406c.511-.057.826.235 1.399.764.952.88 2.934 2.709 6.297 3.588 3.014.787 6.516.623 9.605.478 1.951-.092 3.793-.178 5.249-.003 4.76.574 14.667 1.769 22.81 9.07 3.895 3.492 7.296 7.875 9.681 12.407a.9.9 0 0 1 .136.26 37.449 37.449 0 0 1 1.539 3.368c1.528 3.852 2.291 7.663 2.291 11.408Zm-2.281 4.882c1.246-6.642-.246-13.11-3.098-18.747-.796-.39-3.46-1.521-7.488-1.437-4.747.099-6.247.92-6.261.93a.899.899 0 0 1-1.212-.313.88.88 0 0 1 .281-1.204c.176-.11 1.869-1.08 7.154-1.191 2.622-.054 4.719.356 6.194.801a43.148 43.148 0 0 0-8.124-9.84 29.95 29.95 0 0 0-4.772-3.49c-.796.326-3.097 1.059-6.959.66-4.499-.462-6.952-.633-6.976-.634a.888.888 0 1 1 .122-1.774c.025.002 2.503.174 7.037.64 1.981.204 3.485.081 4.521-.105-5.82-2.843-11.559-3.534-14.808-3.926-1.308-.157-3.078-.075-4.951.013-3.218.151-6.864.322-10.139-.534-3.503-.915-5.649-2.718-6.791-3.76-.216.829-.33 1.997.297 2.672.827.891 1.058 1.566 1.326 2.348.253.74.568 1.659 1.558 3.259.914 1.476 2.112 1.511 3.992 1.447 1.244-.044 2.653-.092 3.899.633 2.179 1.269 1.678 2.813 1.349 3.835-.179.553-.335 1.034-.218 1.535.385.047 1.462-.281 2.264-.525 1.841-.561 4.362-1.329 6.907-.913 1.422.232 2.291.658 2.737 1.34.52.797.303 1.644.127 2.325-.231.895-.21 1.069.163 1.326 1.425.984 2.726 1.258 4.527 1.639.758.16 1.619.343 2.586.601 1.512.404 2.569 1.18 3.142 2.306.871 1.712.632 4.177-.755 7.755a21.743 21.743 0 0 0-1.456 7.535v.028c0 .772.361 1.47.926 2.237 4.925 5.132 7.704 10.784 7.956 16.354.049 1.076.009 2.21-.097 3.358.314 1.251 1.283 2.005 2.208 2.313 1.152.382 2.768.256 3.851-1.248a71.102 71.102 0 0 0 7.061-12.194 26.951 26.951 0 0 0 1.411-3.87c-.429-.568-2.515-3.195-6.113-5.617-.425.187-2.994 1.28-5.27 1.413-1.135.066-2.594.104-3.102-.086l.627-1.664s-.021-.011-.074-.024c.021.005.524.111 2.445-.001 1.195-.07 2.539-.47 3.482-.806-4.69-2.703-6.361-3.1-6.378-3.104a.893.893 0 0 1-.678-1.054.884.884 0 0 1 1.041-.686c.194.04 2.042.47 7.286 3.525 3.557 2.071 5.979 4.48 7.243 5.919Zm-17.22 33.963a25.24 25.24 0 0 0 5.935-3.767c2.453-2.1 4.241-4.553 4.954-5.602l-2.679-3.327c-.936 1.219-2.459 3.174-3.533 4.422-2.836 3.299-6.102 5.675-6.24 5.775a.906.906 0 0 1-.177.1c-.136.103-.316.232-.542.382l2.282 2.017Zm-.183-5.915c1.064-.937 2.335-2.151 3.51-3.517.719-.836 1.666-2.026 2.488-3.079a5.31 5.31 0 0 1-1.99-.269 5.231 5.231 0 0 1-2.012-1.213c-.514 3.064-1.34 6.007-1.996 8.078Zm-2.581 2.058c.446-1.218 2.583-7.27 3.144-12.839a5.531 5.531 0 0 1-.086-1.076c.031-1.718-.091-3.36-.368-4.877-1.02-5.575-4.075-9.207-5.901-11.378a41.32 41.32 0 0 1-.85-1.03l-.225-.293a43.92 43.92 0 0 0-5.056-4.453c-7.444-5.64-11.004-5.29-12.715-5.122l-.248.024c-.443.04-1.244.288-2.092.55-2.205.684-5.224 1.618-7.452.735-2.057-.815-2.242-2.891-2.421-4.899-.128-1.44-.261-2.929-1.031-4.09-1.652-2.486-5.901-1.233-8.151-.1-.889.447-1.558.998-2.148 1.485-1.011.835-2.056 1.697-3.633 1.302-1.007-.252-1.658-.949-2.287-1.622-.798-.855-1.488-1.593-2.915-1.559-1.414.035-1.564.434-1.836 1.159-.183.486-.41 1.09-1.007 1.537-1.061.797-1.959.342-2.615.01-.47-.239-.914-.464-1.578-.453-.833.012-2.184 1.3-3.122 2.46 1.06.904 2.938 3.016 5.042 7.715 1.2 2.682 1.445 4.71 1.704 6.856.405 3.356.864 7.16 5.318 14.875 5.231 9.062 11.88 12.902 15.853 15.197.51.295.972.562 1.372.806.321.196 1.066.557 1.664.846.434.211.836.406 1.082.537 3.714 1.99 8.625 2.835 14.613 2.519-4.486-1.331-11.157-4.05-17.357-9.429-10.392-9.018-16.063-26.538-16.3-27.28a.89.89 0 0 1 1.697-.54c.054.169 5.211 16.096 14.322 25.13.577-1.75 1.734-5.816 1.086-8.644a140.218 140.218 0 0 0-.741-3.054c-.552-2.194-.951-3.78-1.023-5.645l-.001-.035a.889.889 0 0 1 1.779-.034c.063 1.601.41 3.046.897 4.984l1.664-1.732a.89.89 0 1 1 1.285 1.23l-2.442 2.542c.103.425.21.874.318 1.35.882 3.868-1.01 9.316-1.397 10.365l.024.021c3.327 2.887 6.828 4.98 10.023 6.489-1.291-2.37-2.957-6.24-1.726-8.703.817-1.636 2.287-2.88 3.709-4.085 1.555-1.317 3.023-2.56 3.575-4.19a.89.89 0 0 1 1.686.571c-.71 2.096-2.438 3.56-4.109 4.975-.608.514-1.199 1.015-1.727 1.531 1.156.373 3.344.995 5.13 1.015 2.543.028 6.144-1.24 6.18-1.252a.89.89 0 0 1 1.137.539.887.887 0 0 1-.54 1.136c-.159.057-3.934 1.388-6.797 1.356-2.513-.028-5.546-1.048-6.346-1.334-.112.174-.214.35-.305.531-1.107 2.22 1.734 7.315 2.817 8.925a.88.88 0 0 1 .098.191c5.066 2.008 8.823 2.496 8.888 2.504l.025.004c8.057-1.226 11.661-3.678 12.416-4.254Zm-5.617-35.207a23.593 23.593 0 0 1 1.571-7.868c1.159-2.99 1.437-5.113.828-6.308-.339-.666-.998-1.122-2.015-1.395a45.82 45.82 0 0 0-2.494-.578c-1.851-.392-3.451-.73-5.169-1.916-1.452-1.002-1.092-2.398-.876-3.232.092-.361.198-.77.106-.91-.038-.057-.288-.354-1.534-.558-2.135-.349-4.334.321-6.1.86-1.639.499-2.824.86-3.708.367-.272-.152-.63-.456-.785-1.044-.269-1.023.009-1.886.234-2.58.313-.973.39-1.205-.552-1.754-.801-.466-1.84-.43-2.94-.392-1.692.059-3.772.131-5.264-1.844-1.171.647-5.165 2.997-8.293 6.562-3.292 3.752-5.808 8.732-6.396 9.94.066.03.135.054.204.071.648.163 1.036-.098 2.065-.948.63-.52 1.414-1.166 2.481-1.703 3.446-1.734 8.247-2.59 10.436.706 1.02 1.537 1.18 3.332 1.322 4.915.17 1.912.315 3.012 1.304 3.404 1.644.652 4.316-.175 6.268-.78.981-.304 1.829-.566 2.459-.623l.233-.022c1.937-.191 5.966-.588 13.967 5.474a49.055 49.055 0 0 1 2.648 2.156Z" fill="#DFE2EB"/><ellipse cx="38.5" cy="135" rx="33.5" ry="7" fill="#F5F6FB"/><ellipse cx="149.5" cy="119" rx="33.5" ry="7" fill="#F5F6FB"/></svg>