<svg width="1270" height="232" fill="none" xmlns="http://www.w3.org/2000/svg"><path d="M89 104.347c0 3.974-.86 7.874-2.58 11.67a72.894 72.894 0 0 1-7.237 12.5 5.63 5.63 0 0 1-.393.485l3.39 4.211a.886.886 0 0 1 .066 1.021c-.09.146-2.23 3.61-5.653 6.542-3.436 2.942-6.81 4.231-6.95 4.285a.892.892 0 0 1-.904-.166l-2.929-2.588a.91.91 0 0 1-.176-.213c-2.576 1.323-7.37 3.099-15.263 3.74-6.99.567-12.721-.318-17.036-2.628-.231-.123-.609-.306-1.017-.504-.699-.339-1.422-.688-1.817-.93-.389-.238-.837-.496-1.334-.783-3.856-2.228-11.034-6.375-16.503-15.849-4.636-8.029-5.118-12.025-5.543-15.549-.253-2.097-.472-3.907-1.563-6.344-2.776-6.2-5.047-7.439-5.07-7.45a.91.91 0 0 1-.46-.58.89.89 0 0 1 .124-.722c.45-.65 2.806-3.892 5.084-3.927 1.104-.018 1.86.365 2.41.645.567.286.58.276.741.155.173-.13.268-.366.41-.741.336-.896.845-2.248 3.46-2.31 2.083-.051 3.246 1.047 4.09 1.941.881-1.767 3.288-6.298 6.44-9.892 2.038-2.321 4.419-4.142 6.056-5.261 1.25-.854 2.074-1.368 2.639-1.662-.621-1.145-.888-1.924-1.095-2.528-.243-.71-.378-1.102-.948-1.716-1.896-2.043-.405-5.382-.126-5.786a.954.954 0 0 1 .68-.406c.51-.056.826.235 1.399.764.952.88 2.934 2.709 6.297 3.588 3.014.787 6.516.623 9.605.478 1.95-.092 3.793-.178 5.25-.003 4.76.574 14.666 1.769 22.81 9.07 3.894 3.493 7.295 7.875 9.68 12.407a.89.89 0 0 1 .136.26 37.282 37.282 0 0 1 1.539 3.368C88.237 96.791 89 100.602 89 104.347Zm-2.28 4.882c1.245-6.643-.247-13.11-3.099-18.747-.796-.39-3.46-1.521-7.488-1.437-4.747.099-6.247.92-6.26.93a.9.9 0 0 1-1.213-.313.88.88 0 0 1 .281-1.204c.176-.11 1.87-1.08 7.154-1.191 2.622-.054 4.719.356 6.194.801a43.162 43.162 0 0 0-8.124-9.84 29.977 29.977 0 0 0-4.772-3.49c-.796.326-3.097 1.059-6.96.66-4.498-.462-6.951-.633-6.975-.634a.897.897 0 0 1-.827-.948.889.889 0 0 1 .949-.826c.025.002 2.503.174 7.037.64 1.981.204 3.485.081 4.52-.105-5.819-2.843-11.558-3.534-14.807-3.926-1.308-.157-3.078-.075-4.951.013-3.218.151-6.864.322-10.14-.534-3.502-.915-5.648-2.718-6.79-3.76-.216.829-.33 1.997.297 2.672.827.891 1.058 1.567 1.326 2.348.253.74.568 1.659 1.558 3.259.914 1.476 2.112 1.512 3.992 1.447 1.244-.044 2.653-.092 3.9.633 2.178 1.269 1.677 2.813 1.348 3.835-.179.553-.335 1.034-.218 1.535.384.047 1.462-.281 2.264-.525 1.84-.561 4.362-1.329 6.907-.913 1.422.232 2.291.658 2.737 1.34.52.797.303 1.644.127 2.325-.231.895-.21 1.069.163 1.326 1.425.984 2.726 1.258 4.527 1.639.758.16 1.619.343 2.586.601 1.512.404 2.569 1.18 3.142 2.306.871 1.712.632 4.177-.755 7.755a21.741 21.741 0 0 0-1.456 7.535v.028c0 .772.361 1.47.926 2.237 4.925 5.132 7.704 10.784 7.956 16.354.049 1.076.008 2.21-.097 3.358.314 1.251 1.283 2.005 2.208 2.313 1.152.382 2.768.256 3.85-1.248a71.034 71.034 0 0 0 7.062-12.194 26.99 26.99 0 0 0 1.411-3.87c-.429-.568-2.515-3.195-6.113-5.617-.425.187-2.994 1.281-5.27 1.413-1.135.066-2.594.104-3.102-.086l.627-1.664s-.02-.011-.074-.024c.02.005.524.111 2.445-.001 1.195-.069 2.54-.47 3.482-.806-4.69-2.703-6.361-3.1-6.378-3.104a.893.893 0 0 1-.678-1.054.885.885 0 0 1 1.041-.686c.194.04 2.042.47 7.286 3.525 3.557 2.071 5.979 4.479 7.243 5.919ZM69.5 143.192a25.245 25.245 0 0 0 5.934-3.767c2.453-2.1 4.242-4.553 4.954-5.602l-2.679-3.327c-.936 1.219-2.459 3.174-3.533 4.422-2.836 3.299-6.102 5.675-6.24 5.775a.908.908 0 0 1-.177.1c-.136.103-.316.232-.542.382l2.282 2.017Zm-.184-5.915c1.064-.937 2.335-2.151 3.51-3.517.719-.836 1.666-2.025 2.488-3.079a5.314 5.314 0 0 1-1.99-.268 5.24 5.24 0 0 1-2.012-1.214c-.514 3.064-1.34 6.007-1.996 8.078Zm-2.58 2.057c.445-1.217 2.581-7.269 3.143-12.838a5.456 5.456 0 0 1-.086-1.076c.031-1.718-.09-3.36-.368-4.877-1.02-5.575-4.075-9.207-5.9-11.378-.323-.382-.61-.725-.85-1.03l-.226-.293a43.906 43.906 0 0 0-5.056-4.453c-7.444-5.64-11.004-5.29-12.715-5.121l-.248.023c-.443.04-1.244.288-2.092.55-2.205.684-5.224 1.618-7.452.735-2.057-.815-2.242-2.891-2.42-4.899-.129-1.44-.262-2.929-1.032-4.09-1.652-2.487-5.901-1.233-8.151-.1-.89.447-1.558.999-2.148 1.485-1.01.835-2.056 1.697-3.633 1.302-1.007-.252-1.657-.949-2.287-1.622-.798-.855-1.488-1.593-2.915-1.559-1.414.034-1.564.434-1.836 1.159-.183.486-.41 1.09-1.007 1.537-1.06.797-1.959.342-2.615.01-.47-.239-.914-.464-1.578-.453-.833.012-2.184 1.3-3.122 2.46 1.06.904 2.938 3.016 5.042 7.715 1.2 2.682 1.445 4.71 1.704 6.856.405 3.357.864 7.16 5.318 14.875 5.232 9.062 11.88 12.903 15.853 15.197.51.295.971.562 1.372.806.32.196 1.065.557 1.664.846.434.211.836.406 1.082.537 3.714 1.99 8.625 2.835 14.613 2.519-4.486-1.331-11.157-4.049-17.357-9.429-10.392-9.018-16.063-26.538-16.3-27.28a.89.89 0 0 1 1.697-.539c.054.168 5.21 16.095 14.322 25.13.577-1.751 1.733-5.817 1.086-8.645a140.343 140.343 0 0 0-.741-3.054c-.552-2.194-.95-3.779-1.023-5.645l-.001-.035a.89.89 0 0 1 1.78-.034c.062 1.601.41 3.046.896 4.984l1.664-1.732a.889.889 0 1 1 1.285 1.231l-2.442 2.541c.103.425.21.874.318 1.35.882 3.868-1.01 9.315-1.397 10.365l.024.021c3.327 2.887 6.828 4.98 10.023 6.489-1.291-2.37-2.958-6.24-1.726-8.703.817-1.636 2.287-2.881 3.71-4.085 1.554-1.317 3.022-2.56 3.574-4.189a.89.89 0 0 1 1.686.57c-.71 2.096-2.438 3.559-4.11 4.975-.607.514-1.199 1.015-1.726 1.531 1.156.373 3.344.995 5.13 1.015 2.543.028 6.144-1.24 6.18-1.252a.89.89 0 0 1 .597 1.675c-.158.057-3.934 1.388-6.797 1.356-2.513-.028-5.546-1.048-6.346-1.334a5.59 5.59 0 0 0-.305.531c-1.107 2.219 1.734 7.315 2.817 8.925a.883.883 0 0 1 .098.191c5.066 2.008 8.822 2.496 8.888 2.504a.218.218 0 0 0 .025.004c8.057-1.226 11.661-3.678 12.416-4.255Zm-5.618-35.206a23.57 23.57 0 0 1 1.571-7.868c1.159-2.99 1.437-5.113.828-6.308-.339-.666-.998-1.122-2.015-1.394a45.887 45.887 0 0 0-2.494-.58c-1.851-.39-3.45-.729-5.17-1.915-1.451-1.002-1.09-2.398-.875-3.232.092-.361.198-.77.106-.91-.038-.057-.288-.354-1.534-.558-2.135-.349-4.334.321-6.1.86-1.64.499-2.824.86-3.708.367-.272-.152-.63-.456-.785-1.044-.27-1.023.01-1.887.234-2.58.313-.973.39-1.205-.552-1.754-.801-.466-1.84-.43-2.94-.392-1.692.059-3.772.131-5.264-1.843-1.171.646-5.165 2.996-8.293 6.561-3.292 3.752-5.808 8.732-6.396 9.94.066.03.134.054.204.072.648.162 1.036-.1 2.066-.949.629-.52 1.413-1.166 2.48-1.703 3.446-1.734 8.247-2.59 10.436.706 1.02 1.537 1.18 3.332 1.322 4.915.17 1.912.315 3.012 1.304 3.404 1.644.652 4.316-.175 6.268-.78.981-.304 1.829-.566 2.459-.623l.233-.022c1.937-.191 5.966-.588 13.966 5.474a49.03 49.03 0 0 1 2.65 2.156ZM142 190.653c0-3.974.86-7.874 2.579-11.67a72.9 72.9 0 0 1 7.238-12.5 5.47 5.47 0 0 1 .393-.485l-3.391-4.211a.885.885 0 0 1-.065-1.021c.089-.146 2.23-3.61 5.653-6.542 3.435-2.942 6.809-4.231 6.951-4.285a.893.893 0 0 1 .904.166l2.928 2.588c.071.064.13.136.176.213 2.576-1.323 7.37-3.099 15.263-3.74 6.99-.567 12.722.318 17.036 2.628.231.123.609.306 1.017.504.699.339 1.422.688 1.817.93.389.238.837.496 1.334.783 3.856 2.228 11.034 6.375 16.503 15.849 4.636 8.029 5.118 12.025 5.543 15.549.253 2.097.472 3.907 1.563 6.344 2.776 6.2 5.047 7.439 5.07 7.451a.91.91 0 0 1 .46.579.89.89 0 0 1-.124.723c-.449.649-2.806 3.891-5.084 3.926-1.104.018-1.86-.365-2.411-.645-.566-.286-.579-.276-.74-.155-.173.13-.268.366-.409.741-.337.896-.846 2.248-3.461 2.311-2.083.05-3.246-1.048-4.089-1.942-.882 1.767-3.289 6.298-6.442 9.892-2.037 2.321-4.418 4.142-6.055 5.261-1.25.854-2.074 1.368-2.639 1.662a14.849 14.849 0 0 1 1.095 2.529c.243.709.377 1.101.948 1.715 1.896 2.043.406 5.382.126 5.786a.954.954 0 0 1-.68.406c-.511.057-.826-.235-1.399-.764-.952-.879-2.934-2.709-6.297-3.588-3.014-.787-6.516-.623-9.605-.478-1.951.092-3.793.178-5.249.003-4.76-.574-14.667-1.769-22.81-9.071-3.895-3.492-7.296-7.874-9.681-12.406a.91.91 0 0 1-.136-.26 37.569 37.569 0 0 1-1.539-3.368c-1.528-3.852-2.291-7.663-2.291-11.408Zm2.281-4.882c-1.246 6.643.246 13.11 3.098 18.747.796.39 3.46 1.521 7.488 1.437 4.747-.099 6.247-.921 6.261-.929a.9.9 0 0 1 1.212.311.881.881 0 0 1-.281 1.205c-.176.11-1.869 1.081-7.154 1.191-2.622.054-4.719-.356-6.194-.801a43.147 43.147 0 0 0 8.124 9.84 29.946 29.946 0 0 0 4.772 3.489c.796-.325 3.097-1.058 6.959-.66 4.499.463 6.952.634 6.976.635a.897.897 0 0 1 .827.948.889.889 0 0 1-.949.826c-.025-.002-2.503-.174-7.037-.64-1.981-.204-3.485-.081-4.521.105 5.82 2.843 11.559 3.534 14.808 3.926 1.308.157 3.078.075 4.951-.013 3.218-.151 6.864-.322 10.139.534 3.503.915 5.649 2.718 6.791 3.759.216-.828.33-1.996-.297-2.671-.827-.891-1.058-1.566-1.326-2.348-.253-.74-.568-1.659-1.558-3.259-.914-1.476-2.112-1.512-3.992-1.447-1.244.044-2.653.092-3.899-.633-2.179-1.269-1.678-2.813-1.349-3.835.179-.553.335-1.034.218-1.535-.385-.047-1.462.281-2.264.525-1.841.561-4.362 1.329-6.907.913-1.422-.232-2.291-.658-2.737-1.341-.52-.796-.303-1.643-.127-2.324.231-.895.21-1.069-.163-1.326-1.425-.984-2.726-1.258-4.527-1.639a48.613 48.613 0 0 1-2.586-.601c-1.512-.404-2.569-1.18-3.142-2.306-.871-1.712-.632-4.177.755-7.756a21.74 21.74 0 0 0 1.456-7.534v-.028c0-.772-.361-1.47-.926-2.237-4.925-5.132-7.704-10.784-7.956-16.354a24.632 24.632 0 0 1 .097-3.358c-.314-1.251-1.283-2.005-2.208-2.313-1.152-.382-2.768-.256-3.851 1.248a71.072 71.072 0 0 0-7.061 12.194 26.964 26.964 0 0 0-1.411 3.87c.429.568 2.515 3.195 6.113 5.617.425-.187 2.994-1.281 5.27-1.413 1.135-.066 2.594-.104 3.102.086l-.627 1.664s.021.011.074.024c-.021-.005-.524-.111-2.445.001-1.195.069-2.539.47-3.482.806 4.69 2.703 6.361 3.1 6.378 3.104.476.107.78.578.678 1.054a.884.884 0 0 1-1.041.686c-.194-.039-2.042-.47-7.286-3.525-3.557-2.071-5.979-4.479-7.243-5.919Zm17.22-33.963a25.243 25.243 0 0 0-5.935 3.767c-2.453 2.1-4.241 4.553-4.954 5.602l2.679 3.327c.936-1.219 2.459-3.174 3.533-4.422 2.836-3.299 6.102-5.675 6.24-5.775a.89.89 0 0 1 .177-.1c.136-.103.316-.232.542-.382l-2.282-2.017Zm.183 5.915c-1.064.937-2.335 2.151-3.51 3.517-.719.836-1.666 2.025-2.488 3.079a5.312 5.312 0 0 1 1.99.268 5.243 5.243 0 0 1 2.012 1.214c.514-3.064 1.34-6.007 1.996-8.078Zm2.581-2.057c-.446 1.217-2.583 7.269-3.144 12.838.063.347.092.708.086 1.076-.031 1.718.091 3.36.368 4.877 1.02 5.575 4.075 9.207 5.901 11.378.322.382.61.725.85 1.03l.225.293a43.924 43.924 0 0 0 5.056 4.453c7.444 5.641 11.004 5.29 12.715 5.121l.248-.024c.443-.039 1.244-.287 2.092-.55 2.205-.683 5.224-1.617 7.452-.734 2.057.815 2.242 2.891 2.421 4.899.128 1.44.261 2.929 1.031 4.089 1.652 2.488 5.901 1.234 8.151.102.889-.448 1.558-1 2.148-1.486 1.011-.835 2.056-1.697 3.633-1.302 1.007.252 1.658.949 2.287 1.622.798.855 1.488 1.593 2.915 1.559 1.414-.035 1.564-.434 1.836-1.159.183-.486.41-1.09 1.007-1.537 1.061-.797 1.959-.342 2.615-.01.47.239.914.464 1.578.453.833-.012 2.184-1.3 3.122-2.461-1.059-.903-2.938-3.015-5.042-7.714-1.2-2.682-1.445-4.71-1.704-6.856-.405-3.357-.864-7.16-5.318-14.875-5.231-9.062-11.88-12.903-15.853-15.197-.51-.295-.972-.562-1.372-.806-.321-.196-1.066-.557-1.664-.846-.434-.211-.836-.406-1.082-.537-3.714-1.99-8.625-2.835-14.613-2.519 4.486 1.331 11.157 4.049 17.357 9.429 10.392 9.018 16.063 26.538 16.3 27.28a.89.89 0 0 1-1.697.539c-.054-.168-5.211-16.095-14.322-25.13-.577 1.751-1.734 5.817-1.086 8.645.266 1.162.518 2.167.741 3.054.552 2.194.951 3.779 1.023 5.645a.89.89 0 0 1-1.778.069c-.063-1.601-.41-3.046-.897-4.984l-1.664 1.732a.89.89 0 1 1-1.285-1.231l2.442-2.541a93.86 93.86 0 0 1-.318-1.35c-.882-3.868 1.01-9.315 1.397-10.365l-.024-.021c-3.327-2.887-6.828-4.98-10.023-6.489 1.291 2.37 2.957 6.24 1.726 8.703-.817 1.636-2.287 2.881-3.709 4.085-1.555 1.317-3.023 2.56-3.575 4.189a.89.89 0 0 1-1.686-.57c.71-2.096 2.438-3.559 4.109-4.975.608-.514 1.199-1.015 1.727-1.531-1.156-.373-3.344-.995-5.13-1.015-2.543-.028-6.144 1.24-6.18 1.252a.89.89 0 1 1-.597-1.675c.159-.057 3.934-1.388 6.797-1.356 2.513.028 5.546 1.048 6.346 1.334.112-.174.214-.35.305-.531 1.107-2.219-1.734-7.315-2.817-8.925a.886.886 0 0 1-.098-.191c-5.066-2.008-8.823-2.496-8.888-2.504l-.025-.004c-8.057 1.226-11.661 3.678-12.416 4.255Zm5.617 35.206a23.595 23.595 0 0 1-1.571 7.868c-1.159 2.99-1.437 5.113-.828 6.308.339.666.998 1.122 2.015 1.395.921.246 1.721.415 2.494.578 1.851.392 3.451.73 5.169 1.916 1.452 1.002 1.092 2.398.876 3.232-.092.361-.198.77-.106.91.038.057.288.354 1.534.558 2.135.349 4.334-.321 6.1-.86 1.639-.499 2.824-.86 3.708-.367.272.152.63.456.785 1.044.269 1.023-.009 1.886-.234 2.581-.313.972-.39 1.204.552 1.753.801.466 1.84.43 2.94.392 1.692-.059 3.772-.131 5.264 1.843 1.171-.646 5.165-2.996 8.293-6.561 3.292-3.752 5.808-8.732 6.396-9.941a1.37 1.37 0 0 0-.204-.071c-.648-.162-1.036.099-2.065.949-.63.519-1.414 1.166-2.481 1.703-3.446 1.734-8.247 2.59-10.436-.706-1.02-1.537-1.18-3.332-1.322-4.915-.17-1.912-.315-3.012-1.304-3.404-1.644-.652-4.316.176-6.268.78-.981.304-1.829.566-2.459.623l-.233.022c-1.937.191-5.966.588-13.967-5.474a49.014 49.014 0 0 1-2.648-2.156ZM171.653 89c-3.974 0-7.874-.86-11.67-2.58a72.894 72.894 0 0 1-12.5-7.237 5.63 5.63 0 0 1-.485-.393l-4.211 3.39a.886.886 0 0 1-1.021.066c-.146-.09-3.61-2.23-6.542-5.653-2.942-3.436-4.231-6.81-4.285-6.95a.892.892 0 0 1 .166-.904l2.588-2.929a.91.91 0 0 1 .213-.176c-1.323-2.576-3.099-7.37-3.74-15.263-.567-6.99.318-12.721 2.628-17.036.123-.231.306-.609.504-1.017.339-.699.688-1.422.93-1.817.238-.389.496-.837.783-1.334 2.228-3.856 6.375-11.034 15.849-16.503 8.029-4.636 12.025-5.118 15.549-5.543 2.097-.253 3.907-.472 6.344-1.563 6.2-2.776 7.439-5.047 7.451-5.07a.908.908 0 0 1 .579-.46.891.891 0 0 1 .723.124c.649.45 3.891 2.806 3.926 5.084.018 1.104-.365 1.86-.645 2.41-.286.567-.276.58-.155.741.13.173.366.268.741.41.896.336 2.248.845 2.311 3.46.05 2.083-1.048 3.246-1.942 4.09 1.767.881 6.298 3.288 9.892 6.44 2.321 2.038 4.142 4.419 5.261 6.056.854 1.25 1.368 2.075 1.662 2.639 1.145-.621 1.924-.888 2.529-1.095.709-.243 1.101-.378 1.715-.948 2.043-1.896 5.382-.405 5.786-.126a.953.953 0 0 1 .406.68c.057.51-.235.826-.764 1.399-.879.952-2.709 2.934-3.588 6.297-.787 3.014-.623 6.516-.478 9.605.092 1.95.178 3.793.003 5.25-.574 4.76-1.769 14.666-9.071 22.81-3.492 3.894-7.874 7.295-12.406 9.68a.9.9 0 0 1-.26.136 37.401 37.401 0 0 1-3.368 1.539C179.209 88.237 175.398 89 171.653 89Zm-4.882-2.28c6.643 1.245 13.11-.247 18.747-3.099.39-.796 1.521-3.46 1.437-7.488-.099-4.747-.921-6.247-.929-6.26a.9.9 0 0 1 .311-1.213.881.881 0 0 1 1.205.281c.11.176 1.081 1.87 1.191 7.154.054 2.622-.356 4.719-.801 6.194a43.16 43.16 0 0 0 9.84-8.124 29.973 29.973 0 0 0 3.489-4.772c-.325-.796-1.058-3.097-.66-6.96.463-4.498.634-6.951.635-6.975a.897.897 0 0 1 .948-.827.89.89 0 0 1 .826.949c-.002.025-.174 2.503-.64 7.037-.204 1.981-.081 3.485.105 4.52 2.843-5.819 3.534-11.558 3.926-14.807.157-1.308.075-3.078-.013-4.951-.151-3.218-.322-6.864.534-10.14.915-3.502 2.718-5.648 3.759-6.79-.828-.216-1.996-.33-2.671.297-.891.827-1.566 1.058-2.348 1.326-.74.253-1.659.568-3.259 1.558-1.476.914-1.512 2.112-1.447 3.992.044 1.244.092 2.653-.633 3.9-1.269 2.178-2.813 1.677-3.835 1.348-.553-.179-1.034-.335-1.535-.218-.047.384.281 1.462.525 2.264.561 1.84 1.329 4.362.913 6.907-.232 1.422-.658 2.291-1.341 2.737-.796.52-1.643.303-2.324.127-.895-.231-1.069-.21-1.326.163-.984 1.425-1.258 2.726-1.639 4.527-.16.758-.343 1.619-.601 2.586-.404 1.512-1.18 2.569-2.306 3.142-1.712.871-4.177.632-7.756-.755a21.74 21.74 0 0 0-7.534-1.456h-.028c-.772 0-1.47.361-2.237.926-5.132 4.925-10.784 7.704-16.354 7.956-1.076.049-2.21.008-3.358-.097-1.251.314-2.005 1.283-2.313 2.208-.382 1.152-.256 2.768 1.248 3.85a71.034 71.034 0 0 0 12.194 7.062 26.99 26.99 0 0 0 3.87 1.411c.568-.429 3.195-2.515 5.617-6.113-.187-.425-1.281-2.994-1.413-5.27-.066-1.135-.104-2.594.086-3.102l1.664.627s.011-.02.024-.074c-.005.02-.111.524.001 2.445.069 1.195.47 2.54.806 3.482 2.703-4.69 3.1-6.361 3.104-6.378a.893.893 0 0 1 1.054-.678.886.886 0 0 1 .686 1.041c-.039.194-.47 2.042-3.525 7.286-2.071 3.557-4.479 5.979-5.919 7.243ZM132.808 69.5a25.245 25.245 0 0 0 3.767 5.934c2.1 2.453 4.553 4.242 5.602 4.954l3.327-2.679c-1.219-.936-3.174-2.459-4.422-3.533-3.299-2.836-5.675-6.102-5.775-6.24a.908.908 0 0 1-.1-.177 10.648 10.648 0 0 1-.382-.542l-2.017 2.282Zm5.915-.184c.937 1.064 2.151 2.335 3.517 3.51.836.719 2.025 1.666 3.079 2.488a5.314 5.314 0 0 1 .268-1.99 5.24 5.24 0 0 1 1.214-2.012c-3.064-.514-6.007-1.34-8.078-1.996Zm-2.057-2.58c1.217.445 7.269 2.581 12.838 3.143a5.456 5.456 0 0 1 1.076-.086c1.718.031 3.36-.09 4.877-.368 5.575-1.02 9.207-4.075 11.378-5.9.382-.323.725-.61 1.03-.85l.293-.226a43.906 43.906 0 0 0 4.453-5.056c5.641-7.444 5.29-11.004 5.121-12.715l-.024-.248c-.039-.443-.287-1.244-.55-2.092-.683-2.205-1.617-5.224-.734-7.452.815-2.057 2.891-2.242 4.899-2.42 1.44-.129 2.929-.262 4.089-1.032 2.488-1.652 1.234-5.901.102-8.151-.448-.89-1-1.558-1.486-2.148-.835-1.01-1.697-2.056-1.302-3.633.252-1.007.949-1.657 1.622-2.287.855-.798 1.593-1.488 1.559-2.915-.035-1.414-.434-1.564-1.159-1.836-.486-.183-1.09-.41-1.537-1.007-.797-1.06-.342-1.959-.01-2.615.239-.47.464-.914.453-1.578-.012-.833-1.3-2.184-2.461-3.122-.903 1.06-3.015 2.938-7.714 5.042-2.682 1.2-4.71 1.445-6.856 1.704-3.357.405-7.16.864-14.875 5.318-9.062 5.232-12.903 11.88-15.197 15.853-.295.51-.562.971-.806 1.372-.196.32-.557 1.065-.846 1.664-.211.434-.406.836-.537 1.082-1.99 3.714-2.835 8.625-2.519 14.613 1.331-4.486 4.049-11.157 9.429-17.357 9.018-10.392 26.538-16.063 27.28-16.3a.89.89 0 0 1 .539 1.697c-.168.054-16.095 5.21-25.13 14.322 1.751.577 5.817 1.733 8.645 1.086 1.162-.266 2.167-.518 3.054-.741 2.194-.552 3.779-.95 5.645-1.023l.035-.001a.89.89 0 0 1 .034 1.78c-1.601.062-3.046.41-4.984.896l1.732 1.664a.889.889 0 1 1-1.231 1.285l-2.541-2.442c-.425.103-.874.21-1.35.318-3.868.882-9.315-1.01-10.365-1.397l-.021.024c-2.887 3.327-4.98 6.828-6.489 10.023 2.37-1.291 6.24-2.958 8.703-1.726 1.636.817 2.881 2.287 4.085 3.71 1.317 1.554 2.56 3.022 4.189 3.574a.89.89 0 0 1-.57 1.686c-2.096-.71-3.559-2.438-4.975-4.11-.514-.607-1.015-1.199-1.531-1.726-.373 1.156-.995 3.344-1.015 5.13-.028 2.543 1.24 6.144 1.252 6.18a.89.89 0 0 1-1.675.597c-.057-.158-1.388-3.934-1.356-6.797.028-2.513 1.048-5.546 1.334-6.346a5.59 5.59 0 0 0-.531-.305c-2.219-1.107-7.315 1.734-8.925 2.817a.883.883 0 0 1-.191.098c-2.008 5.066-2.496 8.822-2.504 8.888a.218.218 0 0 0-.004.025c1.226 8.057 3.678 11.661 4.255 12.416Zm35.206-5.618c1.922.047 4.762.369 7.868 1.571 2.99 1.159 5.113 1.437 6.308.828.666-.339 1.122-.998 1.395-2.015a46.02 46.02 0 0 0 .578-2.494c.392-1.851.73-3.45 1.916-5.17 1.002-1.451 2.398-1.09 3.232-.875.361.092.77.198.91.106.057-.038.354-.288.558-1.534.349-2.135-.321-4.334-.86-6.1-.499-1.64-.86-2.824-.367-3.708.152-.272.456-.63 1.044-.785 1.023-.27 1.886.01 2.581.234.972.313 1.204.39 1.753-.552.466-.801.43-1.84.392-2.94-.059-1.692-.131-3.772 1.843-5.264-.646-1.171-2.996-5.165-6.561-8.293-3.752-3.292-8.732-5.808-9.941-6.396a1.38 1.38 0 0 0-.071.204c-.162.648.099 1.036.949 2.066.519.629 1.166 1.413 1.703 2.48 1.734 3.446 2.59 8.247-.706 10.436-1.537 1.02-3.332 1.18-4.915 1.322-1.912.17-3.012.315-3.404 1.304-.652 1.644.176 4.316.78 6.268.304.981.566 1.829.623 2.459l.022.233c.191 1.937.588 5.966-5.474 13.966a49.03 49.03 0 0 1-2.156 2.65ZM420.347 0c3.974 0 7.874.86 11.67 2.58a72.89 72.89 0 0 1 12.5 7.237c.171.123.332.254.485.393l4.211-3.39a.886.886 0 0 1 1.021-.066c.146.09 3.61 2.23 6.542 5.654 2.942 3.434 4.231 6.808 4.285 6.95a.892.892 0 0 1-.166.904l-2.588 2.928a.91.91 0 0 1-.213.176c1.323 2.576 3.099 7.37 3.74 15.263.567 6.99-.318 12.721-2.628 17.036-.123.231-.306.609-.504 1.017-.339.699-.688 1.422-.93 1.817-.238.389-.496.837-.783 1.334-2.228 3.856-6.375 11.034-15.849 16.503-8.029 4.636-12.025 5.118-15.549 5.543-2.097.253-3.907.472-6.344 1.563-6.2 2.776-7.439 5.047-7.451 5.07a.908.908 0 0 1-.579.46.891.891 0 0 1-.723-.124c-.649-.45-3.891-2.806-3.926-5.084-.018-1.104.365-1.86.645-2.41.286-.567.276-.58.155-.742-.13-.172-.366-.267-.741-.408-.896-.337-2.248-.846-2.311-3.46-.05-2.084 1.048-3.247 1.942-4.09-1.767-.882-6.298-3.29-9.892-6.442-2.321-2.037-4.142-4.418-5.261-6.056-.854-1.25-1.368-2.073-1.662-2.638-1.145.621-1.924.888-2.528 1.095-.71.243-1.102.377-1.716.948-2.043 1.896-5.382.406-5.786.126a.953.953 0 0 1-.406-.68c-.057-.51.235-.826.764-1.399.879-.952 2.709-2.934 3.588-6.297.787-3.014.623-6.516.478-9.605-.092-1.95-.178-3.793-.003-5.25.574-4.76 1.769-14.666 9.071-22.81 3.492-3.894 7.874-7.295 12.406-9.68a.914.914 0 0 1 .26-.136 37.393 37.393 0 0 1 3.368-1.539C412.791.763 416.602 0 420.347 0Zm4.882 2.28c-6.643-1.245-13.11.247-18.747 3.099-.39.796-1.521 3.46-1.437 7.488.099 4.747.921 6.247.929 6.26a.9.9 0 0 1-.311 1.213.881.881 0 0 1-1.205-.281c-.11-.176-1.081-1.87-1.191-7.154-.054-2.622.356-4.719.801-6.194a43.162 43.162 0 0 0-9.84 8.124 29.973 29.973 0 0 0-3.489 4.772c.325.796 1.058 3.097.66 6.96-.463 4.498-.634 6.951-.635 6.975a.897.897 0 0 1-.948.827.89.89 0 0 1-.826-.949c.002-.025.174-2.503.64-7.037.204-1.981.081-3.485-.105-4.52-2.843 5.819-3.534 11.558-3.926 14.807-.157 1.308-.075 3.078.013 4.951.151 3.218.322 6.864-.534 10.14-.915 3.502-2.718 5.648-3.759 6.79.828.216 1.996.33 2.671-.297.891-.827 1.566-1.058 2.348-1.326.74-.253 1.659-.568 3.259-1.558 1.476-.914 1.512-2.112 1.447-3.992-.044-1.244-.092-2.653.633-3.9 1.269-2.178 2.813-1.677 3.835-1.348.553.179 1.034.335 1.535.218.047-.384-.281-1.462-.525-2.264-.561-1.84-1.329-4.362-.913-6.907.232-1.422.658-2.291 1.341-2.737.796-.52 1.643-.303 2.324-.127.895.231 1.069.21 1.326-.163.984-1.425 1.258-2.726 1.639-4.527.16-.758.343-1.619.601-2.586.404-1.512 1.18-2.569 2.306-3.142 1.712-.871 4.177-.631 7.756.755a21.74 21.74 0 0 0 7.534 1.456h.028c.772 0 1.47-.361 2.237-.926 5.132-4.925 10.784-7.704 16.354-7.956a24.714 24.714 0 0 1 3.358.097c1.251-.314 2.005-1.283 2.313-2.208.382-1.152.256-2.768-1.248-3.85A71.038 71.038 0 0 0 431.284 4.2a26.996 26.996 0 0 0-3.87-1.411c-.568.429-3.195 2.515-5.617 6.113.187.425 1.281 2.994 1.413 5.27.066 1.135.104 2.594-.086 3.102l-1.664-.627s-.011.02-.024.074c.005-.02.111-.524-.001-2.445-.069-1.195-.47-2.54-.806-3.482-2.703 4.69-3.1 6.361-3.104 6.378a.893.893 0 0 1-1.054.679.886.886 0 0 1-.686-1.042c.039-.194.47-2.042 3.525-7.286 2.071-3.557 4.479-5.979 5.919-7.243Zm33.963 17.22a25.243 25.243 0 0 0-3.767-5.934c-2.1-2.453-4.553-4.241-5.602-4.954l-3.327 2.679c1.219.936 3.174 2.459 4.422 3.533 3.299 2.836 5.675 6.101 5.775 6.24a.908.908 0 0 1 .1.177c.103.136.232.316.382.542l2.017-2.282Zm-5.915.184c-.937-1.064-2.151-2.335-3.517-3.51-.836-.719-2.025-1.666-3.079-2.488a5.314 5.314 0 0 1-.268 1.99 5.24 5.24 0 0 1-1.214 2.012c3.064.514 6.007 1.34 8.078 1.996Zm2.057 2.58c-1.217-.445-7.269-2.581-12.838-3.143a5.456 5.456 0 0 1-1.076.086c-1.718-.031-3.36.09-4.877.368-5.575 1.02-9.207 4.075-11.378 5.9-.382.323-.725.61-1.03.85l-.293.226a43.906 43.906 0 0 0-4.453 5.056c-5.641 7.444-5.29 11.004-5.121 12.715l.024.248c.039.443.287 1.244.55 2.092.683 2.205 1.617 5.224.734 7.452-.815 2.057-2.891 2.242-4.899 2.42-1.44.129-2.929.262-4.089 1.032-2.487 1.652-1.234 5.901-.102 8.151.448.89 1 1.558 1.486 2.148.835 1.01 1.697 2.056 1.302 3.633-.252 1.007-.949 1.657-1.622 2.287-.855.798-1.593 1.488-1.559 2.915.035 1.413.434 1.563 1.159 1.836.486.183 1.09.41 1.537 1.007.797 1.06.342 1.959.01 2.615-.239.47-.464.914-.453 1.578.012.833 1.3 2.184 2.461 3.122.903-1.06 3.015-2.938 7.714-5.042 2.682-1.2 4.71-1.445 6.856-1.704 3.357-.405 7.16-.864 14.875-5.318 9.062-5.231 12.903-11.88 15.197-15.853.295-.51.562-.972.806-1.372.196-.32.557-1.066.846-1.664.211-.434.406-.836.537-1.082 1.99-3.714 2.835-8.625 2.519-14.613-1.331 4.486-4.049 11.157-9.429 17.357-9.018 10.392-26.538 16.063-27.28 16.3a.89.89 0 0 1-.539-1.697c.168-.054 16.095-5.21 25.13-14.322-1.751-.577-5.817-1.733-8.645-1.086-1.162.266-2.167.518-3.054.741-2.194.552-3.779.95-5.645 1.023l-.035.001a.89.89 0 0 1-.034-1.78c1.601-.062 3.046-.41 4.984-.896l-1.732-1.664a.889.889 0 1 1 1.231-1.285l2.541 2.442c.425-.103.874-.21 1.35-.318 3.868-.882 9.315 1.01 10.365 1.397l.021-.024c2.887-3.327 4.98-6.828 6.489-10.023-2.37 1.291-6.24 2.958-8.703 1.726-1.636-.817-2.881-2.287-4.085-3.71-1.317-1.554-2.56-3.022-4.189-3.574a.89.89 0 0 1 .57-1.686c2.096.71 3.559 2.438 4.975 4.11.514.607 1.015 1.199 1.531 1.726.373-1.156.995-3.344 1.015-5.13.029-2.543-1.24-6.144-1.252-6.18a.89.89 0 0 1 1.675-.597c.057.158 1.388 3.934 1.356 6.797-.028 2.513-1.048 5.546-1.334 6.346.174.112.35.214.531.305 2.219 1.107 7.315-1.734 8.925-2.817a.883.883 0 0 1 .191-.098c2.008-5.066 2.496-8.822 2.504-8.888a.218.218 0 0 0 .004-.025c-1.226-8.057-3.678-11.661-4.255-12.416Zm-35.206 5.618a23.575 23.575 0 0 1-7.868-1.571c-2.99-1.159-5.113-1.437-6.308-.828-.666.339-1.122.998-1.395 2.015a46.02 46.02 0 0 0-.578 2.494c-.392 1.851-.73 3.45-1.916 5.17-1.002 1.451-2.398 1.09-3.232.875-.361-.092-.77-.198-.91-.106-.057.038-.354.288-.558 1.534-.349 2.135.321 4.334.86 6.1.499 1.64.86 2.824.367 3.708-.152.272-.456.63-1.044.785-1.023.27-1.886-.01-2.581-.234-.972-.313-1.204-.39-1.753.552-.466.801-.43 1.84-.392 2.94.059 1.692.131 3.772-1.843 5.264.646 1.171 2.996 5.165 6.561 8.293 3.752 3.292 8.732 5.808 9.941 6.396a1.38 1.38 0 0 0 .071-.204c.162-.648-.099-1.036-.949-2.066-.519-.629-1.166-1.413-1.703-2.48-1.734-3.446-2.59-8.247.706-10.436 1.537-1.02 3.332-1.18 4.915-1.322 1.912-.17 3.012-.315 3.404-1.304.652-1.644-.176-4.316-.78-6.268-.304-.981-.566-1.829-.623-2.459l-.022-.233c-.191-1.937-.588-5.966 5.474-13.966a49.03 49.03 0 0 1 2.156-2.65ZM669.653 89c-3.974 0-7.874-.86-11.67-2.58a72.894 72.894 0 0 1-12.5-7.237 5.63 5.63 0 0 1-.485-.393l-4.211 3.39a.886.886 0 0 1-1.021.066c-.146-.09-3.61-2.23-6.542-5.653-2.942-3.436-4.231-6.81-4.285-6.95a.892.892 0 0 1 .166-.904l2.588-2.929a.91.91 0 0 1 .213-.176c-1.323-2.576-3.099-7.37-3.74-15.263-.567-6.99.318-12.721 2.628-17.036.123-.231.306-.609.504-1.017.339-.699.688-1.422.93-1.817.238-.389.496-.837.783-1.334 2.228-3.856 6.375-11.034 15.849-16.503 8.029-4.636 12.025-5.118 15.549-5.543 2.097-.253 3.907-.472 6.344-1.563 6.2-2.776 7.439-5.047 7.451-5.07a.908.908 0 0 1 .579-.46.891.891 0 0 1 .723.124c.649.45 3.891 2.806 3.926 5.084.018 1.104-.365 1.86-.645 2.41-.286.567-.276.58-.155.741.13.173.366.268.741.41.896.336 2.248.845 2.311 3.46.05 2.083-1.048 3.246-1.942 4.09 1.767.881 6.298 3.288 9.892 6.44 2.321 2.038 4.142 4.419 5.261 6.056.854 1.25 1.368 2.075 1.662 2.639 1.145-.621 1.924-.888 2.529-1.095.709-.243 1.101-.378 1.715-.948 2.043-1.896 5.382-.405 5.786-.126a.953.953 0 0 1 .406.68c.057.51-.235.826-.764 1.399-.879.952-2.709 2.934-3.588 6.297-.787 3.014-.623 6.516-.478 9.605.092 1.95.178 3.793.003 5.25-.574 4.76-1.769 14.666-9.071 22.81-3.492 3.894-7.874 7.295-12.406 9.68a.9.9 0 0 1-.26.136 37.401 37.401 0 0 1-3.368 1.539C677.209 88.237 673.398 89 669.653 89Zm-4.882-2.28c6.643 1.245 13.11-.247 18.747-3.099.39-.796 1.521-3.46 1.437-7.488-.099-4.747-.921-6.247-.929-6.26a.9.9 0 0 1 .311-1.213.881.881 0 0 1 1.205.281c.11.176 1.081 1.87 1.191 7.154.054 2.622-.356 4.719-.801 6.194a43.16 43.16 0 0 0 9.84-8.124 29.973 29.973 0 0 0 3.489-4.772c-.325-.796-1.058-3.097-.66-6.96.463-4.498.634-6.951.635-6.975a.897.897 0 0 1 .948-.827.89.89 0 0 1 .826.949c-.002.025-.174 2.503-.64 7.037-.204 1.981-.081 3.485.105 4.52 2.843-5.819 3.534-11.558 3.926-14.807.157-1.308.075-3.078-.013-4.951-.151-3.218-.322-6.864.534-10.14.915-3.502 2.718-5.648 3.759-6.79-.828-.216-1.996-.33-2.671.297-.891.827-1.566 1.058-2.348 1.326-.74.253-1.659.568-3.259 1.558-1.476.914-1.512 2.112-1.447 3.992.044 1.244.092 2.653-.633 3.9-1.269 2.178-2.813 1.677-3.835 1.348-.553-.179-1.034-.335-1.535-.218-.047.384.281 1.462.525 2.264.561 1.84 1.329 4.362.913 6.907-.232 1.422-.658 2.291-1.341 2.737-.796.52-1.643.303-2.324.127-.895-.231-1.069-.21-1.326.163-.984 1.425-1.258 2.726-1.639 4.527-.16.758-.343 1.619-.601 2.586-.404 1.512-1.18 2.569-2.306 3.142-1.712.871-4.177.632-7.756-.755a21.74 21.74 0 0 0-7.534-1.456h-.028c-.772 0-1.47.361-2.237.926-5.132 4.925-10.784 7.704-16.354 7.956-1.076.049-2.21.008-3.358-.097-1.251.314-2.005 1.283-2.313 2.208-.382 1.152-.256 2.768 1.248 3.85a71.034 71.034 0 0 0 12.194 7.062 26.99 26.99 0 0 0 3.87 1.411c.568-.429 3.195-2.515 5.617-6.113-.187-.425-1.281-2.994-1.413-5.27-.066-1.135-.104-2.594.086-3.102l1.664.627s.011-.02.024-.074c-.005.02-.111.524.001 2.445.069 1.195.47 2.54.806 3.482 2.703-4.69 3.1-6.361 3.104-6.378a.893.893 0 0 1 1.054-.678.886.886 0 0 1 .686 1.041c-.039.194-.47 2.042-3.525 7.286-2.071 3.557-4.479 5.979-5.919 7.243ZM630.808 69.5a25.245 25.245 0 0 0 3.767 5.934c2.1 2.453 4.553 4.242 5.602 4.954l3.327-2.679c-1.219-.936-3.174-2.459-4.422-3.533-3.299-2.836-5.675-6.102-5.775-6.24a.908.908 0 0 1-.1-.177 10.648 10.648 0 0 1-.382-.542l-2.017 2.282Zm5.915-.184c.937 1.064 2.151 2.335 3.517 3.51.836.719 2.025 1.666 3.079 2.488a5.314 5.314 0 0 1 .268-1.99 5.24 5.24 0 0 1 1.214-2.012c-3.064-.514-6.007-1.34-8.078-1.996Zm-2.057-2.58c1.217.445 7.269 2.581 12.838 3.143a5.456 5.456 0 0 1 1.076-.086c1.718.031 3.36-.09 4.877-.368 5.575-1.02 9.207-4.075 11.378-5.9.382-.323.725-.61 1.03-.85l.293-.226a43.906 43.906 0 0 0 4.453-5.056c5.641-7.444 5.29-11.004 5.121-12.715l-.024-.248c-.039-.443-.287-1.244-.55-2.092-.683-2.205-1.617-5.224-.734-7.452.815-2.057 2.891-2.242 4.899-2.42 1.44-.129 2.929-.262 4.089-1.032 2.488-1.652 1.234-5.901.102-8.151-.448-.89-1-1.558-1.486-2.148-.835-1.01-1.697-2.056-1.302-3.633.252-1.007.949-1.657 1.622-2.287.855-.798 1.593-1.488 1.559-2.915-.035-1.414-.434-1.564-1.159-1.836-.486-.183-1.09-.41-1.537-1.007-.797-1.06-.342-1.959-.01-2.615.239-.47.464-.914.453-1.578-.012-.833-1.3-2.184-2.461-3.122-.903 1.06-3.015 2.938-7.714 5.042-2.682 1.2-4.71 1.445-6.856 1.704-3.357.405-7.16.864-14.875 5.318-9.062 5.232-12.903 11.88-15.197 15.853-.295.51-.562.971-.806 1.372-.196.32-.557 1.065-.846 1.664-.211.434-.406.836-.537 1.082-1.99 3.714-2.835 8.625-2.519 14.613 1.331-4.486 4.049-11.157 9.429-17.357 9.018-10.392 26.538-16.063 27.28-16.3a.89.89 0 0 1 .539 1.697c-.168.054-16.095 5.21-25.13 14.322 1.751.577 5.817 1.733 8.645 1.086 1.162-.266 2.167-.518 3.054-.741 2.194-.552 3.779-.95 5.645-1.023l.035-.001a.89.89 0 0 1 .034 1.78c-1.601.062-3.046.41-4.984.896l1.732 1.664a.889.889 0 1 1-1.231 1.285l-2.541-2.442c-.425.103-.874.21-1.35.318-3.868.882-9.315-1.01-10.365-1.397l-.021.024c-2.887 3.327-4.98 6.828-6.489 10.023 2.37-1.291 6.24-2.958 8.703-1.726 1.636.817 2.881 2.287 4.085 3.71 1.317 1.554 2.56 3.022 4.189 3.574a.89.89 0 0 1-.57 1.686c-2.096-.71-3.559-2.438-4.975-4.11-.514-.607-1.015-1.199-1.531-1.726-.373 1.156-.995 3.344-1.015 5.13-.028 2.543 1.24 6.144 1.252 6.18a.89.89 0 0 1-1.675.597c-.057-.158-1.388-3.934-1.356-6.797.028-2.513 1.048-5.546 1.334-6.346a5.59 5.59 0 0 0-.531-.305c-2.219-1.107-7.315 1.734-8.925 2.817a.883.883 0 0 1-.191.098c-2.008 5.066-2.496 8.822-2.504 8.888a.218.218 0 0 0-.004.025c1.226 8.057 3.678 11.661 4.255 12.416Zm35.206-5.618c1.922.047 4.762.369 7.868 1.571 2.99 1.159 5.113 1.437 6.308.828.666-.339 1.122-.998 1.395-2.015a46.02 46.02 0 0 0 .578-2.494c.392-1.851.73-3.45 1.916-5.17 1.002-1.451 2.398-1.09 3.232-.875.361.092.77.198.91.106.057-.038.354-.288.558-1.534.349-2.135-.321-4.334-.86-6.1-.499-1.64-.86-2.824-.367-3.708.152-.272.456-.63 1.044-.785 1.023-.27 1.886.01 2.581.234.972.313 1.204.39 1.753-.552.466-.801.43-1.84.392-2.94-.059-1.692-.131-3.772 1.843-5.264-.646-1.171-2.996-5.165-6.561-8.293-3.752-3.292-8.732-5.808-9.941-6.396a1.38 1.38 0 0 0-.071.204c-.162.648.099 1.036.949 2.066.519.629 1.166 1.413 1.703 2.48 1.734 3.446 2.59 8.247-.706 10.436-1.537 1.02-3.332 1.18-4.915 1.322-1.912.17-3.012.315-3.404 1.304-.652 1.644.176 4.316.78 6.268.304.981.566 1.829.623 2.459l.022.233c.191 1.937.588 5.966-5.474 13.966a49.03 49.03 0 0 1-2.156 2.65ZM918.347 0c3.974 0 7.874.86 11.67 2.58a72.89 72.89 0 0 1 12.5 7.237c.171.123.332.254.485.393l4.211-3.39a.886.886 0 0 1 1.021-.066c.146.09 3.61 2.23 6.542 5.654 2.942 3.434 4.231 6.808 4.285 6.95a.892.892 0 0 1-.166.904l-2.588 2.928a.91.91 0 0 1-.213.176c1.323 2.576 3.099 7.37 3.74 15.263.567 6.99-.318 12.721-2.628 17.036-.123.231-.306.609-.504 1.017-.339.699-.688 1.422-.93 1.817-.238.389-.496.837-.783 1.334-2.228 3.856-6.375 11.034-15.849 16.503-8.029 4.636-12.025 5.118-15.549 5.543-2.097.253-3.907.472-6.344 1.563-6.2 2.776-7.439 5.047-7.451 5.07a.908.908 0 0 1-.579.46.891.891 0 0 1-.723-.124c-.649-.45-3.891-2.806-3.926-5.084-.018-1.104.365-1.86.645-2.41.286-.567.276-.58.155-.742-.13-.172-.366-.267-.741-.408-.896-.337-2.248-.846-2.311-3.46-.05-2.084 1.048-3.247 1.942-4.09-1.767-.882-6.298-3.29-9.892-6.442-2.321-2.037-4.142-4.418-5.261-6.056-.854-1.25-1.368-2.073-1.662-2.638-1.145.621-1.924.888-2.528 1.095-.71.243-1.102.377-1.716.948-2.043 1.896-5.382.406-5.786.126a.953.953 0 0 1-.406-.68c-.057-.51.235-.826.764-1.399.879-.952 2.709-2.934 3.588-6.297.787-3.014.623-6.516.478-9.605-.092-1.95-.178-3.793-.003-5.25.574-4.76 1.769-14.666 9.071-22.81 3.492-3.894 7.874-7.295 12.406-9.68a.914.914 0 0 1 .26-.136 37.393 37.393 0 0 1 3.368-1.539C910.791.763 914.602 0 918.347 0Zm4.882 2.28c-6.643-1.245-13.11.247-18.747 3.099-.39.796-1.521 3.46-1.437 7.488.099 4.747.921 6.247.929 6.26a.9.9 0 0 1-.311 1.213.881.881 0 0 1-1.205-.281c-.11-.176-1.081-1.87-1.191-7.154-.054-2.622.356-4.719.801-6.194a43.162 43.162 0 0 0-9.84 8.124 29.973 29.973 0 0 0-3.489 4.772c.325.796 1.058 3.097.66 6.96-.463 4.498-.634 6.951-.635 6.975a.897.897 0 0 1-.948.827.89.89 0 0 1-.826-.949c.002-.025.174-2.503.64-7.037.204-1.981.081-3.485-.105-4.52-2.843 5.819-3.534 11.558-3.926 14.807-.157 1.308-.075 3.078.013 4.951.151 3.218.322 6.864-.534 10.14-.915 3.502-2.718 5.648-3.759 6.79.828.216 1.996.33 2.671-.297.891-.827 1.566-1.058 2.348-1.326.74-.253 1.659-.568 3.259-1.558 1.476-.914 1.512-2.112 1.447-3.992-.044-1.244-.092-2.653.633-3.9 1.269-2.178 2.813-1.677 3.835-1.348.553.179 1.034.335 1.535.218.047-.384-.281-1.462-.525-2.264-.561-1.84-1.329-4.362-.913-6.907.232-1.422.658-2.291 1.341-2.737.796-.52 1.643-.303 2.324-.127.895.231 1.069.21 1.326-.163.984-1.425 1.258-2.726 1.639-4.527.16-.758.343-1.619.601-2.586.404-1.512 1.18-2.569 2.306-3.142 1.712-.871 4.177-.631 7.756.755a21.74 21.74 0 0 0 7.534 1.456h.028c.772 0 1.47-.361 2.237-.926 5.132-4.925 10.784-7.704 16.354-7.956a24.714 24.714 0 0 1 3.358.097c1.251-.314 2.005-1.283 2.313-2.208.382-1.152.256-2.768-1.248-3.85A71.038 71.038 0 0 0 929.284 4.2a26.996 26.996 0 0 0-3.87-1.411c-.568.429-3.195 2.515-5.617 6.113.187.425 1.281 2.994 1.413 5.27.066 1.135.104 2.594-.086 3.102l-1.664-.627s-.011.02-.024.074c.005-.02.111-.524-.001-2.445-.069-1.195-.47-2.54-.806-3.482-2.703 4.69-3.1 6.361-3.104 6.378a.893.893 0 0 1-1.054.679.886.886 0 0 1-.686-1.042c.039-.194.47-2.042 3.525-7.286 2.071-3.557 4.479-5.979 5.919-7.243Zm33.963 17.22a25.243 25.243 0 0 0-3.767-5.934c-2.1-2.453-4.553-4.241-5.602-4.954l-3.327 2.679c1.219.936 3.174 2.459 4.422 3.533 3.299 2.836 5.675 6.101 5.775 6.24a.908.908 0 0 1 .1.177c.103.136.232.316.382.542l2.017-2.282Zm-5.915.184c-.937-1.064-2.151-2.335-3.517-3.51-.836-.719-2.025-1.666-3.079-2.488a5.314 5.314 0 0 1-.268 1.99 5.24 5.24 0 0 1-1.214 2.012c3.064.514 6.007 1.34 8.078 1.996Zm2.057 2.58c-1.217-.445-7.269-2.581-12.838-3.143a5.456 5.456 0 0 1-1.076.086c-1.718-.031-3.36.09-4.877.368-5.575 1.02-9.207 4.075-11.378 5.9-.382.323-.725.61-1.03.85l-.293.226a43.906 43.906 0 0 0-4.453 5.056c-5.641 7.444-5.29 11.004-5.121 12.715l.024.248c.039.443.287 1.244.55 2.092.683 2.205 1.617 5.224.734 7.452-.815 2.057-2.891 2.242-4.899 2.42-1.44.129-2.929.262-4.089 1.032-2.487 1.652-1.234 5.901-.102 8.151.448.89 1 1.558 1.486 2.148.835 1.01 1.697 2.056 1.302 3.633-.252 1.007-.949 1.657-1.622 2.287-.855.798-1.593 1.488-1.559 2.915.035 1.413.434 1.563 1.159 1.836.486.183 1.09.41 1.537 1.007.797 1.06.342 1.959.01 2.615-.239.47-.464.914-.453 1.578.012.833 1.3 2.184 2.461 3.122.903-1.06 3.015-2.938 7.714-5.042 2.682-1.2 4.71-1.445 6.856-1.704 3.357-.405 7.16-.864 14.875-5.318 9.062-5.231 12.903-11.88 15.197-15.853.295-.51.562-.972.806-1.372.196-.32.557-1.066.846-1.664.211-.434.406-.836.537-1.082 1.99-3.714 2.835-8.625 2.519-14.613-1.331 4.486-4.049 11.157-9.429 17.357-9.018 10.392-26.538 16.063-27.28 16.3a.89.89 0 0 1-.539-1.697c.168-.054 16.095-5.21 25.13-14.322-1.751-.577-5.817-1.733-8.645-1.086-1.162.266-2.167.518-3.054.741-2.194.552-3.779.95-5.645 1.023l-.035.001a.89.89 0 0 1-.034-1.78c1.601-.062 3.046-.41 4.984-.896l-1.732-1.664a.889.889 0 1 1 1.231-1.285l2.541 2.442c.425-.103.874-.21 1.35-.318 3.868-.882 9.315 1.01 10.365 1.397l.021-.024c2.887-3.327 4.98-6.828 6.489-10.023-2.37 1.291-6.24 2.958-8.703 1.726-1.636-.817-2.881-2.287-4.085-3.71-1.317-1.554-2.56-3.022-4.189-3.574a.89.89 0 0 1 .57-1.686c2.096.71 3.559 2.438 4.975 4.11.514.607 1.015 1.199 1.531 1.726.373-1.156.995-3.344 1.015-5.13.029-2.543-1.24-6.144-1.252-6.18a.89.89 0 0 1 1.675-.597c.057.158 1.388 3.934 1.356 6.797-.028 2.513-1.048 5.546-1.334 6.346.174.112.35.214.531.305 2.219 1.107 7.315-1.734 8.925-2.817a.883.883 0 0 1 .191-.098c2.008-5.066 2.496-8.822 2.504-8.888a.218.218 0 0 0 .004-.025c-1.226-8.057-3.678-11.661-4.255-12.416Zm-35.206 5.618a23.575 23.575 0 0 1-7.868-1.571c-2.99-1.159-5.113-1.437-6.308-.828-.666.339-1.122.998-1.395 2.015a46.02 46.02 0 0 0-.578 2.494c-.392 1.851-.73 3.45-1.916 5.17-1.002 1.451-2.398 1.09-3.232.875-.361-.092-.77-.198-.91-.106-.057.038-.354.288-.558 1.534-.349 2.135.321 4.334.86 6.1.499 1.64.86 2.824.367 3.708-.152.272-.456.63-1.044.785-1.023.27-1.886-.01-2.581-.234-.972-.313-1.204-.39-1.753.552-.466.801-.43 1.84-.392 2.94.059 1.692.131 3.772-1.843 5.264.646 1.171 2.996 5.165 6.561 8.293 3.752 3.292 8.732 5.808 9.941 6.396a1.38 1.38 0 0 0 .071-.204c.162-.648-.099-1.036-.949-2.066-.519-.629-1.166-1.413-1.703-2.48-1.734-3.446-2.59-8.247.706-10.436 1.537-1.02 3.332-1.18 4.915-1.322 1.912-.17 3.012-.315 3.404-1.304.652-1.644-.176-4.316-.78-6.268-.304-.981-.566-1.829-.623-2.459l-.022-.233c-.191-1.937-.588-5.966 5.474-13.966a49.03 49.03 0 0 1 2.156-2.65ZM1167.65 89c-3.97 0-7.87-.86-11.67-2.58a73.009 73.009 0 0 1-12.5-7.237 5.267 5.267 0 0 1-.48-.393l-4.21 3.39c-.3.237-.7.263-1.02.066-.15-.09-3.61-2.23-6.55-5.653-2.94-3.436-4.23-6.81-4.28-6.95a.88.88 0 0 1 .17-.904l2.58-2.929c.07-.071.14-.13.22-.176-1.33-2.576-3.1-7.37-3.74-15.263-.57-6.99.31-12.721 2.62-17.036.13-.231.31-.609.51-1.017.34-.699.69-1.422.93-1.817.24-.389.49-.837.78-1.334 2.23-3.856 6.38-11.034 15.85-16.503 8.03-4.636 12.02-5.118 15.55-5.543 2.1-.253 3.91-.472 6.34-1.563 6.2-2.776 7.44-5.047 7.45-5.07a.936.936 0 0 1 .58-.46.905.905 0 0 1 .73.124c.64.45 3.89 2.806 3.92 5.084.02 1.104-.36 1.86-.64 2.41-.29.567-.28.58-.16.741.13.173.37.268.74.41.9.336 2.25.845 2.31 3.46.05 2.083-1.04 3.246-1.94 4.09 1.77.881 6.3 3.288 9.89 6.44 2.33 2.038 4.15 4.419 5.27 6.056.85 1.25 1.36 2.075 1.66 2.639 1.14-.621 1.92-.888 2.53-1.095.71-.243 1.1-.378 1.71-.948 2.04-1.896 5.38-.405 5.79-.126.22.158.37.406.4.68.06.51-.23.826-.76 1.399-.88.952-2.71 2.934-3.59 6.297-.79 3.014-.62 6.516-.48 9.605.09 1.95.18 3.793.01 5.25-.58 4.76-1.77 14.666-9.07 22.81-3.5 3.894-7.88 7.295-12.41 9.68a.94.94 0 0 1-.26.136 37.949 37.949 0 0 1-3.37 1.539c-3.85 1.528-7.66 2.291-11.41 2.291Zm-4.88-2.28c6.64 1.245 13.11-.247 18.75-3.099.39-.796 1.52-3.46 1.43-7.488-.09-4.747-.92-6.247-.92-6.26a.893.893 0 0 1 .31-1.213.877.877 0 0 1 1.2.281c.11.176 1.08 1.87 1.19 7.154.06 2.622-.35 4.719-.8 6.194a42.946 42.946 0 0 0 9.84-8.124 29.796 29.796 0 0 0 3.49-4.772c-.32-.796-1.06-3.097-.66-6.96.46-4.498.63-6.951.64-6.975.03-.49.46-.856.94-.827.49.033.86.458.83.949 0 .025-.17 2.503-.64 7.037-.2 1.981-.08 3.485.11 4.52 2.84-5.819 3.53-11.558 3.92-14.807.16-1.308.08-3.078-.01-4.951-.15-3.218-.32-6.864.53-10.14.92-3.502 2.72-5.648 3.76-6.79-.83-.216-2-.33-2.67.297-.89.827-1.57 1.058-2.35 1.326-.74.253-1.66.568-3.26 1.558-1.47.914-1.51 2.112-1.44 3.992.04 1.244.09 2.653-.64 3.9-1.27 2.178-2.81 1.677-3.83 1.348-.55-.179-1.04-.335-1.54-.218-.04.384.28 1.462.53 2.264.56 1.84 1.33 4.362.91 6.907-.23 1.422-.66 2.291-1.34 2.737-.8.52-1.64.303-2.32.127-.9-.231-1.07-.21-1.33.163-.98 1.425-1.26 2.726-1.64 4.527-.16.758-.34 1.619-.6 2.586-.4 1.512-1.18 2.569-2.31 3.142-1.71.871-4.17.632-7.75-.755a21.752 21.752 0 0 0-7.54-1.456h-.02c-.78 0-1.47.361-2.24.926-5.13 4.925-10.79 7.704-16.36 7.956-1.07.049-2.2.008-3.35-.097-1.25.314-2.01 1.283-2.32 2.208-.38 1.152-.25 2.768 1.25 3.85a70.784 70.784 0 0 0 12.2 7.062c1.29.584 2.58 1.052 3.87 1.411.56-.429 3.19-2.515 5.61-6.113-.18-.425-1.28-2.994-1.41-5.27-.07-1.135-.1-2.594.09-3.102l1.66.627s.01-.02.02-.074c0 .02-.11.524.01 2.445.06 1.195.47 2.54.8 3.482 2.7-4.69 3.1-6.361 3.1-6.378a.899.899 0 0 1 1.06-.678c.48.101.78.564.68 1.041-.03.194-.47 2.042-3.52 7.286-2.07 3.557-4.48 5.979-5.92 7.243Zm-33.96-17.22c.45 1.016 1.66 3.48 3.76 5.934 2.11 2.453 4.56 4.242 5.61 4.954l3.32-2.679c-1.21-.936-3.17-2.459-4.42-3.533-3.3-2.836-5.67-6.102-5.77-6.24a.708.708 0 0 1-.1-.177 7.572 7.572 0 0 1-.38-.542l-2.02 2.282Zm5.91-.184c.94 1.064 2.15 2.335 3.52 3.51.84.719 2.03 1.666 3.08 2.488-.04-.653.05-1.325.27-1.99.26-.783.68-1.463 1.21-2.012-3.06-.514-6.01-1.34-8.08-1.996Zm-2.05-2.58c1.21.445 7.27 2.581 12.83 3.143.35-.064.71-.092 1.08-.086 1.72.031 3.36-.09 4.88-.368 5.57-1.02 9.2-4.075 11.37-5.9.39-.323.73-.61 1.04-.85.09-.076.19-.151.29-.226a44.664 44.664 0 0 0 4.45-5.056c5.64-7.444 5.29-11.004 5.12-12.715l-.02-.248c-.04-.443-.29-1.244-.55-2.092-.68-2.205-1.62-5.224-.74-7.452.82-2.057 2.9-2.242 4.9-2.42 1.44-.129 2.93-.262 4.09-1.032 2.49-1.652 1.24-5.901.1-8.151-.44-.89-1-1.558-1.48-2.148-.84-1.01-1.7-2.056-1.3-3.633.25-1.007.94-1.657 1.62-2.287.85-.798 1.59-1.488 1.56-2.915-.04-1.414-.44-1.564-1.16-1.836-.49-.183-1.09-.41-1.54-1.007-.8-1.06-.34-1.959-.01-2.615.24-.47.46-.914.45-1.578-.01-.833-1.3-2.184-2.46-3.122-.9 1.06-3.01 2.938-7.71 5.042-2.68 1.2-4.71 1.445-6.86 1.704-3.35.405-7.16.864-14.87 5.318-9.06 5.232-12.9 11.88-15.2 15.853-.29.51-.56.971-.81 1.372-.19.32-.55 1.065-.84 1.664-.21.434-.41.836-.54 1.082-1.99 3.714-2.83 8.625-2.52 14.613 1.33-4.486 4.05-11.157 9.43-17.357 9.02-10.392 26.54-16.063 27.28-16.3.47-.147.97.11 1.12.579a.89.89 0 0 1-.58 1.118c-.17.054-16.09 5.21-25.13 14.322 1.75.577 5.82 1.733 8.65 1.086 1.16-.266 2.16-.518 3.05-.741 2.19-.552 3.78-.95 5.64-1.023l.04-.001a.89.89 0 0 1 .03 1.78c-1.6.062-3.04.41-4.98.896l1.73 1.664c.36.341.37.904.03 1.259a.892.892 0 0 1-1.26.026l-2.54-2.442c-.42.103-.87.21-1.35.318-3.87.882-9.32-1.01-10.37-1.397 0 .008-.01.016-.02.024-2.88 3.327-4.98 6.828-6.48 10.023 2.37-1.291 6.24-2.958 8.7-1.726 1.63.817 2.88 2.287 4.08 3.71 1.32 1.554 2.56 3.022 4.19 3.574a.89.89 0 1 1-.57 1.686c-2.09-.71-3.56-2.438-4.97-4.11-.52-.607-1.02-1.199-1.53-1.726-.38 1.156-1 3.344-1.02 5.13-.03 2.543 1.24 6.144 1.25 6.18a.88.88 0 0 1-.54 1.137.88.88 0 0 1-1.13-.54c-.06-.158-1.39-3.934-1.36-6.797.03-2.513 1.05-5.546 1.34-6.346a5.372 5.372 0 0 0-.54-.305c-2.21-1.107-7.31 1.734-8.92 2.817-.06.041-.13.074-.19.098-2.01 5.066-2.5 8.822-2.51 8.888v.025c1.23 8.057 3.68 11.661 4.26 12.416Zm35.2-5.618c1.92.047 4.76.369 7.87 1.571 2.99 1.159 5.11 1.437 6.31.828.66-.339 1.12-.998 1.39-2.015.25-.921.42-1.72.58-2.494.39-1.851.73-3.45 1.92-5.17 1-1.451 2.4-1.09 3.23-.875.36.092.77.198.91.106.06-.038.35-.288.56-1.534.35-2.135-.32-4.334-.86-6.1-.5-1.64-.86-2.824-.37-3.708.15-.272.46-.63 1.04-.785 1.03-.27 1.89.01 2.58.234.98.313 1.21.39 1.76-.552.46-.801.43-1.84.39-2.94-.06-1.692-.13-3.772 1.84-5.264-.64-1.171-2.99-5.165-6.56-8.293-3.75-3.292-8.73-5.808-9.94-6.396-.03.066-.05.134-.07.204-.16.648.1 1.036.95 2.066.52.629 1.16 1.413 1.7 2.48 1.74 3.446 2.59 8.247-.7 10.436-1.54 1.02-3.34 1.18-4.92 1.322-1.91.17-3.01.315-3.4 1.304-.66 1.644.17 4.316.78 6.268.3.981.56 1.829.62 2.459l.02.233c.19 1.937.59 5.966-5.47 13.966-.71.928-1.43 1.812-2.16 2.65ZM338 104.347c0 3.974-.86 7.874-2.579 11.67a72.9 72.9 0 0 1-7.238 12.5 5.47 5.47 0 0 1-.393.485l3.391 4.211a.885.885 0 0 1 .065 1.021c-.089.146-2.23 3.61-5.653 6.542-3.435 2.942-6.809 4.231-6.951 4.285a.893.893 0 0 1-.904-.166l-2.928-2.588a.929.929 0 0 1-.176-.213c-2.576 1.323-7.37 3.099-15.263 3.74-6.99.567-12.722-.318-17.036-2.628-.231-.123-.609-.306-1.017-.504-.699-.339-1.422-.688-1.817-.93-.389-.238-.837-.496-1.334-.783-3.856-2.228-11.034-6.375-16.503-15.849-4.636-8.029-5.118-12.025-5.543-15.549-.253-2.097-.472-3.907-1.563-6.344-2.776-6.2-5.047-7.439-5.07-7.45a.912.912 0 0 1-.46-.58.889.889 0 0 1 .124-.722c.449-.65 2.806-3.892 5.084-3.927 1.104-.018 1.86.365 2.411.645.566.286.579.276.74.155.173-.13.268-.366.409-.741.337-.896.846-2.248 3.461-2.31 2.083-.051 3.246 1.047 4.089 1.941.882-1.767 3.289-6.298 6.442-9.892 2.037-2.321 4.418-4.142 6.055-5.261 1.25-.854 2.074-1.368 2.639-1.662a14.851 14.851 0 0 1-1.095-2.528c-.243-.71-.377-1.102-.948-1.716-1.896-2.043-.406-5.382-.126-5.786a.955.955 0 0 1 .68-.406c.511-.056.826.235 1.399.764.952.88 2.934 2.709 6.297 3.588 3.014.787 6.516.623 9.605.478 1.951-.092 3.793-.178 5.249-.003 4.76.574 14.667 1.769 22.81 9.07 3.895 3.493 7.296 7.875 9.681 12.407a.9.9 0 0 1 .136.26 37.449 37.449 0 0 1 1.539 3.368c1.528 3.852 2.291 7.663 2.291 11.408Zm-2.281 4.882c1.246-6.643-.246-13.11-3.098-18.747-.796-.39-3.46-1.521-7.488-1.437-4.747.099-6.247.92-6.261.93a.899.899 0 0 1-1.212-.313.88.88 0 0 1 .281-1.204c.176-.11 1.869-1.08 7.154-1.191 2.622-.054 4.719.356 6.194.801a43.148 43.148 0 0 0-8.124-9.84 29.95 29.95 0 0 0-4.772-3.49c-.796.326-3.097 1.059-6.959.66-4.499-.462-6.952-.633-6.976-.634a.888.888 0 1 1 .122-1.774c.025.002 2.503.174 7.037.64 1.981.204 3.485.081 4.521-.105-5.82-2.843-11.559-3.534-14.808-3.926-1.308-.157-3.078-.075-4.951.013-3.218.151-6.864.322-10.139-.534-3.503-.915-5.649-2.718-6.791-3.76-.216.829-.33 1.997.297 2.672.827.891 1.058 1.567 1.326 2.348.253.74.568 1.659 1.558 3.259.914 1.476 2.112 1.512 3.992 1.447 1.244-.044 2.653-.092 3.899.633 2.179 1.269 1.678 2.813 1.349 3.835-.179.553-.335 1.034-.218 1.535.385.047 1.462-.281 2.264-.525 1.841-.561 4.362-1.329 6.907-.913 1.422.232 2.291.658 2.737 1.34.52.797.303 1.644.127 2.325-.231.895-.21 1.069.163 1.326 1.425.984 2.726 1.258 4.527 1.639.758.16 1.619.343 2.586.601 1.512.404 2.569 1.18 3.142 2.306.871 1.712.632 4.177-.755 7.755a21.744 21.744 0 0 0-1.456 7.535v.028c0 .772.361 1.47.926 2.237 4.925 5.132 7.704 10.784 7.956 16.354.049 1.076.009 2.21-.097 3.358.314 1.251 1.283 2.005 2.208 2.313 1.152.382 2.768.256 3.851-1.248a71.072 71.072 0 0 0 7.061-12.194 26.964 26.964 0 0 0 1.411-3.87c-.429-.568-2.515-3.195-6.113-5.617-.425.187-2.994 1.281-5.27 1.413-1.135.066-2.594.104-3.102-.086l.627-1.664s-.021-.011-.074-.024c.021.005.524.111 2.445-.001 1.195-.069 2.539-.47 3.482-.806-4.69-2.703-6.361-3.1-6.378-3.104a.892.892 0 0 1-.678-1.054.884.884 0 0 1 1.041-.686c.194.04 2.042.47 7.286 3.525 3.557 2.071 5.979 4.479 7.243 5.919Zm-17.22 33.963a25.243 25.243 0 0 0 5.935-3.767c2.453-2.1 4.241-4.553 4.954-5.602l-2.679-3.327c-.936 1.219-2.459 3.174-3.533 4.422-2.836 3.299-6.102 5.675-6.24 5.775a.89.89 0 0 1-.177.1c-.136.103-.316.232-.542.382l2.282 2.017Zm-.183-5.915c1.064-.937 2.335-2.151 3.51-3.517.719-.836 1.666-2.025 2.488-3.079a5.312 5.312 0 0 1-1.99-.268 5.243 5.243 0 0 1-2.012-1.214c-.514 3.064-1.34 6.007-1.996 8.078Zm-2.581 2.057c.446-1.217 2.583-7.269 3.144-12.838a5.525 5.525 0 0 1-.086-1.076c.031-1.718-.091-3.36-.368-4.877-1.02-5.575-4.075-9.207-5.901-11.378a41.6 41.6 0 0 1-.85-1.03l-.225-.293a43.924 43.924 0 0 0-5.056-4.453c-7.444-5.64-11.004-5.29-12.715-5.121l-.248.023c-.443.04-1.244.288-2.092.55-2.205.684-5.224 1.618-7.452.735-2.057-.815-2.242-2.891-2.421-4.899-.128-1.44-.261-2.929-1.031-4.09-1.652-2.487-5.901-1.233-8.151-.1-.889.447-1.558.999-2.148 1.485-1.011.835-2.056 1.697-3.633 1.302-1.007-.252-1.658-.949-2.287-1.622-.798-.855-1.488-1.593-2.915-1.559-1.414.034-1.564.434-1.836 1.159-.183.486-.41 1.09-1.007 1.537-1.061.797-1.959.342-2.615.01-.47-.239-.914-.464-1.578-.453-.833.012-2.184 1.3-3.122 2.46 1.059.904 2.938 3.016 5.042 7.715 1.2 2.682 1.445 4.71 1.704 6.856.405 3.357.864 7.16 5.318 14.875 5.231 9.062 11.88 12.903 15.853 15.197.51.295.972.562 1.372.806.321.196 1.066.557 1.664.846.434.211.836.406 1.082.537 3.714 1.99 8.625 2.835 14.613 2.519-4.486-1.331-11.157-4.049-17.357-9.429-10.392-9.018-16.063-26.538-16.3-27.28a.89.89 0 0 1 1.697-.539c.054.168 5.211 16.095 14.322 25.13.577-1.751 1.734-5.817 1.086-8.645a142.167 142.167 0 0 0-.741-3.054c-.552-2.194-.951-3.779-1.023-5.645l-.001-.035a.89.89 0 0 1 1.779-.034c.063 1.601.41 3.046.897 4.984l1.664-1.732a.89.89 0 1 1 1.285 1.231l-2.442 2.541c.103.425.21.874.318 1.35.882 3.868-1.01 9.315-1.397 10.365l.024.021c3.327 2.887 6.828 4.98 10.023 6.489-1.291-2.37-2.957-6.24-1.726-8.703.817-1.636 2.287-2.881 3.709-4.085 1.555-1.317 3.023-2.56 3.575-4.189a.89.89 0 0 1 1.686.57c-.71 2.096-2.438 3.559-4.109 4.975-.608.514-1.199 1.015-1.727 1.531 1.156.373 3.344.995 5.13 1.015 2.543.028 6.144-1.24 6.18-1.252a.89.89 0 1 1 .597 1.675c-.159.057-3.934 1.388-6.797 1.356-2.513-.028-5.546-1.048-6.346-1.334-.112.174-.214.35-.305.531-1.107 2.219 1.734 7.315 2.817 8.925a.886.886 0 0 1 .098.191c5.066 2.008 8.823 2.496 8.888 2.504a.257.257 0 0 0 .025.004c8.057-1.226 11.661-3.678 12.416-4.255Zm-5.617-35.206a23.591 23.591 0 0 1 1.571-7.868c1.159-2.99 1.437-5.113.828-6.308-.339-.666-.998-1.122-2.015-1.394a45.82 45.82 0 0 0-2.494-.58c-1.851-.39-3.451-.729-5.169-1.915-1.452-1.002-1.092-2.398-.876-3.232.092-.361.198-.77.106-.91-.038-.057-.288-.354-1.534-.558-2.135-.349-4.334.321-6.1.86-1.639.499-2.824.86-3.708.367-.272-.152-.63-.456-.785-1.044-.269-1.023.009-1.887.234-2.58.313-.973.39-1.205-.552-1.754-.801-.466-1.84-.43-2.94-.392-1.692.059-3.772.131-5.264-1.843-1.171.646-5.165 2.996-8.293 6.561-3.292 3.752-5.808 8.732-6.396 9.94.066.03.135.054.204.072.648.162 1.036-.1 2.065-.949.63-.52 1.414-1.166 2.481-1.703 3.446-1.734 8.247-2.59 10.436.706 1.02 1.537 1.18 3.332 1.322 4.915.17 1.912.315 3.012 1.304 3.404 1.644.652 4.316-.175 6.268-.78.981-.304 1.829-.566 2.459-.623l.233-.022c1.937-.191 5.966-.588 13.967 5.474a49.014 49.014 0 0 1 2.648 2.156ZM587 104.347c0 3.974-.86 7.874-2.579 11.67a72.9 72.9 0 0 1-7.238 12.5 5.47 5.47 0 0 1-.393.485l3.391 4.211a.885.885 0 0 1 .065 1.021c-.089.146-2.23 3.61-5.653 6.542-3.435 2.942-6.809 4.231-6.951 4.285a.893.893 0 0 1-.904-.166l-2.928-2.588a.929.929 0 0 1-.176-.213c-2.576 1.323-7.37 3.099-15.263 3.74-6.99.567-12.722-.318-17.036-2.628-.231-.123-.609-.306-1.017-.504-.699-.339-1.422-.688-1.817-.93-.389-.238-.837-.496-1.334-.783-3.856-2.228-11.034-6.375-16.503-15.849-4.636-8.029-5.118-12.025-5.543-15.549-.253-2.097-.472-3.907-1.563-6.344-2.776-6.2-5.047-7.439-5.07-7.45a.912.912 0 0 1-.46-.58.889.889 0 0 1 .124-.722c.449-.65 2.806-3.892 5.084-3.927 1.104-.018 1.86.365 2.411.645.566.286.579.276.74.155.173-.13.268-.366.409-.741.337-.896.846-2.248 3.461-2.31 2.083-.051 3.246 1.047 4.089 1.941.882-1.767 3.289-6.298 6.442-9.892 2.037-2.321 4.418-4.142 6.055-5.261 1.25-.854 2.074-1.368 2.639-1.662a14.851 14.851 0 0 1-1.095-2.528c-.243-.71-.377-1.102-.948-1.716-1.896-2.043-.406-5.382-.126-5.786a.955.955 0 0 1 .68-.406c.511-.056.826.235 1.399.764.952.88 2.934 2.709 6.297 3.588 3.014.787 6.516.623 9.605.478 1.951-.092 3.793-.178 5.249-.003 4.76.574 14.667 1.769 22.81 9.07 3.895 3.493 7.296 7.875 9.681 12.407a.9.9 0 0 1 .136.26 37.449 37.449 0 0 1 1.539 3.368c1.528 3.852 2.291 7.663 2.291 11.408Zm-2.281 4.882c1.246-6.643-.246-13.11-3.098-18.747-.796-.39-3.46-1.521-7.488-1.437-4.747.099-6.247.92-6.261.93a.899.899 0 0 1-1.212-.313.88.88 0 0 1 .281-1.204c.176-.11 1.869-1.08 7.154-1.191 2.622-.054 4.719.356 6.194.801a43.148 43.148 0 0 0-8.124-9.84 29.95 29.95 0 0 0-4.772-3.49c-.796.326-3.097 1.059-6.959.66-4.499-.462-6.952-.633-6.976-.634a.888.888 0 1 1 .122-1.774c.025.002 2.503.174 7.037.64 1.981.204 3.485.081 4.521-.105-5.82-2.843-11.559-3.534-14.808-3.926-1.308-.157-3.078-.075-4.951.013-3.218.151-6.864.322-10.139-.534-3.503-.915-5.649-2.718-6.791-3.76-.216.829-.33 1.997.297 2.672.827.891 1.058 1.567 1.326 2.348.253.74.568 1.659 1.558 3.259.914 1.476 2.112 1.512 3.992 1.447 1.244-.044 2.653-.092 3.899.633 2.179 1.269 1.678 2.813 1.349 3.835-.179.553-.335 1.034-.218 1.535.385.047 1.462-.281 2.264-.525 1.841-.561 4.362-1.329 6.907-.913 1.422.232 2.291.658 2.737 1.34.52.797.303 1.644.127 2.325-.231.895-.21 1.069.163 1.326 1.425.984 2.726 1.258 4.527 1.639.758.16 1.619.343 2.586.601 1.512.404 2.569 1.18 3.142 2.306.871 1.712.632 4.177-.755 7.755a21.744 21.744 0 0 0-1.456 7.535v.028c0 .772.361 1.47.926 2.237 4.925 5.132 7.704 10.784 7.956 16.354.049 1.076.009 2.21-.097 3.358.314 1.251 1.283 2.005 2.208 2.313 1.152.382 2.768.256 3.851-1.248a71.072 71.072 0 0 0 7.061-12.194 26.964 26.964 0 0 0 1.411-3.87c-.429-.568-2.515-3.195-6.113-5.617-.425.187-2.994 1.281-5.27 1.413-1.135.066-2.594.104-3.102-.086l.627-1.664s-.021-.011-.074-.024c.021.005.524.111 2.445-.001 1.195-.069 2.539-.47 3.482-.806-4.69-2.703-6.361-3.1-6.378-3.104a.892.892 0 0 1-.678-1.054.884.884 0 0 1 1.041-.686c.194.04 2.042.47 7.286 3.525 3.557 2.071 5.979 4.479 7.243 5.919Zm-17.22 33.963a25.243 25.243 0 0 0 5.935-3.767c2.453-2.1 4.241-4.553 4.954-5.602l-2.679-3.327c-.936 1.219-2.459 3.174-3.533 4.422-2.836 3.299-6.102 5.675-6.24 5.775a.89.89 0 0 1-.177.1c-.136.103-.316.232-.542.382l2.282 2.017Zm-.183-5.915c1.064-.937 2.335-2.151 3.51-3.517.719-.836 1.666-2.025 2.488-3.079a5.312 5.312 0 0 1-1.99-.268 5.243 5.243 0 0 1-2.012-1.214c-.514 3.064-1.34 6.007-1.996 8.078Zm-2.581 2.057c.446-1.217 2.583-7.269 3.144-12.838a5.525 5.525 0 0 1-.086-1.076c.031-1.718-.091-3.36-.368-4.877-1.02-5.575-4.075-9.207-5.901-11.378a41.6 41.6 0 0 1-.85-1.03l-.225-.293a43.924 43.924 0 0 0-5.056-4.453c-7.444-5.64-11.004-5.29-12.715-5.121l-.248.023c-.443.04-1.244.288-2.092.55-2.205.684-5.224 1.618-7.452.735-2.057-.815-2.242-2.891-2.421-4.899-.128-1.44-.261-2.929-1.031-4.09-1.652-2.487-5.901-1.233-8.151-.1-.889.447-1.558.999-2.148 1.485-1.011.835-2.056 1.697-3.633 1.302-1.007-.252-1.658-.949-2.287-1.622-.798-.855-1.488-1.593-2.915-1.559-1.414.034-1.564.434-1.836 1.159-.183.486-.41 1.09-1.007 1.537-1.061.797-1.959.342-2.615.01-.47-.239-.914-.464-1.578-.453-.833.012-2.184 1.3-3.122 2.46 1.059.904 2.938 3.016 5.042 7.715 1.2 2.682 1.445 4.71 1.704 6.856.405 3.357.864 7.16 5.318 14.875 5.231 9.062 11.88 12.903 15.853 15.197.51.295.972.562 1.372.806.321.196 1.066.557 1.664.846.434.211.836.406 1.082.537 3.714 1.99 8.625 2.835 14.613 2.519-4.486-1.331-11.157-4.049-17.357-9.429-10.392-9.018-16.063-26.538-16.3-27.28a.89.89 0 0 1 1.697-.539c.054.168 5.211 16.095 14.322 25.13.577-1.751 1.734-5.817 1.086-8.645a142.167 142.167 0 0 0-.741-3.054c-.552-2.194-.951-3.779-1.023-5.645l-.001-.035a.89.89 0 0 1 1.779-.034c.063 1.601.41 3.046.897 4.984l1.664-1.732a.89.89 0 1 1 1.285 1.231l-2.442 2.541c.103.425.21.874.318 1.35.882 3.868-1.01 9.315-1.397 10.365l.024.021c3.327 2.887 6.828 4.98 10.023 6.489-1.291-2.37-2.957-6.24-1.726-8.703.817-1.636 2.287-2.881 3.709-4.085 1.555-1.317 3.023-2.56 3.575-4.189a.89.89 0 0 1 1.686.57c-.71 2.096-2.438 3.559-4.109 4.975-.608.514-1.199 1.015-1.727 1.531 1.156.373 3.344.995 5.13 1.015 2.543.028 6.144-1.24 6.18-1.252a.89.89 0 1 1 .597 1.675c-.159.057-3.934 1.388-6.797 1.356-2.513-.028-5.546-1.048-6.346-1.334-.112.174-.214.35-.305.531-1.107 2.219 1.734 7.315 2.817 8.925a.886.886 0 0 1 .098.191c5.066 2.008 8.823 2.496 8.888 2.504l.025.004c8.057-1.226 11.661-3.678 12.416-4.255Zm-5.617-35.206a23.591 23.591 0 0 1 1.571-7.868c1.159-2.99 1.437-5.113.828-6.308-.339-.666-.998-1.122-2.015-1.394a45.82 45.82 0 0 0-2.494-.58c-1.851-.39-3.451-.729-5.169-1.915-1.452-1.002-1.092-2.398-.876-3.232.092-.361.198-.77.106-.91-.038-.057-.288-.354-1.534-.558-2.135-.349-4.334.321-6.1.86-1.639.499-2.824.86-3.708.367-.272-.152-.63-.456-.785-1.044-.269-1.023.009-1.887.234-2.58.313-.973.39-1.205-.552-1.754-.801-.466-1.84-.43-2.94-.392-1.692.059-3.772.131-5.264-1.843-1.171.646-5.165 2.996-8.293 6.561-3.292 3.752-5.808 8.732-6.396 9.94.066.03.135.054.204.072.648.162 1.036-.1 2.065-.949.63-.52 1.414-1.166 2.481-1.703 3.446-1.734 8.247-2.59 10.436.706 1.02 1.537 1.18 3.332 1.322 4.915.17 1.912.315 3.012 1.304 3.404 1.644.652 4.316-.175 6.268-.78.981-.304 1.829-.566 2.459-.623l.233-.022c1.937-.191 5.966-.588 13.967 5.474a49.014 49.014 0 0 1 2.648 2.156ZM836 104.347c0 3.974-.86 7.874-2.579 11.67a72.9 72.9 0 0 1-7.238 12.5 5.47 5.47 0 0 1-.393.485l3.391 4.211a.885.885 0 0 1 .065 1.021c-.089.146-2.23 3.61-5.653 6.542-3.435 2.942-6.809 4.231-6.951 4.285a.893.893 0 0 1-.904-.166l-2.928-2.588a.929.929 0 0 1-.176-.213c-2.576 1.323-7.37 3.099-15.263 3.74-6.99.567-12.722-.318-17.036-2.628-.231-.123-.609-.306-1.017-.504-.699-.339-1.422-.688-1.817-.93-.389-.238-.837-.496-1.334-.783-3.856-2.228-11.034-6.375-16.503-15.849-4.636-8.029-5.118-12.025-5.543-15.549-.253-2.097-.472-3.907-1.563-6.344-2.776-6.2-5.047-7.439-5.07-7.45a.912.912 0 0 1-.46-.58.889.889 0 0 1 .124-.722c.449-.65 2.806-3.892 5.084-3.927 1.104-.018 1.86.365 2.411.645.566.286.579.276.74.155.173-.13.268-.366.409-.741.337-.896.846-2.248 3.461-2.31 2.083-.051 3.246 1.047 4.089 1.941.882-1.767 3.289-6.298 6.442-9.892 2.037-2.321 4.418-4.142 6.055-5.261 1.25-.854 2.074-1.368 2.639-1.662a14.851 14.851 0 0 1-1.095-2.528c-.243-.71-.377-1.102-.948-1.716-1.896-2.043-.406-5.382-.126-5.786a.955.955 0 0 1 .68-.406c.511-.056.826.235 1.399.764.952.88 2.934 2.709 6.297 3.588 3.014.787 6.516.623 9.605.478 1.951-.092 3.793-.178 5.249-.003 4.76.574 14.667 1.769 22.81 9.07 3.895 3.493 7.296 7.875 9.681 12.407a.9.9 0 0 1 .136.26 37.449 37.449 0 0 1 1.539 3.368c1.528 3.852 2.291 7.663 2.291 11.408Zm-2.281 4.882c1.246-6.643-.246-13.11-3.098-18.747-.796-.39-3.46-1.521-7.488-1.437-4.747.099-6.247.92-6.261.93a.899.899 0 0 1-1.212-.313.88.88 0 0 1 .281-1.204c.176-.11 1.869-1.08 7.154-1.191 2.622-.054 4.719.356 6.194.801a43.148 43.148 0 0 0-8.124-9.84 29.95 29.95 0 0 0-4.772-3.49c-.796.326-3.097 1.059-6.959.66-4.499-.462-6.952-.633-6.976-.634a.888.888 0 1 1 .122-1.774c.025.002 2.503.174 7.037.64 1.981.204 3.485.081 4.521-.105-5.82-2.843-11.559-3.534-14.808-3.926-1.308-.157-3.078-.075-4.951.013-3.218.151-6.864.322-10.139-.534-3.503-.915-5.649-2.718-6.791-3.76-.216.829-.33 1.997.297 2.672.827.891 1.058 1.567 1.326 2.348.253.74.568 1.659 1.558 3.259.914 1.476 2.112 1.512 3.992 1.447 1.244-.044 2.653-.092 3.899.633 2.179 1.269 1.678 2.813 1.349 3.835-.179.553-.335 1.034-.218 1.535.385.047 1.462-.281 2.264-.525 1.841-.561 4.362-1.329 6.907-.913 1.422.232 2.291.658 2.737 1.34.52.797.303 1.644.127 2.325-.231.895-.21 1.069.163 1.326 1.425.984 2.726 1.258 4.527 1.639.758.16 1.619.343 2.586.601 1.512.404 2.569 1.18 3.142 2.306.871 1.712.632 4.177-.755 7.755a21.744 21.744 0 0 0-1.456 7.535v.028c0 .772.361 1.47.926 2.237 4.925 5.132 7.704 10.784 7.956 16.354.049 1.076.009 2.21-.097 3.358.314 1.251 1.283 2.005 2.208 2.313 1.152.382 2.768.256 3.851-1.248a71.072 71.072 0 0 0 7.061-12.194 26.964 26.964 0 0 0 1.411-3.87c-.429-.568-2.515-3.195-6.113-5.617-.425.187-2.994 1.281-5.27 1.413-1.135.066-2.594.104-3.102-.086l.627-1.664s-.021-.011-.074-.024c.021.005.524.111 2.445-.001 1.195-.069 2.539-.47 3.482-.806-4.69-2.703-6.361-3.1-6.378-3.104a.892.892 0 0 1-.678-1.054.884.884 0 0 1 1.041-.686c.194.04 2.042.47 7.286 3.525 3.557 2.071 5.979 4.479 7.243 5.919Zm-17.22 33.963a25.243 25.243 0 0 0 5.935-3.767c2.453-2.1 4.241-4.553 4.954-5.602l-2.679-3.327c-.936 1.219-2.459 3.174-3.533 4.422-2.836 3.299-6.102 5.675-6.24 5.775a.89.89 0 0 1-.177.1c-.136.103-.316.232-.542.382l2.282 2.017Zm-.183-5.915c1.064-.937 2.335-2.151 3.51-3.517.719-.836 1.666-2.025 2.488-3.079a5.312 5.312 0 0 1-1.99-.268 5.243 5.243 0 0 1-2.012-1.214c-.514 3.064-1.34 6.007-1.996 8.078Zm-2.581 2.057c.446-1.217 2.583-7.269 3.144-12.838a5.525 5.525 0 0 1-.086-1.076c.031-1.718-.091-3.36-.368-4.877-1.02-5.575-4.075-9.207-5.901-11.378a41.6 41.6 0 0 1-.85-1.03l-.225-.293a43.924 43.924 0 0 0-5.056-4.453c-7.444-5.64-11.004-5.29-12.715-5.121l-.248.023c-.443.04-1.244.288-2.092.55-2.205.684-5.224 1.618-7.452.735-2.057-.815-2.242-2.891-2.421-4.899-.128-1.44-.261-2.929-1.031-4.09-1.652-2.487-5.901-1.233-8.151-.1-.889.447-1.558.999-2.148 1.485-1.011.835-2.056 1.697-3.633 1.302-1.007-.252-1.658-.949-2.287-1.622-.798-.855-1.488-1.593-2.915-1.559-1.414.034-1.564.434-1.836 1.159-.183.486-.41 1.09-1.007 1.537-1.061.797-1.959.342-2.615.01-.47-.239-.914-.464-1.578-.453-.833.012-2.184 1.3-3.122 2.46 1.059.904 2.938 3.016 5.042 7.715 1.2 2.682 1.445 4.71 1.704 6.856.405 3.357.864 7.16 5.318 14.875 5.231 9.062 11.88 12.903 15.853 15.197.51.295.972.562 1.372.806.321.196 1.066.557 1.664.846.434.211.836.406 1.082.537 3.714 1.99 8.625 2.835 14.613 2.519-4.486-1.331-11.157-4.049-17.357-9.429-10.392-9.018-16.063-26.538-16.3-27.28a.89.89 0 0 1 1.697-.539c.054.168 5.211 16.095 14.322 25.13.577-1.751 1.734-5.817 1.086-8.645a142.167 142.167 0 0 0-.741-3.054c-.552-2.194-.951-3.779-1.023-5.645l-.001-.035a.89.89 0 0 1 1.779-.034c.063 1.601.41 3.046.897 4.984l1.664-1.732a.89.89 0 1 1 1.285 1.231l-2.442 2.541c.103.425.21.874.318 1.35.882 3.868-1.01 9.315-1.397 10.365l.024.021c3.327 2.887 6.828 4.98 10.023 6.489-1.291-2.37-2.957-6.24-1.726-8.703.817-1.636 2.287-2.881 3.709-4.085 1.555-1.317 3.023-2.56 3.575-4.189a.89.89 0 0 1 1.686.57c-.71 2.096-2.438 3.559-4.109 4.975-.608.514-1.199 1.015-1.727 1.531 1.156.373 3.344.995 5.13 1.015 2.543.028 6.144-1.24 6.18-1.252a.89.89 0 1 1 .597 1.675c-.159.057-3.934 1.388-6.797 1.356-2.513-.028-5.546-1.048-6.346-1.334-.112.174-.214.35-.305.531-1.107 2.219 1.734 7.315 2.817 8.925a.886.886 0 0 1 .098.191c5.066 2.008 8.823 2.496 8.888 2.504l.025.004c8.057-1.226 11.661-3.678 12.416-4.255Zm-5.617-35.206a23.591 23.591 0 0 1 1.571-7.868c1.159-2.99 1.437-5.113.828-6.308-.339-.666-.998-1.122-2.015-1.394a45.82 45.82 0 0 0-2.494-.58c-1.851-.39-3.451-.729-5.169-1.915-1.452-1.002-1.092-2.398-.876-3.232.092-.361.198-.77.106-.91-.038-.057-.288-.354-1.534-.558-2.135-.349-4.334.321-6.1.86-1.639.499-2.824.86-3.708.367-.272-.152-.63-.456-.785-1.044-.269-1.023.009-1.887.234-2.58.313-.973.39-1.205-.552-1.754-.801-.466-1.84-.43-2.94-.392-1.692.059-3.772.131-5.264-1.843-1.171.646-5.165 2.996-8.293 6.561-3.292 3.752-5.808 8.732-6.396 9.94.066.03.135.054.204.072.648.162 1.036-.1 2.065-.949.63-.52 1.414-1.166 2.481-1.703 3.446-1.734 8.247-2.59 10.436.706 1.02 1.537 1.18 3.332 1.322 4.915.17 1.912.315 3.012 1.304 3.404 1.644.652 4.316-.175 6.268-.78.981-.304 1.829-.566 2.459-.623l.233-.022c1.937-.191 5.966-.588 13.967 5.474a49.014 49.014 0 0 1 2.648 2.156ZM1085 104.347c0 3.974-.86 7.874-2.58 11.67a72.714 72.714 0 0 1-7.24 12.5 4.81 4.81 0 0 1-.39.485l3.39 4.211c.24.292.26.701.07 1.021-.09.146-2.23 3.61-5.66 6.542-3.43 2.942-6.81 4.231-6.95 4.285a.886.886 0 0 1-.9-.166l-2.93-2.588a1.1 1.1 0 0 1-.18-.213c-2.57 1.323-7.37 3.099-15.26 3.74-6.99.567-12.72-.318-17.03-2.628-.24-.123-.61-.306-1.02-.504-.7-.339-1.42-.688-1.82-.93-.39-.238-.84-.496-1.33-.783-3.86-2.228-11.04-6.375-16.51-15.849-4.63-8.029-5.11-12.025-5.54-15.549-.25-2.097-.47-3.907-1.56-6.344-2.778-6.2-5.049-7.439-5.072-7.45a.912.912 0 0 1-.46-.58.889.889 0 0 1 .124-.722c.449-.65 2.806-3.892 5.088-3.927 1.1-.018 1.86.365 2.41.645.56.286.58.276.74.155.17-.13.27-.366.41-.741.33-.896.84-2.248 3.46-2.31 2.08-.051 3.24 1.047 4.09 1.941.88-1.767 3.29-6.298 6.44-9.892 2.03-2.321 4.42-4.142 6.05-5.261 1.25-.854 2.08-1.368 2.64-1.662a14.259 14.259 0 0 1-1.09-2.528c-.25-.71-.38-1.102-.95-1.716-1.9-2.043-.41-5.382-.13-5.786a.967.967 0 0 1 .68-.406c.51-.056.83.235 1.4.764.95.88 2.94 2.709 6.3 3.588 3.01.787 6.51.623 9.6.478 1.95-.092 3.8-.178 5.25-.003 4.76.574 14.67 1.769 22.81 9.07 3.9 3.493 7.3 7.875 9.68 12.407.06.08.11.167.14.26a38.027 38.027 0 0 1 1.54 3.368c1.53 3.852 2.29 7.663 2.29 11.408Zm-2.28 4.882c1.24-6.643-.25-13.11-3.1-18.747-.79-.39-3.46-1.521-7.49-1.437-4.74.099-6.24.92-6.26.93a.897.897 0 0 1-1.21-.313.878.878 0 0 1 .28-1.204c.18-.11 1.87-1.08 7.16-1.191 2.62-.054 4.71.356 6.19.801a43.213 43.213 0 0 0-8.12-9.84 30.005 30.005 0 0 0-4.78-3.49c-.79.326-3.09 1.059-6.96.66-4.49-.462-6.95-.633-6.97-.634a.899.899 0 0 1-.83-.948c.03-.49.46-.86.95-.826.02.002 2.5.174 7.04.64 1.98.204 3.48.081 4.52-.105-5.82-2.843-11.56-3.534-14.81-3.926-1.31-.157-3.08-.075-4.95.013-3.22.151-6.86.322-10.14-.534-3.5-.915-5.65-2.718-6.79-3.76-.22.829-.33 1.997.3 2.672.82.891 1.05 1.567 1.32 2.348.25.74.57 1.659 1.56 3.259.91 1.476 2.11 1.512 3.99 1.447 1.25-.044 2.66-.092 3.9.633 2.18 1.269 1.68 2.813 1.35 3.835-.18.553-.33 1.034-.22 1.535.39.047 1.46-.281 2.27-.525 1.84-.561 4.36-1.329 6.9-.913 1.42.232 2.29.658 2.74 1.34.52.797.3 1.644.13 2.325-.23.895-.21 1.069.16 1.326 1.43.984 2.73 1.258 4.53 1.639.76.16 1.62.343 2.58.601 1.51.404 2.57 1.18 3.14 2.306.88 1.712.64 4.177-.75 7.755a21.742 21.742 0 0 0-1.46 7.535v.028c0 .772.37 1.47.93 2.237 4.92 5.132 7.7 10.784 7.96 16.354.04 1.076 0 2.21-.1 3.358.31 1.251 1.28 2.005 2.21 2.313 1.15.382 2.77.256 3.85-1.248a70.87 70.87 0 0 0 7.06-12.194 27.573 27.573 0 0 0 1.41-3.87c-.43-.568-2.51-3.195-6.11-5.617-.43.187-3 1.281-5.27 1.413-1.14.066-2.6.104-3.11-.086l.63-1.664s-.02-.011-.07-.024c.02.005.52.111 2.44-.001 1.2-.069 2.54-.47 3.49-.806-4.7-2.703-6.37-3.1-6.38-3.104a.892.892 0 0 1-.68-1.054.881.881 0 0 1 1.04-.686c.19.04 2.04.47 7.29 3.525 3.55 2.071 5.97 4.479 7.24 5.919Zm-17.22 33.963a25.1 25.1 0 0 0 5.93-3.767c2.46-2.1 4.25-4.553 4.96-5.602l-2.68-3.327c-.94 1.219-2.46 3.174-3.53 4.422-2.84 3.299-6.11 5.675-6.24 5.775a1.08 1.08 0 0 1-.18.1c-.14.103-.32.232-.54.382l2.28 2.017Zm-.18-5.915c1.06-.937 2.33-2.151 3.51-3.517a101.8 101.8 0 0 0 2.48-3.079 5.336 5.336 0 0 1-1.99-.268 5.265 5.265 0 0 1-2.01-1.214c-.51 3.064-1.34 6.007-1.99 8.078Zm-2.58 2.057c.44-1.217 2.58-7.269 3.14-12.838a6.326 6.326 0 0 1-.09-1.076c.03-1.718-.09-3.36-.36-4.877-1.02-5.575-4.08-9.207-5.91-11.378-.32-.382-.61-.725-.85-1.03-.07-.097-.15-.195-.22-.293a43.067 43.067 0 0 0-5.06-4.453c-7.44-5.64-11-5.29-12.71-5.121l-.25.023c-.44.04-1.24.288-2.09.55-2.21.684-5.23 1.618-7.45.735-2.06-.815-2.25-2.891-2.42-4.899-.13-1.44-.27-2.929-1.04-4.09-1.65-2.487-5.9-1.233-8.15-.1-.89.447-1.56.999-2.15 1.485-1.01.835-2.05 1.697-3.63 1.302-1-.252-1.66-.949-2.28-1.622-.8-.855-1.49-1.593-2.92-1.559-1.41.034-1.56.434-1.84 1.159-.18.486-.41 1.09-1 1.537-1.06.797-1.96.342-2.62.01-.47-.239-.91-.464-1.58-.453-.83.012-2.18 1.3-3.118 2.46 1.059.904 2.938 3.016 5.038 7.715 1.2 2.682 1.45 4.71 1.71 6.856.4 3.357.86 7.16 5.32 14.875 5.23 9.062 11.88 12.903 15.85 15.197.51.295.97.562 1.37.806.32.196 1.07.557 1.66.846.44.211.84.406 1.09.537 3.71 1.99 8.62 2.835 14.61 2.519-4.49-1.331-11.16-4.049-17.36-9.429-10.39-9.018-16.06-26.538-16.3-27.28a.892.892 0 0 1 1.7-.539c.05.168 5.21 16.095 14.32 25.13.58-1.751 1.74-5.817 1.09-8.645-.27-1.162-.52-2.167-.74-3.054-.55-2.194-.95-3.779-1.03-5.645v-.035c0-.475.38-.869.86-.888.49-.019.9.363.92.854.06 1.601.41 3.046.9 4.984l1.66-1.732a.893.893 0 0 1 1.26-.026c.36.341.37.903.03 1.257l-2.44 2.541c.1.425.21.874.31 1.35.89 3.868-1.01 9.315-1.39 10.365 0 .007.01.014.02.021 3.33 2.887 6.83 4.98 10.02 6.489-1.29-2.37-2.95-6.24-1.72-8.703.81-1.636 2.29-2.881 3.71-4.085 1.55-1.317 3.02-2.56 3.57-4.189a.892.892 0 0 1 1.13-.557c.47.157.72.661.56 1.127-.71 2.096-2.44 3.559-4.11 4.975-.61.514-1.2 1.015-1.73 1.531 1.16.373 3.35.995 5.13 1.015 2.55.028 6.15-1.24 6.18-1.252a.893.893 0 0 1 1.14.539.896.896 0 0 1-.54 1.136c-.16.057-3.93 1.388-6.8 1.356-2.51-.028-5.54-1.048-6.34-1.334-.12.174-.22.35-.31.531-1.11 2.219 1.73 7.315 2.82 8.925.04.061.07.125.1.191 5.06 2.008 8.82 2.496 8.88 2.504l.03.004c8.06-1.226 11.66-3.678 12.42-4.255Zm-5.62-35.206a23.46 23.46 0 0 1 1.57-7.868c1.16-2.99 1.44-5.113.83-6.308-.34-.666-1-1.122-2.02-1.394-.92-.247-1.72-.416-2.49-.58-1.85-.39-3.45-.729-5.17-1.915-1.45-1.002-1.09-2.398-.88-3.232.1-.361.2-.77.11-.91-.04-.057-.29-.354-1.53-.558-2.14-.349-4.34.321-6.11.86-1.63.499-2.82.86-3.7.367-.28-.152-.63-.456-.79-1.044-.27-1.023.01-1.887.24-2.58.31-.973.39-1.205-.56-1.754-.8-.466-1.84-.43-2.94-.392-1.69.059-3.77.131-5.26-1.843-1.17.646-5.16 2.996-8.29 6.561-3.29 3.752-5.81 8.732-6.4 9.94.07.03.14.054.2.072.65.162 1.04-.1 2.07-.949.63-.52 1.41-1.166 2.48-1.703 3.45-1.734 8.25-2.59 10.44.706 1.02 1.537 1.18 3.332 1.32 4.915.17 1.912.31 3.012 1.3 3.404 1.65.652 4.32-.175 6.27-.78.98-.304 1.83-.566 2.46-.623l.23-.022c1.94-.191 5.97-.588 13.97 5.474a49.07 49.07 0 0 1 2.65 2.156ZM1207 178.347c0 3.974-.86 7.874-2.58 11.67a72.714 72.714 0 0 1-7.24 12.5 4.81 4.81 0 0 1-.39.485l3.39 4.211c.24.292.26.701.07 1.021-.09.146-2.23 3.61-5.66 6.542-3.43 2.942-6.81 4.231-6.95 4.285a.886.886 0 0 1-.9-.166l-2.93-2.588a1.1 1.1 0 0 1-.18-.213c-2.57 1.323-7.37 3.099-15.26 3.74-6.99.567-12.72-.318-17.03-2.628-.24-.123-.61-.306-1.02-.504-.7-.339-1.42-.688-1.82-.93-.39-.238-.84-.496-1.33-.783-3.86-2.228-11.04-6.375-16.51-15.849-4.63-8.029-5.11-12.025-5.54-15.549-.25-2.097-.47-3.907-1.56-6.344-2.78-6.2-5.05-7.439-5.07-7.451a.892.892 0 0 1-.46-.579.92.92 0 0 1 .12-.723c.45-.649 2.81-3.891 5.09-3.926 1.1-.018 1.86.365 2.41.645.56.286.58.276.74.155.17-.13.27-.366.41-.741.33-.896.84-2.248 3.46-2.311 2.08-.05 3.24 1.048 4.09 1.942.88-1.767 3.29-6.298 6.44-9.892 2.03-2.321 4.42-4.142 6.05-5.261 1.25-.854 2.08-1.368 2.64-1.662a14.257 14.257 0 0 1-1.09-2.529c-.25-.709-.38-1.101-.95-1.715-1.9-2.043-.41-5.382-.13-5.786a.966.966 0 0 1 .68-.406c.51-.057.83.235 1.4.764.95.879 2.94 2.709 6.3 3.588 3.01.787 6.51.623 9.6.478 1.95-.092 3.8-.178 5.25-.003 4.76.574 14.67 1.769 22.81 9.071 3.9 3.492 7.3 7.874 9.68 12.406.06.079.11.168.14.26a38.15 38.15 0 0 1 1.54 3.368c1.53 3.852 2.29 7.663 2.29 11.408Zm-2.28 4.882c1.24-6.643-.25-13.11-3.1-18.747-.79-.391-3.46-1.521-7.49-1.437-4.74.099-6.24.921-6.26.929a.898.898 0 0 1-1.21-.311.879.879 0 0 1 .28-1.205c.18-.11 1.87-1.081 7.16-1.191 2.62-.054 4.71.356 6.19.801a43.212 43.212 0 0 0-8.12-9.84 30 30 0 0 0-4.78-3.489c-.79.325-3.09 1.058-6.96.66-4.49-.463-6.95-.634-6.97-.635a.9.9 0 0 1-.83-.948c.03-.49.46-.86.95-.826.02.002 2.5.174 7.04.64 1.98.204 3.48.081 4.52-.105-5.82-2.843-11.56-3.534-14.81-3.926-1.31-.157-3.08-.075-4.95.013-3.22.151-6.86.322-10.14-.534-3.5-.915-5.65-2.718-6.79-3.759-.22.828-.33 1.996.3 2.671.82.891 1.05 1.566 1.32 2.348.25.74.57 1.659 1.56 3.259.91 1.476 2.11 1.512 3.99 1.447 1.25-.044 2.66-.092 3.9.633 2.18 1.269 1.68 2.813 1.35 3.835-.18.553-.33 1.034-.22 1.535.39.047 1.46-.281 2.27-.525 1.84-.561 4.36-1.329 6.9-.913 1.42.232 2.29.658 2.74 1.341.52.796.3 1.643.13 2.324-.23.895-.21 1.069.16 1.326 1.43.984 2.73 1.258 4.53 1.639.76.16 1.62.343 2.58.601 1.51.404 2.57 1.18 3.14 2.306.88 1.712.64 4.177-.75 7.756a21.738 21.738 0 0 0-1.46 7.534v.028c0 .772.37 1.47.93 2.237 4.92 5.132 7.7 10.784 7.96 16.354.04 1.076 0 2.21-.1 3.358.31 1.251 1.28 2.005 2.21 2.313 1.15.382 2.77.256 3.85-1.248a70.87 70.87 0 0 0 7.06-12.194 27.573 27.573 0 0 0 1.41-3.87c-.43-.568-2.51-3.195-6.11-5.617-.43.187-3 1.281-5.27 1.413-1.14.066-2.6.104-3.11-.086l.63-1.664s-.02-.011-.07-.024c.02.005.52.111 2.44-.001 1.2-.069 2.54-.47 3.49-.806-4.7-2.703-6.37-3.1-6.38-3.104a.892.892 0 0 1-.68-1.054.881.881 0 0 1 1.04-.686c.19.039 2.04.47 7.29 3.525 3.55 2.071 5.97 4.479 7.24 5.919Zm-17.22 33.963a25.1 25.1 0 0 0 5.93-3.767c2.46-2.1 4.25-4.553 4.96-5.602l-2.68-3.327c-.94 1.219-2.46 3.174-3.53 4.422-2.84 3.299-6.11 5.675-6.24 5.775a1.08 1.08 0 0 1-.18.1c-.14.103-.32.232-.54.382l2.28 2.017Zm-.18-5.915c1.06-.937 2.33-2.151 3.51-3.517a101.8 101.8 0 0 0 2.48-3.079 5.336 5.336 0 0 1-1.99-.268 5.265 5.265 0 0 1-2.01-1.214c-.51 3.064-1.34 6.007-1.99 8.078Zm-2.58 2.057c.44-1.217 2.58-7.269 3.14-12.838a6.326 6.326 0 0 1-.09-1.076c.03-1.718-.09-3.36-.36-4.877-1.02-5.575-4.08-9.207-5.91-11.378-.32-.382-.61-.725-.85-1.03-.07-.097-.15-.195-.22-.293a43.067 43.067 0 0 0-5.06-4.453c-7.44-5.641-11-5.29-12.71-5.121l-.25.024c-.44.039-1.24.287-2.09.55-2.21.683-5.23 1.617-7.45.734-2.06-.815-2.25-2.891-2.42-4.899-.13-1.44-.27-2.929-1.04-4.089-1.65-2.488-5.9-1.234-8.15-.102-.89.448-1.56 1-2.15 1.486-1.01.835-2.05 1.697-3.63 1.302-1-.252-1.66-.949-2.28-1.622-.8-.855-1.49-1.593-2.92-1.559-1.41.035-1.56.434-1.84 1.159-.18.486-.41 1.09-1 1.537-1.06.797-1.96.342-2.62.01-.47-.239-.91-.464-1.58-.453-.83.012-2.18 1.3-3.12 2.461 1.06.903 2.94 3.015 5.04 7.714 1.2 2.682 1.45 4.71 1.71 6.856.4 3.357.86 7.16 5.32 14.875 5.23 9.062 11.88 12.903 15.85 15.197.51.295.97.562 1.37.806.32.196 1.07.557 1.66.846.44.211.84.406 1.09.537 3.71 1.99 8.62 2.835 14.61 2.519-4.49-1.331-11.16-4.049-17.36-9.429-10.39-9.018-16.06-26.538-16.3-27.28a.892.892 0 0 1 1.7-.539c.05.168 5.21 16.095 14.32 25.13.58-1.751 1.74-5.817 1.09-8.645-.27-1.162-.52-2.167-.74-3.054-.55-2.194-.95-3.779-1.03-5.645v-.035c0-.475.38-.869.86-.888.49-.019.9.363.92.854.06 1.601.41 3.046.9 4.984l1.66-1.732a.893.893 0 0 1 1.26-.026c.36.341.37.903.03 1.257l-2.44 2.541c.1.425.21.874.31 1.35.89 3.868-1.01 9.315-1.39 10.365 0 .007.01.014.02.021 3.33 2.887 6.83 4.98 10.02 6.489-1.29-2.37-2.95-6.24-1.72-8.703.81-1.636 2.29-2.881 3.71-4.085 1.55-1.317 3.02-2.56 3.57-4.189a.892.892 0 0 1 1.13-.557c.47.157.72.661.56 1.127-.71 2.096-2.44 3.559-4.11 4.975-.61.514-1.2 1.015-1.73 1.531 1.16.373 3.35.995 5.13 1.015 2.55.028 6.15-1.24 6.18-1.252a.893.893 0 0 1 1.14.539.896.896 0 0 1-.54 1.136c-.16.057-3.93 1.388-6.8 1.356-2.51-.028-5.54-1.048-6.34-1.334-.12.174-.22.35-.31.531-1.11 2.219 1.73 7.315 2.82 8.925.04.061.07.125.1.191 5.06 2.008 8.82 2.496 8.88 2.504l.03.004c8.06-1.226 11.66-3.678 12.42-4.255Zm-5.62-35.206c.04-1.922.37-4.762 1.57-7.868 1.16-2.99 1.44-5.113.83-6.308-.34-.666-1-1.122-2.02-1.395-.92-.246-1.72-.415-2.49-.578-1.85-.392-3.45-.73-5.17-1.916-1.45-1.002-1.09-2.398-.88-3.232.1-.361.2-.77.11-.91-.04-.057-.29-.354-1.53-.558-2.14-.349-4.34.321-6.11.86-1.63.499-2.82.86-3.7.367-.28-.152-.63-.456-.79-1.044-.27-1.023.01-1.886.24-2.581.31-.972.39-1.204-.56-1.753-.8-.466-1.84-.43-2.94-.392-1.69.059-3.77.131-5.26-1.843-1.17.646-5.16 2.996-8.29 6.561-3.29 3.752-5.81 8.732-6.4 9.941.07.029.14.053.2.071.65.162 1.04-.099 2.07-.949.63-.519 1.41-1.166 2.48-1.703 3.45-1.734 8.25-2.59 10.44.706 1.02 1.537 1.18 3.332 1.32 4.915.17 1.912.31 3.012 1.3 3.404 1.65.652 4.32-.176 6.27-.78.98-.304 1.83-.566 2.46-.623l.23-.022c1.94-.191 5.97-.588 13.97 5.474a49.07 49.07 0 0 1 2.65 2.156ZM1334 104.347c0 3.974-.86 7.874-2.58 11.67a72.714 72.714 0 0 1-7.24 12.5 4.81 4.81 0 0 1-.39.485l3.39 4.211c.24.292.26.701.07 1.021-.09.146-2.23 3.61-5.66 6.542-3.43 2.942-6.81 4.231-6.95 4.285a.886.886 0 0 1-.9-.166l-2.93-2.588a1.1 1.1 0 0 1-.18-.213c-2.57 1.323-7.37 3.099-15.26 3.74-6.99.567-12.72-.318-17.03-2.628-.24-.123-.61-.306-1.02-.504-.7-.339-1.42-.688-1.82-.93-.39-.238-.84-.496-1.33-.783-3.86-2.228-11.04-6.375-16.51-15.849-4.63-8.029-5.11-12.025-5.54-15.549-.25-2.097-.47-3.907-1.56-6.344-2.78-6.2-5.05-7.439-5.07-7.45a.894.894 0 0 1-.46-.58.918.918 0 0 1 .12-.722c.45-.65 2.81-3.892 5.09-3.927 1.1-.018 1.86.365 2.41.645.56.286.58.276.74.155.17-.13.27-.366.41-.741.33-.896.84-2.248 3.46-2.31 2.08-.051 3.24 1.047 4.09 1.941.88-1.767 3.29-6.298 6.44-9.892 2.03-2.321 4.42-4.142 6.05-5.261 1.25-.854 2.08-1.368 2.64-1.662a14.259 14.259 0 0 1-1.09-2.528c-.25-.71-.38-1.102-.95-1.716-1.9-2.043-.41-5.382-.13-5.786a.967.967 0 0 1 .68-.406c.51-.056.83.235 1.4.764.95.88 2.94 2.709 6.3 3.588 3.01.787 6.51.623 9.6.478 1.95-.092 3.8-.178 5.25-.003 4.76.574 14.67 1.769 22.81 9.07 3.9 3.493 7.3 7.875 9.68 12.407.06.08.11.167.14.26a38.027 38.027 0 0 1 1.54 3.368c1.53 3.852 2.29 7.663 2.29 11.408Zm-2.28 4.882c1.24-6.643-.25-13.11-3.1-18.747-.79-.39-3.46-1.521-7.49-1.437-4.74.099-6.24.92-6.26.93a.897.897 0 0 1-1.21-.313.878.878 0 0 1 .28-1.204c.18-.11 1.87-1.08 7.16-1.191 2.62-.054 4.71.356 6.19.801a43.213 43.213 0 0 0-8.12-9.84 30.005 30.005 0 0 0-4.78-3.49c-.79.326-3.09 1.059-6.96.66-4.49-.462-6.95-.633-6.97-.634a.899.899 0 0 1-.83-.948c.03-.49.46-.86.95-.826.02.002 2.5.174 7.04.64 1.98.204 3.48.081 4.52-.105-5.82-2.843-11.56-3.534-14.81-3.926-1.31-.157-3.08-.075-4.95.013-3.22.151-6.86.322-10.14-.534-3.5-.915-5.65-2.718-6.79-3.76-.22.829-.33 1.997.3 2.672.82.891 1.05 1.567 1.32 2.348.25.74.57 1.659 1.56 3.259.91 1.476 2.11 1.512 3.99 1.447 1.25-.044 2.66-.092 3.9.633 2.18 1.269 1.68 2.813 1.35 3.835-.18.553-.33 1.034-.22 1.535.39.047 1.46-.281 2.27-.525 1.84-.561 4.36-1.329 6.9-.913 1.42.232 2.29.658 2.74 1.34.52.797.3 1.644.13 2.325-.23.895-.21 1.069.16 1.326 1.43.984 2.73 1.258 4.53 1.639.76.16 1.62.343 2.58.601 1.51.404 2.57 1.18 3.14 2.306.88 1.712.64 4.177-.75 7.755a21.742 21.742 0 0 0-1.46 7.535v.028c0 .772.37 1.47.93 2.237 4.92 5.132 7.7 10.784 7.96 16.354.04 1.076 0 2.21-.1 3.358.31 1.251 1.28 2.005 2.21 2.313 1.15.382 2.77.256 3.85-1.248a70.87 70.87 0 0 0 7.06-12.194 27.573 27.573 0 0 0 1.41-3.87c-.43-.568-2.51-3.195-6.11-5.617-.43.187-3 1.281-5.27 1.413-1.14.066-2.6.104-3.11-.086l.63-1.664s-.02-.011-.07-.024c.02.005.52.111 2.44-.001 1.2-.069 2.54-.47 3.49-.806-4.7-2.703-6.37-3.1-6.38-3.104a.892.892 0 0 1-.68-1.054.881.881 0 0 1 1.04-.686c.19.04 2.04.47 7.29 3.525 3.55 2.071 5.97 4.479 7.24 5.919Zm-17.22 33.963a25.1 25.1 0 0 0 5.93-3.767c2.46-2.1 4.25-4.553 4.96-5.602l-2.68-3.327c-.94 1.219-2.46 3.174-3.53 4.422-2.84 3.299-6.11 5.675-6.24 5.775a1.08 1.08 0 0 1-.18.1c-.14.103-.32.232-.54.382l2.28 2.017Zm-.18-5.915c1.06-.937 2.33-2.151 3.51-3.517a101.8 101.8 0 0 0 2.48-3.079 5.336 5.336 0 0 1-1.99-.268 5.265 5.265 0 0 1-2.01-1.214c-.51 3.064-1.34 6.007-1.99 8.078Zm-2.58 2.057c.44-1.217 2.58-7.269 3.14-12.838a6.326 6.326 0 0 1-.09-1.076c.03-1.718-.09-3.36-.36-4.877-1.02-5.575-4.08-9.207-5.91-11.378-.32-.382-.61-.725-.85-1.03-.07-.097-.15-.195-.22-.293a43.067 43.067 0 0 0-5.06-4.453c-7.44-5.64-11-5.29-12.71-5.121l-.25.023c-.44.04-1.24.288-2.09.55-2.21.684-5.23 1.618-7.45.735-2.06-.815-2.25-2.891-2.42-4.899-.13-1.44-.27-2.929-1.04-4.09-1.65-2.487-5.9-1.233-8.15-.1-.89.447-1.56.999-2.15 1.485-1.01.835-2.05 1.697-3.63 1.302-1-.252-1.66-.949-2.28-1.622-.8-.855-1.49-1.593-2.92-1.559-1.41.034-1.56.434-1.84 1.159-.18.486-.41 1.09-1 1.537-1.06.797-1.96.342-2.62.01-.47-.239-.91-.464-1.58-.453-.83.012-2.18 1.3-3.12 2.46 1.06.904 2.94 3.016 5.04 7.715 1.2 2.682 1.45 4.71 1.71 6.856.4 3.357.86 7.16 5.32 14.875 5.23 9.062 11.88 12.903 15.85 15.197.51.295.97.562 1.37.806.32.196 1.07.557 1.66.846.44.211.84.406 1.09.537 3.71 1.99 8.62 2.835 14.61 2.519-4.49-1.331-11.16-4.049-17.36-9.429-10.39-9.018-16.06-26.538-16.3-27.28a.892.892 0 0 1 1.7-.539c.05.168 5.21 16.095 14.32 25.13.58-1.751 1.74-5.817 1.09-8.645-.27-1.162-.52-2.167-.74-3.054-.55-2.194-.95-3.779-1.03-5.645v-.035c0-.475.38-.869.86-.888.49-.019.9.363.92.854.06 1.601.41 3.046.9 4.984l1.66-1.732a.893.893 0 0 1 1.26-.026c.36.341.37.903.03 1.257l-2.44 2.541c.1.425.21.874.31 1.35.89 3.868-1.01 9.315-1.39 10.365 0 .007.01.014.02.021 3.33 2.887 6.83 4.98 10.02 6.489-1.29-2.37-2.95-6.24-1.72-8.703.81-1.636 2.29-2.881 3.71-4.085 1.55-1.317 3.02-2.56 3.57-4.189a.892.892 0 0 1 1.13-.557c.47.157.72.661.56 1.127-.71 2.096-2.44 3.559-4.11 4.975-.61.514-1.2 1.015-1.73 1.531 1.16.373 3.35.995 5.13 1.015 2.55.028 6.15-1.24 6.18-1.252a.893.893 0 0 1 1.14.539.896.896 0 0 1-.54 1.136c-.16.057-3.93 1.388-6.8 1.356-2.51-.028-5.54-1.048-6.34-1.334-.12.174-.22.35-.31.531-1.11 2.219 1.73 7.315 2.82 8.925.04.061.07.125.1.191 5.06 2.008 8.82 2.496 8.88 2.504l.03.004c8.06-1.226 11.66-3.678 12.42-4.255Zm-5.62-35.206a23.46 23.46 0 0 1 1.57-7.868c1.16-2.99 1.44-5.113.83-6.308-.34-.666-1-1.122-2.02-1.394-.92-.247-1.72-.416-2.49-.58-1.85-.39-3.45-.729-5.17-1.915-1.45-1.002-1.09-2.398-.88-3.232.1-.361.2-.77.11-.91-.04-.057-.29-.354-1.53-.558-2.14-.349-4.34.321-6.11.86-1.63.499-2.82.86-3.7.367-.28-.152-.63-.456-.79-1.044-.27-1.023.01-1.887.24-2.58.31-.973.39-1.205-.56-1.754-.8-.466-1.84-.43-2.94-.392-1.69.059-3.77.131-5.26-1.843-1.17.646-5.16 2.996-8.29 6.561-3.29 3.752-5.81 8.732-6.4 9.94.07.03.14.054.2.072.65.162 1.04-.1 2.07-.949.63-.52 1.41-1.166 2.48-1.703 3.45-1.734 8.25-2.59 10.44.706 1.02 1.537 1.18 3.332 1.32 4.915.17 1.912.31 3.012 1.3 3.404 1.65.652 4.32-.175 6.27-.78.98-.304 1.83-.566 2.46-.623l.23-.022c1.94-.191 5.97-.588 13.97 5.474a49.07 49.07 0 0 1 2.65 2.156Z" fill="#DFE2EB"/></svg>