<svg width="18" height="18" fill="none" xmlns="http://www.w3.org/2000/svg"><path d="M17.659 7.334c.078 0 .141.065.141.145V9c0 .57-.051 1.126-.15 1.666-.766 4.194-4.375 7.364-8.7 7.334C4.097 17.965.213 13.95.224 8.98.234 4.019 4.165 0 9.012 0c2.375 0 4.53.965 6.111 2.532.057.056.059.15.003.207l-2.102 2.152a.139.139 0 0 1-.197.003 5.447 5.447 0 0 0-3.815-1.562c-3.054 0-5.514 2.5-5.534 5.629-.021 3.148 2.465 5.707 5.534 5.707 2.49 0 4.597-1.685 5.291-4.002h-5.15a.143.143 0 0 1-.14-.145V7.48c0-.08.062-.145.14-.145h8.506Z" fill="#2196F3"/><path d="M17.659 7.334h-1.061c.078 0 .141.065.141.145V9c0 .57-.052 1.126-.15 1.666-.731 4.002-4.05 7.07-8.108 7.318.155.01.311.015.469.016 4.325.03 7.933-3.14 8.7-7.334.098-.54.15-1.097.15-1.666V7.479a.143.143 0 0 0-.142-.145Z" fill="#1E88E5"/><path d="m3.985 6.626-2.67-1.975C2.814 1.878 5.699 0 9.013 0c2.374 0 4.529.965 6.11 2.532.058.056.06.15.003.207l-2.101 2.152a.139.139 0 0 1-.197.003 5.447 5.447 0 0 0-3.815-1.562c-2.23 0-4.15 1.35-5.027 3.294Z" fill="#F44336"/><path d="m3.214 6.056.77.57c.8-1.775 2.472-3.053 4.452-3.263l.044-.005a5.469 5.469 0 0 0-.53-.026c-2.013 0-3.768 1.087-4.736 2.724ZM14.062 2.532c.057.056.059.15.002.207L12.36 4.486c.163.127.32.263.468.408a.139.139 0 0 0 .197-.003l2.101-2.152a.148.148 0 0 0-.002-.207A8.655 8.655 0 0 0 8.48.017a8.665 8.665 0 0 1 5.58 2.515Z" fill="#E53935"/><path d="M15.459 15.116C13.854 16.89 11.559 18 9.012 18c-3.44 0-6.42-2.025-7.862-4.975l2.725-1.912c.817 2.084 2.81 3.555 5.137 3.555 1.46 0 2.789-.58 3.777-1.526l2.67 1.974Z" fill="#4CAF50"/><path d="m3.875 11.113-.804.564c.933 1.78 2.769 2.991 4.88 2.991.178 0 .355-.009.53-.026-2.097-.204-3.852-1.606-4.606-3.53ZM9.012 18c2.547 0 4.842-1.11 6.447-2.883l-.654-.484c-1.507 1.92-3.768 3.195-6.322 3.35.175.011.351.017.529.017Z" fill="#43A047"/><path d="M3.477 9c0 .747.141 1.46.398 2.113L1.15 13.025A9.135 9.135 0 0 1 .224 9c0-1.577.396-3.06 1.092-4.349l2.669 1.975A5.76 5.76 0 0 0 3.477 9Z" fill="#FFC107"/><path d="m3.071 11.677.804-.564A5.77 5.77 0 0 1 3.477 9c0-.848.182-1.652.508-2.374l-.77-.57c-.501.846-.792 1.839-.799 2.905a5.752 5.752 0 0 0 .655 2.716Z" fill="#FFB300"/></svg>