<svg width="90" height="31" fill="none" xmlns="http://www.w3.org/2000/svg"><rect x="6" y="5" width="33" height="26" rx="8" fill="#FB7C2F"/><rect width="33" height="26" rx="8" fill="#FB7C2F" fill-opacity=".2"/><path fill-rule="evenodd" clip-rule="evenodd" d="m23.134 20.57 1.285-1.41 2.767 4.838H30.9l-4.392-7.249L30.9 11h-3.874l-2.803 4.08-1.09 1.651V11H20v12.998h3.134V20.57Zm14.578 2.562c.083.381.179.67.286.866h3.008v-.152c-.262-.47-.398-1.148-.41-2.035v-4.276c-.018-1.048-.384-1.872-1.098-2.473-.715-.601-1.688-.902-2.92-.902s-2.247.292-3.044.875c-.791.583-1.187 1.342-1.187 2.277h3.008c0-.703.357-1.054 1.072-1.054.767 0 1.151.444 1.151 1.33v.51h-.928c-1.476 0-2.601.267-3.375.803-.774.535-1.16 1.327-1.16 2.374 0 .834.318 1.527.955 2.08.637.548 1.41.822 2.32.822.995 0 1.768-.348 2.322-1.045Zm-.67-1.339c-.244.16-.553.241-.928.241-.286 0-.52-.083-.705-.25a.875.875 0 0 1-.277-.67c0-.94.524-1.41 1.571-1.41h.875v1.545c-.107.202-.286.384-.536.544Zm14.195-2.553c0 1.5-.34 2.699-1.018 3.598-.672.892-1.583 1.339-2.732 1.339-.886 0-1.615-.325-2.187-.973v4.508h-3.008V14.339h2.812l.09.893c.576-.715 1.335-1.072 2.276-1.072 1.19 0 2.115.44 2.776 1.322.66.874.991 2.08.991 3.615v.143Zm-3.009-.188c0-1.714-.5-2.57-1.5-2.57-.714 0-1.19.255-1.428.767v3.803c.262.536.744.804 1.447.804.958 0 1.452-.828 1.481-2.482v-.322Zm8.517 5.125c1.084 0 1.944-.408 2.58-1.223l.09 1.044h2.82v-9.66H59.21v6.777c-.291.494-.782.74-1.473.74-.803 0-1.205-.413-1.205-1.24v-6.276h-3.008v6.258c0 1.154.27 2.041.812 2.66.547.613 1.35.92 2.41.92Zm12.204-2.893c0-.256-.134-.46-.402-.616-.268-.154-.776-.315-1.526-.482-.75-.166-1.37-.384-1.857-.651-.488-.274-.86-.605-1.116-.991a2.356 2.356 0 0 1-.384-1.33c0-.887.366-1.616 1.098-2.188.615-.485 1.389-.766 2.323-.844V11.99h1.434v2.222c.873.106 1.602.378 2.189.815.773.578 1.16 1.336 1.16 2.277h-3.017c0-.774-.408-1.16-1.223-1.16a1.2 1.2 0 0 0-.795.267.803.803 0 0 0-.321.652c0 .267.13.485.393.651.261.167.678.304 1.25.411a10.81 10.81 0 0 1 1.517.384c1.452.5 2.178 1.396 2.178 2.687 0 .88-.392 1.598-1.178 2.151-.587.417-1.304.677-2.153.78v2.202h-1.434v-2.174a4.983 4.983 0 0 1-1.662-.424c-.649-.297-1.155-.702-1.518-1.214-.363-.511-.544-1.05-.544-1.616h2.812c.011.447.16.774.446.983.286.202.652.303 1.098.303.41 0 .717-.083.92-.25a.795.795 0 0 0 .312-.652Zm8.82-6.945v-2.402h-3.008v2.402h-1.232v2.089h1.232v4.794c0 .994.247 1.735.74 2.223.495.488 1.26.732 2.295.732.59 0 1.155-.087 1.696-.26v-2.15a4.415 4.415 0 0 1-.75.053c-.386 0-.645-.072-.776-.214-.131-.143-.197-.396-.197-.76v-4.418h1.59v-2.09h-1.59Zm9.222 9.66c-.107-.197-.202-.486-.285-.867-.554.697-1.327 1.045-2.321 1.045-.91 0-1.685-.274-2.321-.822-.637-.553-.956-1.246-.956-2.08 0-1.047.387-1.839 1.16-2.374.775-.536 1.9-.804 3.375-.804h.929v-.509c0-.886-.384-1.33-1.152-1.33-.714 0-1.071.351-1.071 1.054h-3.008c0-.935.395-1.694 1.187-2.277.797-.583 1.812-.875 3.044-.875s2.205.3 2.92.902c.713.601 1.08 1.425 1.097 2.473v4.276c.012.887.15 1.565.411 2.035v.152h-3.008Zm-1.883-1.965c.375 0 .684-.08.928-.24.25-.162.429-.343.536-.545v-1.545h-.875c-1.047 0-1.571.47-1.571 1.41 0 .274.092.498.276.67.185.167.42.25.706.25Z" fill="#000"/></svg>