<svg width="83" height="89" fill="none" xmlns="http://www.w3.org/2000/svg"><path d="M41.653 89c-3.974 0-7.874-.86-11.67-2.58a72.882 72.882 0 0 1-12.5-7.237 5.526 5.526 0 0 1-.485-.393l-4.211 3.39a.886.886 0 0 1-1.022.066c-.145-.09-3.609-2.23-6.54-5.653-2.943-3.436-4.232-6.81-4.286-6.95a.89.89 0 0 1 .166-.904l2.588-2.929a.894.894 0 0 1 .213-.176c-1.323-2.576-3.1-7.37-3.74-15.263C-.4 43.38.484 37.65 2.794 33.335c.123-.231.306-.609.504-1.017.339-.699.688-1.422.93-1.817.238-.389.496-.837.783-1.334 2.228-3.856 6.375-11.034 15.849-16.503 8.03-4.636 12.025-5.118 15.55-5.543 2.096-.253 3.906-.472 6.343-1.563 6.2-2.776 7.438-5.047 7.45-5.07a.91.91 0 0 1 .58-.46.89.89 0 0 1 .722.124c.65.45 3.892 2.806 3.927 5.084.018 1.104-.365 1.86-.645 2.41-.286.567-.276.58-.155.741.13.173.366.268.741.41.896.336 2.248.845 2.31 3.46.051 2.083-1.047 3.246-1.941 4.09 1.767.881 6.298 3.288 9.892 6.44 2.321 2.038 4.142 4.419 5.261 6.056.854 1.25 1.368 2.075 1.662 2.639 1.145-.621 1.924-.888 2.528-1.095.71-.243 1.102-.378 1.716-.948 2.043-1.896 5.382-.405 5.786-.126a.955.955 0 0 1 .406.68c.056.51-.235.826-.764 1.399-.88.952-2.709 2.934-3.588 6.297-.787 3.014-.623 6.516-.478 9.605.092 1.95.178 3.793.003 5.25-.574 4.76-1.769 14.666-9.07 22.81-3.493 3.894-7.875 7.295-12.407 9.68a.89.89 0 0 1-.26.136 37.282 37.282 0 0 1-3.368 1.539C49.209 88.237 45.398 89 41.653 89Zm-4.882-2.28c6.642 1.245 13.11-.247 18.747-3.099.39-.796 1.521-3.46 1.437-7.488-.099-4.747-.92-6.247-.93-6.26a.9.9 0 0 1 .313-1.213.88.88 0 0 1 1.204.281c.11.176 1.08 1.87 1.191 7.154.054 2.622-.356 4.719-.801 6.194a43.16 43.16 0 0 0 9.84-8.124 29.977 29.977 0 0 0 3.49-4.772c-.326-.796-1.059-3.097-.66-6.96.462-4.498.633-6.951.634-6.975a.897.897 0 0 1 .948-.827c.49.033.86.458.826.949-.002.025-.174 2.503-.64 7.037-.204 1.981-.081 3.485.105 4.52 2.843-5.819 3.534-11.558 3.926-14.807.157-1.308.075-3.078-.013-4.951-.151-3.218-.322-6.864.534-10.14.915-3.502 2.718-5.648 3.76-6.79-.829-.216-1.997-.33-2.672.297-.891.827-1.567 1.058-2.348 1.326-.74.253-1.659.568-3.259 1.558-1.476.914-1.512 2.112-1.447 3.992.044 1.244.092 2.653-.633 3.9-1.269 2.178-2.813 1.677-3.835 1.348-.553-.179-1.034-.335-1.535-.218-.047.384.281 1.462.525 2.264.561 1.84 1.329 4.362.913 6.907-.232 1.422-.658 2.291-1.34 2.737-.797.52-1.644.303-2.325.127-.895-.231-1.069-.21-1.326.163-.984 1.425-1.258 2.726-1.639 4.527-.16.758-.343 1.619-.601 2.586-.404 1.512-1.18 2.569-2.306 3.142-1.712.871-4.177.632-7.755-.755a21.742 21.742 0 0 0-7.535-1.456h-.028c-.772 0-1.47.361-2.237.926-5.132 4.925-10.784 7.704-16.354 7.956-1.076.049-2.21.008-3.358-.097-1.251.314-2.005 1.283-2.313 2.208-.382 1.152-.256 2.768 1.248 3.85A71.065 71.065 0 0 0 30.716 84.8a26.978 26.978 0 0 0 3.87 1.411c.568-.429 3.195-2.515 5.617-6.113-.187-.425-1.28-2.994-1.413-5.27-.066-1.135-.104-2.594.086-3.102l1.664.627s.011-.02.024-.074c-.005.02-.111.524.001 2.445.07 1.195.47 2.54.806 3.482 2.703-4.69 3.1-6.361 3.104-6.378a.894.894 0 0 1 1.054-.678.885.885 0 0 1 .686 1.041c-.04.194-.47 2.042-3.525 7.286-2.071 3.557-4.48 5.979-5.919 7.243ZM2.808 69.5a25.248 25.248 0 0 0 3.767 5.934c2.1 2.453 4.553 4.242 5.602 4.954l3.327-2.679c-1.218-.936-3.174-2.459-4.422-3.533-3.299-2.836-5.675-6.102-5.775-6.24a.926.926 0 0 1-.1-.177 10.731 10.731 0 0 1-.382-.542l-2.017 2.282Zm5.915-.184c.937 1.064 2.151 2.335 3.517 3.51.836.719 2.025 1.666 3.079 2.488a5.311 5.311 0 0 1 .268-1.99 5.228 5.228 0 0 1 1.214-2.012c-3.064-.514-6.007-1.34-8.078-1.996Zm-2.057-2.58c1.217.445 7.27 2.581 12.838 3.143a5.462 5.462 0 0 1 1.076-.086c1.718.031 3.36-.09 4.877-.368 5.575-1.02 9.207-4.075 11.378-5.9.382-.323.725-.61 1.03-.85l.293-.226a43.902 43.902 0 0 0 4.453-5.056c5.64-7.444 5.29-11.004 5.122-12.715l-.024-.248c-.04-.443-.288-1.244-.55-2.092-.684-2.205-1.618-5.224-.735-7.452.815-2.057 2.891-2.242 4.899-2.42 1.44-.129 2.929-.262 4.09-1.032 2.487-1.652 1.233-5.901.1-8.151-.447-.89-.998-1.558-1.485-2.148-.835-1.01-1.697-2.056-1.302-3.633.252-1.007.949-1.657 1.622-2.287.855-.798 1.593-1.488 1.559-2.915-.034-1.414-.434-1.564-1.159-1.836-.486-.183-1.09-.41-1.537-1.007-.797-1.06-.342-1.959-.01-2.615.239-.47.464-.914.453-1.578-.012-.833-1.3-2.184-2.46-3.122-.904 1.06-3.016 2.938-7.715 5.042-2.682 1.2-4.71 1.445-6.856 1.704-3.356.405-7.16.864-14.875 5.318-9.062 5.232-12.903 11.88-15.197 15.853-.295.51-.562.971-.806 1.372-.196.32-.557 1.065-.846 1.664-.211.434-.406.836-.537 1.082-1.99 3.714-2.835 8.625-2.519 14.613 1.331-4.486 4.05-11.157 9.429-17.357 9.018-10.392 26.538-16.063 27.28-16.3a.89.89 0 0 1 .54 1.697c-.169.054-16.096 5.21-25.13 14.322 1.75.577 5.816 1.733 8.644 1.086 1.162-.266 2.167-.518 3.054-.741 2.194-.552 3.78-.95 5.645-1.023l.035-.001a.89.89 0 0 1 .034 1.78c-1.601.062-3.046.41-4.984.896l1.732 1.664a.889.889 0 1 1-1.23 1.285l-2.542-2.442c-.425.103-.874.21-1.35.318-3.868.882-9.316-1.01-10.365-1.397l-.021.024c-2.887 3.327-4.98 6.828-6.489 10.023 2.37-1.291 6.24-2.958 8.703-1.726 1.636.817 2.88 2.287 4.085 3.71 1.317 1.554 2.56 3.022 4.19 3.574a.89.89 0 0 1-.571 1.686c-2.096-.71-3.56-2.438-4.975-4.11-.514-.607-1.015-1.199-1.531-1.726-.373 1.156-.995 3.344-1.015 5.13-.028 2.543 1.24 6.144 1.252 6.18a.888.888 0 1 1-1.675.597c-.057-.158-1.388-3.934-1.356-6.797.028-2.513 1.048-5.546 1.334-6.346a5.512 5.512 0 0 0-.531-.305c-2.22-1.107-7.315 1.734-8.925 2.817a.877.877 0 0 1-.191.098c-2.008 5.066-2.496 8.822-2.504 8.888l-.004.025C3.637 62.376 6.09 65.98 6.666 66.735Zm35.206-5.618a23.57 23.57 0 0 1 7.868 1.571c2.99 1.159 5.113 1.437 6.308.828.666-.339 1.122-.998 1.395-2.015.246-.921.415-1.72.578-2.494.392-1.851.73-3.45 1.916-5.17 1.002-1.451 2.398-1.09 3.232-.875.361.092.77.198.91.106.057-.038.354-.288.558-1.534.349-2.135-.321-4.334-.86-6.1-.499-1.64-.86-2.824-.367-3.708.152-.272.456-.63 1.044-.785 1.023-.27 1.887.01 2.58.234.973.313 1.205.39 1.754-.552.466-.801.43-1.84.392-2.94-.059-1.692-.131-3.772 1.843-5.264-.646-1.171-2.996-5.165-6.561-8.293-3.752-3.292-8.732-5.808-9.94-6.396-.03.066-.054.134-.072.204-.162.648.1 1.036.949 2.066.52.629 1.166 1.413 1.703 2.48 1.734 3.446 2.59 8.247-.706 10.436-1.537 1.02-3.331 1.18-4.915 1.322-1.912.17-3.012.315-3.404 1.304-.652 1.644.175 4.316.78 6.268.304.981.566 1.829.623 2.459l.022.233c.191 1.937.588 5.966-5.474 13.966a49.072 49.072 0 0 1-2.156 2.65Z" fill="#DFE2EB"/></svg>