<svg id="deleteBtn" width="16" height="18" viewBox="0 0 16 18" fill="none" xmlns="http://www.w3.org/2000/svg">
<path d="M15.3081 4.02333L14.9107 2.832C14.7594 2.37827 14.3362 2.07339 13.8581 2.07339H10.5178V0.985886C10.5178 0.442337 10.0759 0 9.53247 0H6.47361C5.93033 0 5.48827 0.442337 5.48827 0.985886V2.07339H2.14815C1.66983 2.07339 1.24672 2.37827 1.09539 2.832L0.697956 4.02333C0.607456 4.29456 0.653324 4.59489 0.820454 4.82684C0.987583 5.05879 1.25798 5.19736 1.5439 5.19736H1.95932L2.87366 16.5038C2.94164 17.3427 3.65355 18 4.49469 18H11.6969C12.5379 18 13.25 17.3427 13.3178 16.5037L14.2322 5.19736H14.4622C14.7481 5.19736 15.0185 5.05879 15.1856 4.82698C15.3528 4.59503 15.3986 4.29456 15.3081 4.02333ZM6.54296 1.05469H9.46312V2.07339H6.54296V1.05469ZM12.2666 16.4187C12.2427 16.7141 11.9925 16.9453 11.6969 16.9453H4.49469C4.19916 16.9453 3.94895 16.7141 3.92505 16.4187L3.01744 5.19736H13.174L12.2666 16.4187ZM1.77008 4.14267L2.09597 3.16571C2.10338 3.14319 2.12439 3.12808 2.14815 3.12808H13.8581C13.8818 3.12808 13.9027 3.14319 13.9103 3.16571L14.2361 4.14267H1.77008Z" fill="#52555F"/>
</svg>
